<svg width="24" height="24" viewBox="0 0 24 24" fill="none" xmlns="http://www.w3.org/2000/svg">
<path d="M16 8C16 5.79086 14.2091 4 12 4C9.79082 4 7.99995 5.79086 7.99995 8M20.3786 11.7261L19.4453 17.3261C19.2869 18.276 19.2077 18.751 18.9707 19.1074C18.7617 19.4216 18.4685 19.6704 18.1242 19.8248C17.7336 20 17.2523 20 16.2893 20H7.71089C6.74782 20 6.26649 20 5.87593 19.8248C5.53166 19.6704 5.2381 19.4216 5.02916 19.1074C4.79213 18.751 4.71271 18.276 4.55438 17.3261L3.62105 11.7261C3.40739 10.4441 3.30041 9.80313 3.48595 9.30359C3.64877 8.86522 3.96053 8.49781 4.36617 8.26514C4.8284 8 5.47768 8 6.7773 8H17.2224C18.522 8 19.172 8 19.6343 8.26514C20.0399 8.49781 20.351 8.86522 20.5138 9.30359C20.6993 9.80313 20.5923 10.4441 20.3786 11.7261Z" stroke="#454545" stroke-linecap="round" stroke-linejoin="round"/>
</svg>
