<svg width="25" height="24" viewBox="0 0 25 24" fill="none" xmlns="http://www.w3.org/2000/svg">
<path d="M12.8042 0C7.79432 0 6.32912 0.00516826 6.04431 0.0287946C5.0162 0.114255 4.37644 0.276133 3.67946 0.623144C3.14233 0.889863 2.71872 1.19904 2.30065 1.63243C1.53925 2.42281 1.0778 3.39518 0.910754 4.55102C0.829539 5.11215 0.805912 5.22659 0.801113 8.09276C0.799268 9.04815 0.801113 10.3055 0.801113 11.992C0.801113 16.9979 0.806651 18.4616 0.830646 18.7458C0.913708 19.7463 1.0706 20.3757 1.40285 21.0642C2.0378 22.3821 3.2505 23.3714 4.67915 23.7406C5.17383 23.8679 5.72019 23.9381 6.4216 23.9713C6.71877 23.9842 9.74774 23.9935 12.7786 23.9935C15.8094 23.9935 18.8402 23.9898 19.13 23.975C19.9421 23.9368 20.4137 23.8735 20.9352 23.7387C21.6436 23.5571 22.3038 23.223 22.8696 22.7597C23.4355 22.2965 23.8935 21.7153 24.2115 21.0568C24.5373 20.3849 24.7025 19.7315 24.7772 18.7833C24.7935 18.5766 24.8003 15.2805 24.8003 11.9889C24.8003 8.6967 24.7929 5.40674 24.7767 5.20001C24.701 4.2365 24.5358 3.58862 24.1995 2.90382C23.9235 2.34325 23.6171 1.92462 23.1723 1.49658C22.3786 0.738323 21.4077 0.276871 20.2506 0.11001C19.69 0.0289792 19.5783 0.00498368 16.7099 0H12.8042Z" fill="url(#paint0_radial_17_291)"/>
<path d="M12.8042 0C7.79432 0 6.32912 0.00516826 6.04431 0.0287946C5.0162 0.114255 4.37644 0.276133 3.67946 0.623144C3.14233 0.889863 2.71872 1.19904 2.30065 1.63243C1.53925 2.42281 1.0778 3.39518 0.910754 4.55102C0.829539 5.11215 0.805912 5.22659 0.801113 8.09276C0.799268 9.04815 0.801113 10.3055 0.801113 11.992C0.801113 16.9979 0.806651 18.4616 0.830646 18.7458C0.913708 19.7463 1.0706 20.3757 1.40285 21.0642C2.0378 22.3821 3.2505 23.3714 4.67915 23.7406C5.17383 23.8679 5.72019 23.9381 6.4216 23.9713C6.71877 23.9842 9.74774 23.9935 12.7786 23.9935C15.8094 23.9935 18.8402 23.9898 19.13 23.975C19.9421 23.9368 20.4137 23.8735 20.9352 23.7387C21.6436 23.5571 22.3038 23.223 22.8696 22.7597C23.4355 22.2965 23.8935 21.7153 24.2115 21.0568C24.5373 20.3849 24.7025 19.7315 24.7772 18.7833C24.7935 18.5766 24.8003 15.2805 24.8003 11.9889C24.8003 8.6967 24.7929 5.40674 24.7767 5.20001C24.701 4.2365 24.5358 3.58862 24.1995 2.90382C23.9235 2.34325 23.6171 1.92462 23.1723 1.49658C22.3786 0.738323 21.4077 0.276871 20.2506 0.11001C19.69 0.0289792 19.5783 0.00498368 16.7099 0H12.8042Z" fill="url(#paint1_radial_17_291)"/>
<path d="M12.7987 3.1377C10.3925 3.1377 10.0905 3.14822 9.14544 3.19122C8.20223 3.23442 7.55841 3.38374 6.99507 3.60284C6.41235 3.82913 5.91804 4.13185 5.42558 4.62449C4.93275 5.11695 4.63004 5.61126 4.40301 6.1938C4.18336 6.75732 4.03385 7.40132 3.99139 8.34416C3.94931 9.28922 3.93823 9.59137 3.93823 11.9976C3.93823 14.4038 3.94894 14.7048 3.99176 15.6499C4.03514 16.5931 4.18446 17.2369 4.40338 17.8002C4.62986 18.383 4.93257 18.8773 5.42521 19.3697C5.91749 19.8626 6.4118 20.166 6.99415 20.3923C7.55786 20.6114 8.20186 20.7607 9.14488 20.8039C10.0899 20.8469 10.3917 20.8574 12.7977 20.8574C15.2041 20.8574 15.5052 20.8469 16.4502 20.8039C17.3934 20.7607 18.038 20.6114 18.6017 20.3923C19.1842 20.166 19.6778 19.8626 20.1701 19.3697C20.6629 18.8773 20.9656 18.383 21.1926 17.8004C21.4105 17.2369 21.56 16.5929 21.6043 15.6501C21.6467 14.705 21.6578 14.4038 21.6578 11.9976C21.6578 9.59137 21.6467 9.2894 21.6043 8.34435C21.56 7.40114 21.4105 6.75732 21.1926 6.19398C20.9656 5.61126 20.6629 5.11695 20.1701 4.62449C19.6772 4.13166 19.1844 3.82895 18.6011 3.60284C18.0363 3.38374 17.3921 3.23442 16.4489 3.19122C15.5039 3.14822 15.203 3.1377 12.7961 3.1377H12.7987ZM12.0039 4.73432C12.2397 4.73395 12.503 4.73432 12.7987 4.73432C15.1642 4.73432 15.4446 4.74281 16.3788 4.78526C17.2426 4.82476 17.7115 4.9691 18.0238 5.09037C18.4372 5.25096 18.732 5.44292 19.0419 5.75302C19.352 6.06311 19.544 6.35844 19.7049 6.7719C19.8262 7.08385 19.9707 7.55268 20.01 8.41652C20.0525 9.3505 20.0617 9.63106 20.0617 11.9955C20.0617 14.36 20.0525 14.6406 20.01 15.5746C19.9705 16.4384 19.8262 16.9072 19.7049 17.2192C19.5443 17.6326 19.352 17.927 19.0419 18.2369C18.7318 18.547 18.4374 18.739 18.0238 18.8996C17.7118 19.0214 17.2426 19.1654 16.3788 19.2049C15.4448 19.2473 15.1642 19.2566 12.7987 19.2566C10.4329 19.2566 10.1525 19.2473 9.21853 19.2049C8.35469 19.165 7.88586 19.0207 7.57336 18.8994C7.1599 18.7388 6.86457 18.5469 6.55448 18.2368C6.24438 17.9267 6.05242 17.6321 5.89147 17.2184C5.7702 16.9065 5.62567 16.4377 5.58635 15.5738C5.5439 14.6398 5.53541 14.3593 5.53541 11.9933C5.53541 9.62737 5.5439 9.34828 5.58635 8.4143C5.62585 7.55047 5.7702 7.08163 5.89147 6.76932C6.05205 6.35586 6.24438 6.06053 6.55448 5.75043C6.86457 5.44034 7.1599 5.24838 7.57336 5.08742C7.88567 4.9656 8.35469 4.82162 9.21853 4.78194C10.0359 4.74502 10.3526 4.73395 12.0039 4.7321V4.73432ZM17.528 6.20543C17.3177 6.20543 17.1121 6.26779 16.9373 6.38463C16.7624 6.50147 16.6262 6.66754 16.5457 6.86183C16.4652 7.05613 16.4442 7.26992 16.4853 7.47616C16.5263 7.68241 16.6276 7.87185 16.7763 8.02053C16.9251 8.1692 17.1145 8.27043 17.3208 8.31141C17.5271 8.35239 17.7408 8.33129 17.9351 8.25076C18.1294 8.17023 18.2954 8.0339 18.4122 7.85902C18.5289 7.68413 18.5912 7.47854 18.5912 7.26824C18.5912 6.68127 18.115 6.20506 17.528 6.20506V6.20543ZM12.7987 7.44765C10.286 7.44765 8.24874 9.48487 8.24874 11.9976C8.24874 14.5103 10.286 16.5466 12.7987 16.5466C15.3114 16.5466 17.348 14.5103 17.348 11.9976C17.348 9.48487 15.3112 7.44765 12.7985 7.44765H12.7987ZM12.7987 9.04428C14.4296 9.04428 15.7519 10.3664 15.7519 11.9976C15.7519 13.6285 14.4296 14.9509 12.7987 14.9509C11.1675 14.9509 9.84537 13.6285 9.84537 11.9976C9.84537 10.3664 11.1675 9.04428 12.7987 9.04428Z" fill="white"/>
<defs>
<radialGradient id="paint0_radial_17_291" cx="0" cy="0" r="1" gradientUnits="userSpaceOnUse" gradientTransform="translate(7.17532 25.8415) rotate(-90) scale(23.7793 22.1226)">
<stop stop-color="#FFDD55"/>
<stop offset="0.1" stop-color="#FFDD55"/>
<stop offset="0.5" stop-color="#FF543E"/>
<stop offset="1" stop-color="#C837AB"/>
</radialGradient>
<radialGradient id="paint1_radial_17_291" cx="0" cy="0" r="1" gradientUnits="userSpaceOnUse" gradientTransform="translate(-3.21983 1.72845) rotate(78.6776) scale(10.6296 43.8265)">
<stop stop-color="#3771C8"/>
<stop offset="0.128" stop-color="#3771C8"/>
<stop offset="1" stop-color="#6600FF" stop-opacity="0"/>
</radialGradient>
</defs>
</svg>
