<svg width="24" height="24" viewBox="0 0 24 24" fill="none" xmlns="http://www.w3.org/2000/svg">
<path d="M4 19.9999H3.5C3.5 20.1325 3.55268 20.2597 3.64645 20.3534C3.74022 20.4472 3.86739 20.4999 4 20.4999L4 19.9999ZM4 15.9999L3.64645 15.6463C3.55268 15.7401 3.5 15.8673 3.5 15.9999H4ZM14.8686 5.13122L14.5151 4.77766L14.5151 4.77767L14.8686 5.13122ZM17.1313 5.13122L16.7778 5.48477V5.48477L17.1313 5.13122ZM18.8686 6.86848L19.2222 6.51492V6.51492L18.8686 6.86848ZM18.8686 9.13122L18.5151 8.77767L18.5151 8.77767L18.8686 9.13122ZM8 19.9998L8 20.4998C8.13261 20.4998 8.25979 20.4472 8.35355 20.3534L8 19.9998ZM19.5369 7.69088L20.0124 7.53637L19.5369 7.69088ZM19.5369 8.30883L19.0613 8.15432V8.15432L19.5369 8.30883ZM15.691 4.46301L15.5365 3.98748L15.691 4.46301ZM16.3091 4.46301L16.4636 3.98748L16.3091 4.46301ZM12.3536 7.64632C12.1583 7.45106 11.8417 7.45106 11.6464 7.64632C11.4512 7.84158 11.4512 8.15816 11.6464 8.35342L12.3536 7.64632ZM15.6464 12.3534C15.8417 12.5487 16.1583 12.5487 16.3536 12.3534C16.5488 12.1582 16.5488 11.8416 16.3536 11.6463L15.6464 12.3534ZM4.5 19.9999V15.9999H3.5V19.9999H4.5ZM4.35355 16.3534L15.2222 5.48477L14.5151 4.77767L3.64645 15.6463L4.35355 16.3534ZM16.7778 5.48477L18.5151 7.22203L19.2222 6.51492L17.4849 4.77767L16.7778 5.48477ZM18.5151 8.77767L7.64645 19.6463L8.35355 20.3534L19.2222 9.48477L18.5151 8.77767ZM8 19.4998L4 19.4999L4 20.4999L8 20.4998L8 19.4998ZM18.5151 7.22203C18.7189 7.42587 18.8503 7.55778 18.9423 7.66615C19.0305 7.77007 19.0528 7.81901 19.0613 7.84538L20.0124 7.53637C19.9468 7.33442 19.8329 7.17017 19.7046 7.01897C19.58 6.87223 19.4143 6.7071 19.2222 6.51492L18.5151 7.22203ZM19.2222 9.48477C19.4144 9.29259 19.58 9.12747 19.7046 8.98073C19.833 8.82953 19.9468 8.66528 20.0124 8.46334L19.0613 8.15432C19.0528 8.18071 19.0305 8.22965 18.9423 8.33356C18.8503 8.44192 18.7189 8.57383 18.5151 8.77767L19.2222 9.48477ZM19.0613 7.84538C19.094 7.94581 19.094 8.0539 19.0613 8.15432L20.0124 8.46334C20.1103 8.16207 20.1103 7.83763 20.0124 7.53637L19.0613 7.84538ZM15.2222 5.48477C15.426 5.28094 15.5579 5.14959 15.6663 5.0576C15.7702 4.9694 15.8191 4.94711 15.8455 4.93853L15.5365 3.98748C15.3346 4.05309 15.1703 4.16689 15.0191 4.29525C14.8724 4.41982 14.7073 4.58548 14.5151 4.77766L15.2222 5.48477ZM17.4849 4.77767C17.2927 4.58551 17.1276 4.41984 16.981 4.29529C16.8298 4.16693 16.6656 4.0531 16.4636 3.98748L16.1546 4.93853C16.1809 4.9471 16.2298 4.96937 16.3337 5.05757C16.4421 5.14957 16.5739 5.28091 16.7778 5.48477L17.4849 4.77767ZM15.8455 4.93853C15.9459 4.90591 16.0542 4.90591 16.1546 4.93853L16.4636 3.98748C16.1623 3.88959 15.8378 3.88959 15.5365 3.98748L15.8455 4.93853ZM11.6464 8.35342L15.6464 12.3534L16.3536 11.6463L12.3536 7.64632L11.6464 8.35342Z" fill="#494949"/>
</svg>
