<svg width="18" height="18" viewBox="0 0 18 18" fill="none" xmlns="http://www.w3.org/2000/svg">
<path d="M11.6036 10.8964C11.4083 10.7012 11.0917 10.7012 10.8964 10.8964C10.7012 11.0917 10.7012 11.4083 10.8964 11.6036L11.6036 10.8964ZM15.3964 16.1036C15.5917 16.2988 15.9083 16.2988 16.1036 16.1036C16.2988 15.9083 16.2988 15.5917 16.1036 15.3964L15.3964 16.1036ZM7.5 12.25C4.87665 12.25 2.75 10.1234 2.75 7.5H1.75C1.75 10.6756 4.32436 13.25 7.5 13.25V12.25ZM2.75 7.5C2.75 4.87665 4.87665 2.75 7.5 2.75V1.75C4.32436 1.75 1.75 4.32436 1.75 7.5H2.75ZM7.5 2.75C10.1234 2.75 12.25 4.87665 12.25 7.5H13.25C13.25 4.32436 10.6756 1.75 7.5 1.75V2.75ZM12.25 7.5C12.25 10.1234 10.1234 12.25 7.5 12.25V13.25C10.6756 13.25 13.25 10.6756 13.25 7.5H12.25ZM10.8964 11.6036L15.3964 16.1036L16.1036 15.3964L11.6036 10.8964L10.8964 11.6036Z" fill="#454545"/>
</svg>
