<svg width="29" height="24" viewBox="0 0 29 24" fill="none" xmlns="http://www.w3.org/2000/svg">
<path d="M25.8519 5.97474C25.8694 6.23512 25.8694 6.4955 25.8694 6.75829C25.8694 14.7654 19.9257 24 9.05722 24V23.9952C5.84665 24 2.70278 23.0569 0 21.2786C0.466843 21.3362 0.936026 21.365 1.40638 21.3662C4.06703 21.3686 6.65164 20.453 8.74482 18.7671C6.21638 18.7179 3.99917 17.0272 3.22461 14.559C4.11032 14.7342 5.02295 14.6982 5.89228 14.4546C3.13569 13.8834 1.15248 11.3996 1.15248 8.51498C1.15248 8.48858 1.15248 8.46338 1.15248 8.43818C1.97385 8.90735 2.89349 9.16774 3.8342 9.19653C1.23789 7.41705 0.437592 3.87487 2.00544 1.10545C5.0054 4.89121 9.43163 7.19266 14.1831 7.43625C13.7069 5.33158 14.3575 3.12612 15.8926 1.64661C18.2724 -0.647644 22.0153 -0.530052 24.2524 1.90939C25.5757 1.64181 26.8441 1.14384 28.0047 0.438287C27.5636 1.841 26.6405 3.03252 25.4073 3.78968C26.5785 3.64808 27.7228 3.3265 28.8004 2.83574C28.0071 4.05486 27.0079 5.11679 25.8519 5.97474Z" fill="#1D9BF0"/>
</svg>
