<?xml version="1.0" encoding="UTF-8"?> <svg xmlns="http://www.w3.org/2000/svg" width="214" height="60" viewBox="0 0 214 60" fill="none"> <g clip-path="url(#clip0_181_47)"> <path d="M24.3006 25.7004L15.3006 10.4004L1.35059 33.8004H32.4006L35.1006 29.3004H9.90059L15.3006 20.3004L18.9006 25.7004H24.3006Z" fill="#FE6409"></path> <path d="M23.3992 37.4004H9.44922V48.2004L13.9492 52.7004V41.9004H20.6992L23.3992 37.4004Z" fill="#FE6409"></path> <path d="M24.3006 25.7004L15.3006 10.4004L1.35059 33.8004H32.4006L35.1006 29.3004H9.90059L15.3006 20.3004L18.9006 25.7004H24.3006Z" stroke="#FE6409" stroke-width="0.9"></path> <path d="M23.3992 37.4004H9.44922V48.2004L13.9492 52.7004V41.9004H20.6992L23.3992 37.4004Z" stroke="#FE6409" stroke-width="0.9"></path> </g> <path d="M52.916 28.506L51.208 32.398H54.666L52.916 28.506ZM55.688 34.694H50.186L49.388 36.5H46.042L50.774 26.084H55.184L60.07 36.5H56.5L55.688 34.694ZM71.2394 26.084V28.534H64.6734V30.228H71.0434V32.734H64.6734V36.5H61.3414V26.084H71.2394ZM76.7323 33.28V36.5H73.3863V26.084H80.7223C81.6183 26.084 82.3603 26.1727 82.9483 26.35C83.5456 26.518 84.017 26.756 84.3623 27.064C84.717 27.372 84.9643 27.7407 85.1043 28.17C85.2536 28.59 85.3283 29.0567 85.3283 29.57V29.738C85.3283 30.242 85.2536 30.7133 85.1043 31.152C84.9643 31.5813 84.717 31.9547 84.3623 32.272C84.0076 32.5893 83.5316 32.8367 82.9343 33.014C82.3463 33.1913 81.609 33.28 80.7223 33.28H76.7323ZM76.7323 30.788H80.4423C80.965 30.788 81.329 30.69 81.5343 30.494C81.749 30.2887 81.8563 30.0227 81.8563 29.696V29.654C81.8563 29.346 81.749 29.094 81.5343 28.898C81.329 28.6927 80.965 28.59 80.4423 28.59H76.7323V30.788ZM97.2316 26.084V28.478H90.5676V29.99H97.0216V32.468H90.5676V34.078H97.3156V36.5H87.2496V26.084H97.2316ZM102.873 30.55H106.807C107.078 30.55 107.297 30.5267 107.465 30.48C107.642 30.424 107.782 30.3493 107.885 30.256C107.988 30.1627 108.058 30.0553 108.095 29.934C108.132 29.8127 108.151 29.6867 108.151 29.556V29.528C108.151 29.4067 108.132 29.29 108.095 29.178C108.058 29.0567 107.988 28.954 107.885 28.87C107.782 28.7767 107.642 28.7067 107.465 28.66C107.297 28.604 107.078 28.576 106.807 28.576H102.873V30.55ZM109.369 31.488C109.714 31.5533 110.032 31.6513 110.321 31.782C110.61 31.9127 110.858 32.0853 111.063 32.3C111.268 32.5053 111.427 32.7573 111.539 33.056C111.66 33.3453 111.721 33.686 111.721 34.078V35.436C111.721 35.7627 111.735 35.9913 111.763 36.122C111.8 36.2527 111.842 36.3553 111.889 36.43V36.5H108.431C108.412 36.4627 108.394 36.3927 108.375 36.29C108.356 36.1873 108.347 36.0287 108.347 35.814V34.946C108.347 34.61 108.314 34.3253 108.249 34.092C108.184 33.8587 108.072 33.672 107.913 33.532C107.764 33.3827 107.563 33.2753 107.311 33.21C107.059 33.1447 106.751 33.112 106.387 33.112H102.873V36.5H99.5269V26.084H107.255C108.226 26.084 109 26.1727 109.579 26.35C110.158 26.5273 110.596 26.7513 110.895 27.022C111.203 27.2927 111.404 27.596 111.497 27.932C111.59 28.268 111.637 28.59 111.637 28.898V29.024C111.637 29.3693 111.576 29.682 111.455 29.962C111.334 30.2327 111.17 30.4707 110.965 30.676C110.76 30.8813 110.517 31.054 110.237 31.194C109.966 31.3247 109.677 31.4227 109.369 31.488ZM123.767 26.084V28.534H117.201V30.228H123.571V32.734H117.201V36.5H113.869V26.084H123.767ZM132.564 25.916C133.432 25.916 134.192 25.9907 134.846 26.14C135.508 26.2893 136.078 26.4947 136.554 26.756C137.039 27.0173 137.44 27.3207 137.758 27.666C138.075 28.002 138.327 28.3613 138.514 28.744C138.71 29.1173 138.845 29.5047 138.92 29.906C139.004 30.3073 139.046 30.69 139.046 31.054V31.474C139.046 32.0247 138.952 32.6033 138.766 33.21C138.579 33.8167 138.243 34.3767 137.758 34.89C137.282 35.4033 136.624 35.828 135.784 36.164C134.944 36.5 133.87 36.668 132.564 36.668H131.934C131.066 36.668 130.3 36.5933 129.638 36.444C128.984 36.2853 128.415 36.0753 127.93 35.814C127.454 35.5433 127.057 35.2353 126.74 34.89C126.422 34.5447 126.166 34.1807 125.97 33.798C125.783 33.406 125.648 33.014 125.564 32.622C125.489 32.2207 125.452 31.838 125.452 31.474V31.054C125.452 30.6807 125.489 30.298 125.564 29.906C125.648 29.5047 125.783 29.1173 125.97 28.744C126.166 28.3613 126.422 28.002 126.74 27.666C127.057 27.3207 127.454 27.0173 127.93 26.756C128.415 26.4947 128.984 26.2893 129.638 26.14C130.3 25.9907 131.066 25.916 131.934 25.916H132.564ZM135.56 31.166C135.56 30.886 135.518 30.592 135.434 30.284C135.35 29.9667 135.186 29.6773 134.944 29.416C134.71 29.1547 134.374 28.94 133.936 28.772C133.506 28.604 132.946 28.52 132.256 28.52C131.556 28.52 130.991 28.604 130.562 28.772C130.132 28.94 129.796 29.1547 129.554 29.416C129.311 29.6773 129.148 29.9667 129.064 30.284C128.98 30.592 128.938 30.886 128.938 31.166V31.348C128.938 31.628 128.98 31.9267 129.064 32.244C129.157 32.5613 129.325 32.8553 129.568 33.126C129.82 33.3873 130.16 33.6067 130.59 33.784C131.019 33.952 131.574 34.036 132.256 34.036C132.946 34.036 133.506 33.952 133.936 33.784C134.374 33.6067 134.71 33.3873 134.944 33.126C135.186 32.8553 135.35 32.5613 135.434 32.244C135.518 31.9267 135.56 31.628 135.56 31.348V31.166ZM141.048 26.084H145.584L148.65 32.566L151.786 26.084H156.098V36.5H152.822V29.85L149.7 36.5H147.376L144.268 29.85V36.5H141.048V26.084ZM164.246 28.506L162.538 32.398H165.996L164.246 28.506ZM167.018 34.694H161.516L160.718 36.5H157.372L162.104 26.084H166.514L171.4 36.5H167.83L167.018 34.694ZM175.933 30.144V36.5H172.671V26.084H176.087L181.939 32.328V26.084H185.187V36.5H181.953L175.933 30.144ZM193.466 36.668C192.616 36.668 191.87 36.5887 191.226 36.43C190.591 36.2713 190.04 36.0567 189.574 35.786C189.116 35.5153 188.734 35.2073 188.426 34.862C188.118 34.5073 187.87 34.1387 187.684 33.756C187.506 33.364 187.38 32.972 187.306 32.58C187.231 32.188 187.194 31.8193 187.194 31.474V31.054C187.194 30.6993 187.231 30.3307 187.306 29.948C187.38 29.556 187.506 29.1687 187.684 28.786C187.87 28.4033 188.113 28.0393 188.412 27.694C188.72 27.3487 189.107 27.0453 189.574 26.784C190.04 26.5133 190.591 26.3033 191.226 26.154C191.87 25.9953 192.616 25.916 193.466 25.916H194.11C195.342 25.916 196.354 26.0467 197.148 26.308C197.941 26.5693 198.566 26.9053 199.024 27.316C199.49 27.7267 199.812 28.184 199.99 28.688C200.167 29.1827 200.256 29.6633 200.256 30.13V30.2H196.812C196.802 30.1347 196.765 30.0133 196.7 29.836C196.634 29.6493 196.494 29.4627 196.28 29.276C196.074 29.08 195.776 28.9073 195.384 28.758C194.992 28.6087 194.46 28.534 193.788 28.534C193.172 28.534 192.663 28.6133 192.262 28.772C191.86 28.9307 191.543 29.136 191.31 29.388C191.076 29.64 190.913 29.9247 190.82 30.242C190.726 30.55 190.68 30.8533 190.68 31.152V31.334C190.68 31.614 190.726 31.9127 190.82 32.23C190.913 32.5473 191.076 32.8413 191.31 33.112C191.552 33.3733 191.874 33.5927 192.276 33.77C192.677 33.938 193.186 34.022 193.802 34.022C194.474 34.022 195.006 33.9473 195.398 33.798C195.79 33.6487 196.088 33.476 196.294 33.28C196.499 33.084 196.634 32.8973 196.7 32.72C196.765 32.5333 196.802 32.4027 196.812 32.328H200.256V32.412C200.256 32.7013 200.218 33.0093 200.144 33.336C200.069 33.6627 199.943 33.9847 199.766 34.302C199.588 34.6193 199.346 34.9227 199.038 35.212C198.739 35.492 198.361 35.7393 197.904 35.954C197.446 36.1687 196.905 36.3413 196.28 36.472C195.654 36.6027 194.931 36.668 194.11 36.668H193.466ZM212.212 26.084V28.478H205.548V29.99H212.002V32.468H205.548V34.078H212.296V36.5H202.23V26.084H212.212Z" fill="url(#paint0_linear_181_47)"></path> <defs> <linearGradient id="paint0_linear_181_47" x1="214" y1="32" x2="46" y2="32" gradientUnits="userSpaceOnUse"> <stop stop-color="#17191C"></stop> <stop offset="1" stop-color="#FE6409"></stop> </linearGradient> <clipPath id="clip0_181_47"> <rect width="36" height="45" fill="white" transform="translate(0 9.5)"></rect> </clipPath> </defs> </svg> 