<svg width="77" height="40" viewBox="0 0 77 40" fill="none" xmlns="http://www.w3.org/2000/svg">
<path d="M22.696 9.6V32H21.256V12.32L13 22.72L4.36 12.256V32H2.92V9.6H4.072L12.968 20.416L21.544 9.6H22.696ZM33.777 32.256C29.777 32.256 26.545 28.992 26.545 24.992V9.6H27.985V24.992C27.985 28.224 30.609 30.816 33.777 30.816C36.945 30.816 39.569 28.224 39.569 24.992V9.6H41.009V24.992C41.009 28.992 37.777 32.256 33.777 32.256ZM57.8495 25.44C57.7215 23.616 56.8255 21.92 55.3535 20.864C53.9135 19.776 52.5055 19.456 51.2575 19.168C49.9775 18.848 48.8575 18.592 47.8975 17.6C46.9375 16.608 46.4255 15.52 46.4895 14.432C46.5215 13.44 46.9695 12.544 47.8015 11.776C49.6895 10.176 52.7295 10.208 54.6175 11.872C55.1295 12.32 55.4815 12.864 55.7055 13.44L57.1775 13.216C56.8895 12.32 56.3455 11.456 55.5775 10.784C54.3935 9.728 52.8255 9.152 51.1615 9.152C49.5615 9.152 48.0895 9.6 46.7455 10.752C45.6575 11.776 45.0815 13.024 45.0175 14.368C44.9535 15.872 45.6255 17.376 46.8415 18.624C48.1215 19.936 49.5615 20.256 50.9375 20.576C52.0895 20.864 53.2735 21.12 54.4895 22.016C55.6415 22.848 56.3135 24.096 56.3775 25.536C56.4735 27.008 55.8975 28.448 54.8095 29.536C52.8895 31.232 49.7855 31.264 47.8015 29.632C46.9695 28.928 46.4255 28 46.2975 27.008L44.8575 27.232C45.0495 28.576 45.7535 29.824 46.8415 30.752C48.0575 31.744 49.5935 32.288 51.2575 32.288H51.4175C53.0495 32.256 54.5535 31.68 55.7055 30.688L55.8975 30.496C57.2415 29.152 57.9455 27.328 57.8495 25.44ZM74.3475 9.504H60.1075V10.944H66.5075V32H67.9475V10.944H74.3475V9.504Z" fill="#2E2E2E"/>
<path d="M21.696 11.6V34H20.256V14.32L12 24.72L3.36 14.256V34H1.92V11.6H3.072L11.968 22.416L20.544 11.6H21.696ZM32.777 34.256C28.777 34.256 25.545 30.992 25.545 26.992V11.6H26.985V26.992C26.985 30.224 29.609 32.816 32.777 32.816C35.945 32.816 38.569 30.224 38.569 26.992V11.6H40.009V26.992C40.009 30.992 36.777 34.256 32.777 34.256ZM56.8495 27.44C56.7215 25.616 55.8255 23.92 54.3535 22.864C52.9135 21.776 51.5055 21.456 50.2575 21.168C48.9775 20.848 47.8575 20.592 46.8975 19.6C45.9375 18.608 45.4255 17.52 45.4895 16.432C45.5215 15.44 45.9695 14.544 46.8015 13.776C48.6895 12.176 51.7295 12.208 53.6175 13.872C54.1295 14.32 54.4815 14.864 54.7055 15.44L56.1775 15.216C55.8895 14.32 55.3455 13.456 54.5775 12.784C53.3935 11.728 51.8255 11.152 50.1615 11.152C48.5615 11.152 47.0895 11.6 45.7455 12.752C44.6575 13.776 44.0815 15.024 44.0175 16.368C43.9535 17.872 44.6255 19.376 45.8415 20.624C47.1215 21.936 48.5615 22.256 49.9375 22.576C51.0895 22.864 52.2735 23.12 53.4895 24.016C54.6415 24.848 55.3135 26.096 55.3775 27.536C55.4735 29.008 54.8975 30.448 53.8095 31.536C51.8895 33.232 48.7855 33.264 46.8015 31.632C45.9695 30.928 45.4255 30 45.2975 29.008L43.8575 29.232C44.0495 30.576 44.7535 31.824 45.8415 32.752C47.0575 33.744 48.5935 34.288 50.2575 34.288H50.4175C52.0495 34.256 53.5535 33.68 54.7055 32.688L54.8975 32.496C56.2415 31.152 56.9455 29.328 56.8495 27.44ZM73.3475 11.504H59.1075V12.944H65.5075V34H66.9475V12.944H73.3475V11.504Z" fill="#2E2E2E"/>
</svg>
