<?xml version="1.0" encoding="UTF-8"?>
<svg xmlns="http://www.w3.org/2000/svg" xmlns:xlink="http://www.w3.org/1999/xlink" width="40px" height="40px" viewBox="0 0 40 40" version="1.1">
<path style=" stroke:none;fill-rule:nonzero;fill:#881616;fill-opacity:1;" d="M 20 0 C 11.714844 0 5 6.714844 5 15 C 5 18.261719 6.070312 21.253906 7.847656 23.707031 C 7.878906 23.765625 7.882812 23.832031 7.921875 23.886719 L 17.921875 38.886719 C 18.382812 39.582031 19.164062 40 20 40 C 20.835938 40 21.617188 39.582031 22.078125 38.886719 L 32.078125 23.886719 C 32.117188 23.832031 32.121094 23.765625 32.152344 23.707031 C 33.929688 21.253906 35 18.261719 35 15 C 35 6.714844 28.285156 0 20 0 Z M 20 20 C 17.238281 20 15 17.761719 15 15 C 15 12.238281 17.238281 10 20 10 C 22.761719 10 25 12.238281 25 15 C 25 17.761719 22.761719 20 20 20 Z M 20 20 "/>
</svg>
