<?xml version="1.0" encoding="UTF-8"?>
<svg xmlns="http://www.w3.org/2000/svg" xmlns:xlink="http://www.w3.org/1999/xlink" width="20px" height="20px" viewBox="0 0 20 20" version="1.1">
<g id="surface1">
<path style=" stroke:none;fill-rule:nonzero;fill:#AD1B1B;fill-opacity:1;" d="M 10.296875 9.707031 C 10.136719 9.546875 9.875 9.546875 9.710938 9.707031 L 0.121094 19.296875 C -0.0390625 19.460938 -0.0351562 19.726562 0.128906 19.882812 C 0.289062 20.039062 0.542969 20.039062 0.707031 19.882812 L 10.003906 10.59375 L 19.292969 19.882812 C 19.460938 20.042969 19.722656 20.039062 19.882812 19.875 C 20.035156 19.714844 20.035156 19.457031 19.882812 19.296875 Z M 10.296875 9.707031 "/>
<path style=" stroke:none;fill-rule:nonzero;fill:#AD1B1B;fill-opacity:1;" d="M 0.710938 10.296875 L 10.003906 1.003906 L 19.292969 10.296875 C 19.460938 10.457031 19.722656 10.449219 19.882812 10.289062 C 20.035156 10.125 20.035156 9.871094 19.882812 9.707031 L 10.296875 0.121094 C 10.136719 -0.0390625 9.875 -0.0390625 9.710938 0.121094 L 0.121094 9.707031 C -0.0390625 9.875 -0.0351562 10.136719 0.128906 10.296875 C 0.292969 10.457031 0.546875 10.457031 0.710938 10.296875 Z M 0.710938 10.296875 "/>
</g>
</svg>
