<?xml version="1.0" encoding="UTF-8"?> <svg xmlns="http://www.w3.org/2000/svg" width="24" height="24" viewBox="0 0 24 24" fill="none"> <path fill-rule="evenodd" clip-rule="evenodd" d="M2 10C2 6.13401 5.13401 3 9 3H15C18.866 3 22 6.13401 22 10C22 11.6569 20.6569 13 19 13H5C3.34315 13 2 11.6569 2 10ZM9 5H15C17.7614 5 20 7.23858 20 10C20 10.5523 19.5523 11 19 11H5C4.44772 11 4 10.5523 4 10C4 7.23858 6.23858 5 9 5Z" fill="#1771F1"></path> <path fill-rule="evenodd" clip-rule="evenodd" d="M22 18C22 19.6569 20.6569 21 19 21H5C3.34315 21 2 19.6569 2 18C2 16.3431 3.34315 15 5 15H19C20.6569 15 22 16.3431 22 18ZM19 19H5C4.44772 19 4 18.5523 4 18C4 17.4477 4.44772 17 5 17H19C19.5523 17 20 17.4477 20 18C20 18.5523 19.5523 19 19 19Z" fill="#1771F1"></path> <path fill-rule="evenodd" clip-rule="evenodd" d="M20 13H4C3.44772 13 3 13.4477 3 14C3 14.5523 3.44772 15 4 15H20C20.5523 15 21 14.5523 21 14C21 13.4477 20.5523 13 20 13ZM4 11C2.34315 11 1 12.3431 1 14C1 15.6569 2.34315 17 4 17H20C21.6569 17 23 15.6569 23 14C23 12.3431 21.6569 11 20 11H4Z" fill="#1771F1"></path> <path d="M9 8C9 8.55229 8.55229 9 8 9C7.44772 9 7 8.55229 7 8C7 7.44772 7.44772 7 8 7C8.55229 7 9 7.44772 9 8Z" fill="#1771F1"></path> <path d="M13 8C13 8.55229 12.5523 9 12 9C11.4477 9 11 8.55229 11 8C11 7.44772 11.4477 7 12 7C12.5523 7 13 7.44772 13 8Z" fill="#1771F1"></path> <path d="M16 9C16.5523 9 17 8.55229 17 8C17 7.44772 16.5523 7 16 7C15.4477 7 15 7.44772 15 8C15 8.55229 15.4477 9 16 9Z" fill="#1771F1"></path> </svg> 