<?xml version="1.0" encoding="UTF-8"?> <!-- Generator: Adobe Illustrator 24.0.1, SVG Export Plug-In . SVG Version: 6.00 Build 0) --> <svg xmlns="http://www.w3.org/2000/svg" xmlns:xlink="http://www.w3.org/1999/xlink" id="Слой_1" x="0px" y="0px" viewBox="0 0 30 28" style="enable-background:new 0 0 30 28;" xml:space="preserve"> <style type="text/css"> .st0{fill-rule:evenodd;clip-rule:evenodd;fill:#A400FF;} .st1{fill:#A400FF;} </style> <path class="st0" d="M18.6,18l0.6,0.8c0.5,0.7,1.4,1.2,2.3,1.2c1.7,0,3-1.5,2.8-3.2l-0.8-6.2c-0.2-1.5-1.5-2.6-3-2.6H9.4 c-1.5,0-2.8,1.1-3,2.6l-0.8,6.2C5.5,18.5,6.8,20,8.5,20c0.9,0,1.8-0.5,2.3-1.2l0.6-0.8H18.6z M17.6,20c0.9,1.2,2.3,2,3.9,2 c2.9,0,5.1-2.5,4.8-5.4l-0.8-6.2c-0.3-2.5-2.4-4.4-5-4.4H9.4c-2.5,0-4.6,1.9-5,4.4l-0.8,6.2C3.3,19.5,5.6,22,8.5,22 c1.6,0,3-0.8,3.9-2H17.6z"></path> <path class="st1" d="M11,10c-0.6,0-1,0.4-1,1v1H9c-0.6,0-1,0.4-1,1s0.4,1,1,1h1v1c0,0.6,0.4,1,1,1s1-0.4,1-1v-1h1c0.6,0,1-0.4,1-1 s-0.4-1-1-1h-1v-1C12,10.4,11.6,10,11,10z"></path> <path class="st1" d="M21,12c0.6,0,1-0.4,1-1s-0.4-1-1-1s-1,0.4-1,1S20.4,12,21,12z"></path> <path class="st1" d="M19,16c0.6,0,1-0.4,1-1s-0.4-1-1-1s-1,0.4-1,1S18.4,16,19,16z"></path> </svg> 