<?xml version="1.0" encoding="UTF-8"?> <svg xmlns="http://www.w3.org/2000/svg" width="30" height="28" viewBox="0 0 30 28" fill="none"> <path fill-rule="evenodd" clip-rule="evenodd" d="M18.6429 18L19.2417 18.8278C19.7594 19.5435 20.5962 20 21.5336 20C23.2333 20 24.5483 18.5103 24.3375 16.8238L23.563 10.6279C23.3753 9.12661 22.0991 8 20.5862 8H9.41399C7.90102 8 6.62482 9.12661 6.43716 10.6279L5.66267 16.8238C5.45185 18.5103 6.7669 20 8.46656 20C9.40396 20 10.2408 19.5435 10.7585 18.8278L11.3573 18H18.6429ZM17.6212 20C18.5005 21.2154 19.9301 22 21.5336 22C24.4363 22 26.6821 19.456 26.322 16.5757L25.5476 10.3798C25.2348 7.87768 23.1078 6 20.5862 6H9.41399C6.89237 6 4.76537 7.87768 4.4526 10.3798L3.67811 16.5757C3.31808 19.456 5.5639 22 8.46656 22C10.0701 22 11.4997 21.2154 12.3789 20H17.6212Z" fill="#1771F1"></path> <path d="M11 10C10.4477 10 10 10.4477 10 11V12H9C8.44772 12 8 12.4477 8 13C8 13.5523 8.44772 14 9 14H10V15C10 15.5523 10.4477 16 11 16C11.5523 16 12 15.5523 12 15V14H13C13.5523 14 14 13.5523 14 13C14 12.4477 13.5523 12 13 12H12V11C12 10.4477 11.5523 10 11 10Z" fill="#1771F1"></path> <path d="M21 12C21.5523 12 22 11.5523 22 11C22 10.4477 21.5523 10 21 10C20.4477 10 20 10.4477 20 11C20 11.5523 20.4477 12 21 12Z" fill="#1771F1"></path> <path d="M19 16C19.5523 16 20 15.5523 20 15C20 14.4477 19.5523 14 19 14C18.4477 14 18 14.4477 18 15C18 15.5523 18.4477 16 19 16Z" fill="#1771F1"></path> </svg> 