<?xml version="1.0" encoding="UTF-8"?> <svg xmlns="http://www.w3.org/2000/svg" width="24" height="24" viewBox="0 0 24 24" fill="none"> <g clip-path="url(#clip0)"> <path fill-rule="evenodd" clip-rule="evenodd" d="M6 4L6 20C6 21.1046 6.89543 22 8 22L16 22C17.1046 22 18 21.1046 18 20L18 4C18 2.89543 17.1046 2 16 2L8 2C6.89543 2 6 2.89543 6 4ZM4 20C4 22.2091 5.79086 24 8 24L16 24C18.2091 24 20 22.2091 20 20L20 4C20 1.79086 18.2091 -6.21101e-07 16 -5.24537e-07L8 -1.74846e-07C5.79086 -7.8281e-08 4 1.79086 4 4L4 20Z" fill="#1771F1"></path> <path fill-rule="evenodd" clip-rule="evenodd" d="M12 18C13.1046 18 14 17.1046 14 16C14 14.8954 13.1046 14 12 14C10.8954 14 10 14.8954 10 16C10 17.1046 10.8954 18 12 18ZM12 20C14.2091 20 16 18.2091 16 16C16 13.7909 14.2091 12 12 12C9.79086 12 8 13.7909 8 16C8 18.2091 9.79086 20 12 20Z" fill="#1771F1"></path> <path fill-rule="evenodd" clip-rule="evenodd" d="M12 8C12.5523 8 13 7.55228 13 7C13 6.44772 12.5523 6 12 6C11.4477 6 11 6.44772 11 7C11 7.55228 11.4477 8 12 8ZM12 10C13.6569 10 15 8.65685 15 7C15 5.34315 13.6569 4 12 4C10.3431 4 9 5.34315 9 7C9 8.65685 10.3431 10 12 10Z" fill="#1771F1"></path> </g> <defs> <clipPath id="clip0"> <rect width="24" height="24" fill="white"></rect> </clipPath> </defs> </svg> 