<?xml version="1.0" encoding="UTF-8"?> <svg xmlns="http://www.w3.org/2000/svg" width="512" height="512" viewBox="0 0 512 512" fill="none"> <path d="M376.537 322.24C368.671 315.643 322.537 286.429 314.869 287.77C311.269 288.409 308.515 291.478 301.144 300.271C297.735 304.599 293.992 308.652 289.948 312.394C282.539 310.604 275.367 307.946 268.582 304.474C241.972 291.518 220.474 270.014 207.526 243.4C204.054 236.615 201.396 229.443 199.606 222.034C203.348 217.99 207.401 214.247 211.729 210.838C220.513 203.467 223.591 200.731 224.23 197.113C225.571 189.427 196.33 143.311 189.76 135.445C187.006 132.187 184.504 130 181.3 130C172.012 130 130 181.948 130 188.68C130 189.229 130.9 243.31 199.201 312.799C268.69 381.1 322.771 382 323.32 382C330.052 382 382 339.988 382 330.7C382 327.496 379.813 324.994 376.537 322.24V322.24Z" fill="white"></path> <path d="M319 247H337C336.979 227.911 329.386 209.61 315.888 196.112C302.39 182.614 284.089 175.021 265 175V193C279.317 193.014 293.044 198.708 303.168 208.832C313.292 218.956 318.986 232.683 319 247V247Z" fill="white"></path> <path d="M364 247H382C381.964 215.981 369.626 186.242 347.692 164.308C325.758 142.374 296.019 130.036 265 130V148C291.247 148.031 316.41 158.471 334.969 177.031C353.529 195.59 363.969 220.753 364 247Z" fill="white"></path> </svg> 