<svg width="77" height="39" viewBox="0 0 77 39" fill="none" xmlns="http://www.w3.org/2000/svg">
<path d="M22.696 9.6V32H21.256V12.32L13 22.72L4.36 12.256V32H2.92V9.6H4.072L12.968 20.416L21.544 9.6H22.696ZM33.777 32.256C29.777 32.256 26.545 28.992 26.545 24.992V9.6H27.985V24.992C27.985 28.224 30.609 30.816 33.777 30.816C36.945 30.816 39.569 28.224 39.569 24.992V9.6H41.009V24.992C41.009 28.992 37.777 32.256 33.777 32.256ZM57.8495 25.44C57.7215 23.616 56.8255 21.92 55.3535 20.864C53.9135 19.776 52.5055 19.456 51.2575 19.168C49.9775 18.848 48.8575 18.592 47.8975 17.6C46.9375 16.608 46.4255 15.52 46.4895 14.432C46.5215 13.44 46.9695 12.544 47.8015 11.776C49.6895 10.176 52.7295 10.208 54.6175 11.872C55.1295 12.32 55.4815 12.864 55.7055 13.44L57.1775 13.216C56.8895 12.32 56.3455 11.456 55.5775 10.784C54.3935 9.728 52.8255 9.152 51.1615 9.152C49.5615 9.152 48.0895 9.6 46.7455 10.752C45.6575 11.776 45.0815 13.024 45.0175 14.368C44.9535 15.872 45.6255 17.376 46.8415 18.624C48.1215 19.936 49.5615 20.256 50.9375 20.576C52.0895 20.864 53.2735 21.12 54.4895 22.016C55.6415 22.848 56.3135 24.096 56.3775 25.536C56.4735 27.008 55.8975 28.448 54.8095 29.536C52.8895 31.232 49.7855 31.264 47.8015 29.632C46.9695 28.928 46.4255 28 46.2975 27.008L44.8575 27.232C45.0495 28.576 45.7535 29.824 46.8415 30.752C48.0575 31.744 49.5935 32.288 51.2575 32.288H51.4175C53.0495 32.256 54.5535 31.68 55.7055 30.688L55.8975 30.496C57.2415 29.152 57.9455 27.328 57.8495 25.44ZM74.3475 9.504H60.1075V10.944H66.5075V32H67.9475V10.944H74.3475V9.504Z" fill="#DBDBDB"/>
<path d="M21.696 10.6V33H20.256V13.32L12 23.72L3.36 13.256V33H1.92V10.6H3.072L11.968 21.416L20.544 10.6H21.696ZM32.777 33.256C28.777 33.256 25.545 29.992 25.545 25.992V10.6H26.985V25.992C26.985 29.224 29.609 31.816 32.777 31.816C35.945 31.816 38.569 29.224 38.569 25.992V10.6H40.009V25.992C40.009 29.992 36.777 33.256 32.777 33.256ZM56.8495 26.44C56.7215 24.616 55.8255 22.92 54.3535 21.864C52.9135 20.776 51.5055 20.456 50.2575 20.168C48.9775 19.848 47.8575 19.592 46.8975 18.6C45.9375 17.608 45.4255 16.52 45.4895 15.432C45.5215 14.44 45.9695 13.544 46.8015 12.776C48.6895 11.176 51.7295 11.208 53.6175 12.872C54.1295 13.32 54.4815 13.864 54.7055 14.44L56.1775 14.216C55.8895 13.32 55.3455 12.456 54.5775 11.784C53.3935 10.728 51.8255 10.152 50.1615 10.152C48.5615 10.152 47.0895 10.6 45.7455 11.752C44.6575 12.776 44.0815 14.024 44.0175 15.368C43.9535 16.872 44.6255 18.376 45.8415 19.624C47.1215 20.936 48.5615 21.256 49.9375 21.576C51.0895 21.864 52.2735 22.12 53.4895 23.016C54.6415 23.848 55.3135 25.096 55.3775 26.536C55.4735 28.008 54.8975 29.448 53.8095 30.536C51.8895 32.232 48.7855 32.264 46.8015 30.632C45.9695 29.928 45.4255 29 45.2975 28.008L43.8575 28.232C44.0495 29.576 44.7535 30.824 45.8415 31.752C47.0575 32.744 48.5935 33.288 50.2575 33.288H50.4175C52.0495 33.256 53.5535 32.68 54.7055 31.688L54.8975 31.496C56.2415 30.152 56.9455 28.328 56.8495 26.44ZM73.3475 10.504H59.1075V11.944H65.5075V33H66.9475V11.944H73.3475V10.504Z" fill="#DBDBDB"/>
</svg>
