<?xml version="1.0" encoding="UTF-8"?> <svg xmlns="http://www.w3.org/2000/svg" width="28" height="28" viewBox="0 0 28 28" fill="none"> <path d="M20.2302 6.37016C19.9533 6.37016 19.6826 6.45227 19.4524 6.60611C19.2221 6.75994 19.0427 6.97859 18.9367 7.23441C18.8308 7.49022 18.803 7.77172 18.8571 8.04329C18.9111 8.31486 19.0444 8.56432 19.2402 8.76011C19.436 8.95591 19.6855 9.08924 19.957 9.14326C20.2286 9.19728 20.5101 9.16956 20.7659 9.06359C21.0217 8.95763 21.2404 8.77819 21.3942 8.54796C21.5481 8.31773 21.6302 8.04706 21.6302 7.77016C21.6302 7.39886 21.4827 7.04276 21.2201 6.78021C20.9576 6.51766 20.6015 6.37016 20.2302 6.37016V6.37016ZM25.5968 9.1935C25.5741 8.22551 25.3928 7.2678 25.0602 6.3585C24.7635 5.58048 24.3018 4.87599 23.7068 4.2935C23.1291 3.69549 22.423 3.2367 21.6418 2.95183C20.7349 2.60902 19.7762 2.42357 18.8068 2.4035C17.5702 2.3335 17.1735 2.3335 14.0002 2.3335C10.8268 2.3335 10.4302 2.3335 9.1935 2.4035C8.22417 2.42357 7.2654 2.60902 6.3585 2.95183C5.57879 3.23959 4.87325 3.69798 4.2935 4.2935C3.69549 4.8712 3.2367 5.57734 2.95183 6.3585C2.60902 7.2654 2.42357 8.22417 2.4035 9.1935C2.3335 10.4302 2.3335 10.8268 2.3335 14.0002C2.3335 17.1735 2.3335 17.5702 2.4035 18.8068C2.42357 19.7762 2.60902 20.7349 2.95183 21.6418C3.2367 22.423 3.69549 23.1291 4.2935 23.7068C4.87325 24.3023 5.57879 24.7607 6.3585 25.0485C7.2654 25.3913 8.22417 25.5768 9.1935 25.5968C10.4302 25.6668 10.8268 25.6668 14.0002 25.6668C17.1735 25.6668 17.5702 25.6668 18.8068 25.5968C19.7762 25.5768 20.7349 25.3913 21.6418 25.0485C22.423 24.7636 23.1291 24.3048 23.7068 23.7068C24.3044 23.1265 24.7666 22.4214 25.0602 21.6418C25.3928 20.7325 25.5741 19.7748 25.5968 18.8068C25.5968 17.5702 25.6668 17.1735 25.6668 14.0002C25.6668 10.8268 25.6668 10.4302 25.5968 9.1935V9.1935ZM23.4968 18.6668C23.4883 19.4074 23.3542 20.1411 23.1002 20.8368C22.9139 21.3446 22.6147 21.8033 22.2252 22.1785C21.8467 22.5641 21.3889 22.8627 20.8835 23.0535C20.1878 23.3075 19.4541 23.4417 18.7135 23.4502C17.5468 23.5085 17.1152 23.5202 14.0468 23.5202C10.9785 23.5202 10.5468 23.5202 9.38016 23.4502C8.6112 23.4646 7.84552 23.3462 7.11683 23.1002C6.63357 22.8996 6.19674 22.6017 5.8335 22.2252C5.44627 21.8504 5.15081 21.3912 4.97016 20.8835C4.68533 20.1778 4.52735 19.4274 4.5035 18.6668C4.5035 17.5002 4.4335 17.0685 4.4335 14.0002C4.4335 10.9318 4.4335 10.5002 4.5035 9.3335C4.50873 8.57639 4.64694 7.8261 4.91183 7.11683C5.11722 6.62439 5.43247 6.18543 5.8335 5.8335C6.18794 5.43236 6.626 5.11377 7.11683 4.90016C7.82797 4.64355 8.57749 4.50942 9.3335 4.5035C10.5002 4.5035 10.9318 4.4335 14.0002 4.4335C17.0685 4.4335 17.5002 4.4335 18.6668 4.5035C19.4074 4.51199 20.1411 4.64612 20.8368 4.90016C21.367 5.09692 21.8428 5.41682 22.2252 5.8335C22.6075 6.19187 22.9062 6.63002 23.1002 7.11683C23.3595 7.82725 23.4937 8.57724 23.4968 9.3335C23.5552 10.5002 23.5668 10.9318 23.5668 14.0002C23.5668 17.0685 23.5552 17.5002 23.4968 18.6668ZM14.0002 8.01516C12.8169 8.01747 11.661 8.37044 10.6783 9.02948C9.69557 9.68852 8.93027 10.6241 8.47907 11.7179C8.02787 12.8117 7.91101 14.0147 8.14326 15.1749C8.3755 16.3351 8.94644 17.4005 9.78392 18.2363C10.6214 19.0722 11.6878 19.641 12.8485 19.871C14.0092 20.101 15.2119 19.9818 16.3049 19.5285C17.3978 19.0751 18.3319 18.308 18.989 17.324C19.6461 16.3401 19.9968 15.1834 19.9968 14.0002C19.9984 13.2128 19.8442 12.4329 19.5433 11.7053C19.2423 10.9777 18.8005 10.3168 18.2432 9.76056C17.6859 9.20434 17.0241 8.76379 16.2959 8.46425C15.5677 8.16471 14.7875 8.01209 14.0002 8.01516V8.01516ZM14.0002 17.8852C13.2318 17.8852 12.4807 17.6573 11.8418 17.2304C11.2029 16.8035 10.7049 16.1968 10.4109 15.4869C10.1168 14.777 10.0399 13.9959 10.1898 13.2422C10.3397 12.4886 10.7097 11.7964 11.2531 11.2531C11.7964 10.7097 12.4886 10.3397 13.2422 10.1898C13.9959 10.0399 14.777 10.1168 15.4869 10.4109C16.1968 10.7049 16.8035 11.2029 17.2304 11.8418C17.6573 12.4807 17.8852 13.2318 17.8852 14.0002C17.8852 14.5103 17.7847 15.0155 17.5894 15.4869C17.3942 15.9582 17.108 16.3865 16.7473 16.7473C16.3865 17.108 15.9582 17.3942 15.4869 17.5894C15.0155 17.7847 14.5103 17.8852 14.0002 17.8852V17.8852Z" fill="url(#paint0_linear_250_52)"></path> <defs> <linearGradient id="paint0_linear_250_52" x1="14.0002" y1="2.3335" x2="14.0002" y2="25.6668" gradientUnits="userSpaceOnUse"> <stop stop-color="#EEA054"></stop> <stop offset="0.520833" stop-color="#D64763"></stop> <stop offset="1" stop-color="#B62A99"></stop> </linearGradient> </defs> </svg> 