<?xml version="1.0" encoding="UTF-8"?> <svg xmlns="http://www.w3.org/2000/svg" width="24" height="24" viewBox="0 0 24 24" fill="none"> <path d="M18.56 20.6664C18.6804 20.548 18.7748 20.4044 18.8368 20.2454L22 3.6389C22 2.53134 20.5398 3.20014 20.5398 3.20014L2.77708 10.4543C2.77708 10.4543 1.93595 10.7542 2.00391 11.3062C2.06855 11.8625 2.75472 12.1156 2.75472 12.1156L7.22232 13.6797L17.9501 6.58479C17.9501 6.58479 18.5683 6.192 18.5493 6.58479C18.5493 6.58479 18.6595 6.65464 18.3255 6.97667C17.9957 7.29953 9.89914 14.8774 9.89914 14.8774L9.88782 14.978L9.8701 14.9635L9.31652 20.0554C9.39435 20.0859 9.47841 20.0959 9.56095 20.0843C9.6435 20.0727 9.72188 20.0399 9.78889 19.989L12.6767 17.2503L17.1761 20.8443C17.3211 20.9287 17.4821 20.9801 17.6481 20.9953C17.8141 21.0104 17.9813 20.9889 18.1386 20.9322C18.2959 20.8755 18.4395 20.7849 18.56 20.6664Z" fill="white"></path> </svg> 