<?xml version="1.0" encoding="UTF-8"?> <svg xmlns="http://www.w3.org/2000/svg" width="30" height="30" viewBox="0 0 30 30" fill="none"> <path d="M3.09993 14.8923C3.09921 16.9882 3.64684 19.0344 4.68783 20.8378L3 27L9.30656 25.3464C11.0442 26.294 13.0004 26.7934 14.9914 26.7942H14.9965C21.5527 26.7942 26.8902 21.4585 26.8929 14.9016C26.894 11.7236 25.6575 8.73561 23.4116 6.48779C21.1654 4.23998 18.1787 3.00137 14.9965 3C8.43892 3 3.10247 8.33474 3.09973 14.892M6.85534 20.5271L6.61992 20.1532C5.62999 18.5793 5.10753 16.7604 5.10825 14.8929C5.11041 9.4429 9.54592 5.00866 15 5.00866C17.6412 5.00969 20.1235 6.03936 21.9907 7.90753C23.8576 9.77584 24.8849 12.2595 24.8842 14.9006C24.8818 20.3509 20.4462 24.7855 14.9962 24.7855H14.9924C13.2178 24.7845 11.4775 24.3081 9.95975 23.4075L9.59852 23.1934L5.85594 24.1746L6.85534 20.5271ZM14.9965 26.7942C14.9964 26.7942 14.9963 26.7942 14.9965 26.7942Z" fill="white"></path> <path fill-rule="evenodd" clip-rule="evenodd" d="M12.0233 9.92006C11.8006 9.42503 11.5662 9.41512 11.3544 9.40641C11.1811 9.39904 10.9828 9.39952 10.7848 9.39952C10.5865 9.39952 10.2645 9.47392 9.99215 9.77138C9.7196 10.0688 8.95168 10.7879 8.95168 12.2503C8.95168 13.7129 10.017 15.1261 10.1654 15.3246C10.3141 15.5228 12.2218 18.6199 15.2429 19.8113C17.754 20.8015 18.265 20.6046 18.8099 20.5549C19.3549 20.5055 20.5687 19.8361 20.8163 19.142C21.064 18.448 21.064 17.853 20.9897 17.7288C20.9155 17.6049 20.7172 17.5305 20.42 17.382C20.1226 17.2333 18.6613 16.5141 18.3888 16.4149C18.1163 16.3158 17.9181 16.2664 17.7198 16.564C17.5217 16.8612 16.9524 17.5305 16.7789 17.7288C16.6056 17.9274 16.4321 17.9522 16.1349 17.8036C15.8375 17.6544 14.8801 17.3408 13.7444 16.3283C12.8607 15.5404 12.2642 14.5674 12.0907 14.2698C11.9174 13.9726 12.0722 13.8116 12.2212 13.6634C12.3548 13.5302 12.5186 13.3163 12.6673 13.1428C12.8156 12.9692 12.8651 12.8454 12.9641 12.6471C13.0633 12.4487 13.0137 12.2751 12.9395 12.1264C12.8651 11.9777 12.2876 10.5079 12.0233 9.92006Z" fill="white"></path> </svg> 