<?xml version="1.0" encoding="UTF-8"?> <svg xmlns="http://www.w3.org/2000/svg" width="46" height="46" viewBox="0 0 46 46" fill="none"> <g id="icon/image/blur_on_24px"> <path id="icon/image/blur_on_24px_2" fill-rule="evenodd" clip-rule="evenodd" d="M27.7915 5.75008C27.7915 6.28675 27.3698 6.70841 26.8332 6.70841C26.2965 6.70841 25.8748 6.28675 25.8748 5.75008C25.8748 5.21341 26.2965 4.79175 26.8332 4.79175C27.3698 4.79175 27.7915 5.21341 27.7915 5.75008ZM11.4998 9.58342C10.4457 9.58342 9.58317 10.4459 9.58317 11.5001C9.58317 12.5542 10.4457 13.4167 11.4998 13.4167C12.554 13.4167 13.4165 12.5542 13.4165 11.5001C13.4165 10.4459 12.554 9.58342 11.4998 9.58342ZM11.4998 17.2501C10.4457 17.2501 9.58317 18.1126 9.58317 19.1667C9.58317 20.2209 10.4457 21.0834 11.4998 21.0834C12.554 21.0834 13.4165 20.2209 13.4165 19.1667C13.4165 18.1126 12.554 17.2501 11.4998 17.2501ZM9.58317 26.8334C9.58317 25.7792 10.4457 24.9167 11.4998 24.9167C12.554 24.9167 13.4165 25.7792 13.4165 26.8334C13.4165 27.8876 12.554 28.7501 11.4998 28.7501C10.4457 28.7501 9.58317 27.8876 9.58317 26.8334ZM9.58317 34.5001C9.58317 33.4459 10.4457 32.5834 11.4998 32.5834C12.554 32.5834 13.4165 33.4459 13.4165 34.5001C13.4165 35.5542 12.554 36.4167 11.4998 36.4167C10.4457 36.4167 9.58317 35.5542 9.58317 34.5001ZM4.7915 19.1667C4.7915 18.6301 5.21317 18.2084 5.74984 18.2084C6.2865 18.2084 6.70817 18.6301 6.70817 19.1667C6.70817 19.7034 6.2865 20.1251 5.74984 20.1251C5.21317 20.1251 4.7915 19.7034 4.7915 19.1667ZM41.2082 19.1667C41.2082 19.7034 40.7865 20.1251 40.2498 20.1251C39.7132 20.1251 39.2915 19.7034 39.2915 19.1667C39.2915 18.6301 39.7132 18.2084 40.2498 18.2084C40.7865 18.2084 41.2082 18.6301 41.2082 19.1667ZM26.8332 13.4167C27.8873 13.4167 28.7498 12.5542 28.7498 11.5001C28.7498 10.4459 27.8873 9.58342 26.8332 9.58342C25.779 9.58342 24.9165 10.4459 24.9165 11.5001C24.9165 12.5542 25.779 13.4167 26.8332 13.4167ZM5.74984 25.8751C5.21317 25.8751 4.7915 26.2967 4.7915 26.8334C4.7915 27.3701 5.21317 27.7917 5.74984 27.7917C6.2865 27.7917 6.70817 27.3701 6.70817 26.8334C6.70817 26.2967 6.2865 25.8751 5.74984 25.8751ZM18.2082 40.2501C18.2082 39.7134 18.6298 39.2917 19.1665 39.2917C19.7032 39.2917 20.1248 39.7134 20.1248 40.2501C20.1248 40.7867 19.7032 41.2084 19.1665 41.2084C18.6298 41.2084 18.2082 40.7867 18.2082 40.2501ZM19.1665 6.70841C19.7032 6.70841 20.1248 6.28675 20.1248 5.75008C20.1248 5.21341 19.7032 4.79175 19.1665 4.79175C18.6298 4.79175 18.2082 5.21341 18.2082 5.75008C18.2082 6.28675 18.6298 6.70841 19.1665 6.70841ZM21.0832 11.5001C21.0832 12.5542 20.2207 13.4167 19.1665 13.4167C18.1123 13.4167 17.2498 12.5542 17.2498 11.5001C17.2498 10.4459 18.1123 9.58342 19.1665 9.58342C20.2207 9.58342 21.0832 10.4459 21.0832 11.5001ZM19.1665 23.9584C17.5757 23.9584 16.2915 25.2426 16.2915 26.8334C16.2915 28.4242 17.5757 29.7084 19.1665 29.7084C20.7573 29.7084 22.0415 28.4242 22.0415 26.8334C22.0415 25.2426 20.7573 23.9584 19.1665 23.9584ZM32.5832 26.8334C32.5832 25.7792 33.4457 24.9167 34.4998 24.9167C35.554 24.9167 36.4165 25.7792 36.4165 26.8334C36.4165 27.8876 35.554 28.7501 34.4998 28.7501C33.4457 28.7501 32.5832 27.8876 32.5832 26.8334ZM34.4998 32.5834C33.4457 32.5834 32.5832 33.4459 32.5832 34.5001C32.5832 35.5542 33.4457 36.4167 34.4998 36.4167C35.554 36.4167 36.4165 35.5542 36.4165 34.5001C36.4165 33.4459 35.554 32.5834 34.4998 32.5834ZM32.5832 19.1667C32.5832 18.1126 33.4457 17.2501 34.4998 17.2501C35.554 17.2501 36.4165 18.1126 36.4165 19.1667C36.4165 20.2209 35.554 21.0834 34.4998 21.0834C33.4457 21.0834 32.5832 20.2209 32.5832 19.1667ZM34.4998 9.58342C33.4457 9.58342 32.5832 10.4459 32.5832 11.5001C32.5832 12.5542 33.4457 13.4167 34.4998 13.4167C35.554 13.4167 36.4165 12.5542 36.4165 11.5001C36.4165 10.4459 35.554 9.58342 34.4998 9.58342ZM39.2915 26.8334C39.2915 26.2967 39.7132 25.8751 40.2498 25.8751C40.7865 25.8751 41.2082 26.2967 41.2082 26.8334C41.2082 27.3701 40.7865 27.7917 40.2498 27.7917C39.7132 27.7917 39.2915 27.3701 39.2915 26.8334ZM26.8332 32.5834C25.779 32.5834 24.9165 33.4459 24.9165 34.5001C24.9165 35.5542 25.779 36.4167 26.8332 36.4167C27.8873 36.4167 28.7498 35.5542 28.7498 34.5001C28.7498 33.4459 27.8873 32.5834 26.8332 32.5834ZM25.8748 40.2501C25.8748 39.7134 26.2965 39.2917 26.8332 39.2917C27.3698 39.2917 27.7915 39.7134 27.7915 40.2501C27.7915 40.7867 27.3698 41.2084 26.8332 41.2084C26.2965 41.2084 25.8748 40.7867 25.8748 40.2501ZM19.1665 16.2917C17.5757 16.2917 16.2915 17.5759 16.2915 19.1667C16.2915 20.7576 17.5757 22.0417 19.1665 22.0417C20.7573 22.0417 22.0415 20.7576 22.0415 19.1667C22.0415 17.5759 20.7573 16.2917 19.1665 16.2917ZM17.2498 34.5001C17.2498 33.4459 18.1123 32.5834 19.1665 32.5834C20.2207 32.5834 21.0832 33.4459 21.0832 34.5001C21.0832 35.5542 20.2207 36.4167 19.1665 36.4167C18.1123 36.4167 17.2498 35.5542 17.2498 34.5001ZM26.8332 23.9584C25.2423 23.9584 23.9582 25.2426 23.9582 26.8334C23.9582 28.4242 25.2423 29.7084 26.8332 29.7084C28.424 29.7084 29.7082 28.4242 29.7082 26.8334C29.7082 25.2426 28.424 23.9584 26.8332 23.9584ZM23.9582 19.1667C23.9582 17.5759 25.2423 16.2917 26.8332 16.2917C28.424 16.2917 29.7082 17.5759 29.7082 19.1667C29.7082 20.7576 28.424 22.0417 26.8332 22.0417C25.2423 22.0417 23.9582 20.7576 23.9582 19.1667Z" fill="#FE6409"></path> </g> </svg> 