<svg width="38" height="38" viewBox="0 0 38 38" fill="none" xmlns="http://www.w3.org/2000/svg">
<rect width="38" height="38" rx="4" fill="#EFF5FB"/>
<path d="M29 8H9C8.44772 8 8 8.44772 8 9V29C8 29.5523 8.44772 30 9 30H29C29.5523 30 30 29.5523 30 29V9C30 8.44772 29.5523 8 29 8Z" stroke="#387FD8" stroke-width="1.5" stroke-linecap="round" stroke-linejoin="round"/>
<path d="M30 22.9999L24.7125 17.7124C24.6195 17.6179 24.5085 17.5429 24.3862 17.4917C24.2639 17.4404 24.1326 17.4141 24 17.4141C23.8674 17.4141 23.7361 17.4404 23.6138 17.4917C23.4915 17.5429 23.3805 17.6179 23.2875 17.7124L17.7125 23.2874C17.6195 23.3819 17.5085 23.4569 17.3862 23.5081C17.2639 23.5593 17.1326 23.5857 17 23.5857C16.8674 23.5857 16.7361 23.5593 16.6138 23.5081C16.4915 23.4569 16.3805 23.3819 16.2875 23.2874L13.7125 20.7124C13.6195 20.6179 13.5085 20.5429 13.3862 20.4917C13.2639 20.4404 13.1326 20.4141 13 20.4141C12.8674 20.4141 12.7361 20.4404 12.6138 20.4917C12.4915 20.5429 12.3805 20.6179 12.2875 20.7124L8 24.9999" stroke="#387FD8" stroke-width="1.5" stroke-linecap="round" stroke-linejoin="round"/>
<path d="M15.5 16C16.3284 16 17 15.3284 17 14.5C17 13.6716 16.3284 13 15.5 13C14.6716 13 14 13.6716 14 14.5C14 15.3284 14.6716 16 15.5 16Z" stroke="#387FD8" stroke-width="1.5" stroke-linecap="round" stroke-linejoin="round"/>
</svg>
