<svg width="62" height="62" viewBox="0 0 62 62" fill="none" xmlns="http://www.w3.org/2000/svg">
<path d="M36.4192 34.2288C36.0705 34.3503 35.8132 34.6485 35.744 35.0112C35.6749 35.3738 35.8044 35.7458 36.0839 35.9871C36.3634 36.2283 36.7504 36.302 37.099 36.1806C45.6805 33.2065 50.8601 24.4705 49.3521 15.5143C47.8441 6.55814 40.0894 0 31.0072 0C21.9249 0 14.1702 6.55814 12.6622 15.5143C11.1542 24.4705 16.3338 33.2065 24.9153 36.1806C25.4545 36.3681 26.0436 36.0829 26.2311 35.5436C26.4185 35.0044 26.1334 34.4153 25.5941 34.2278C23.8078 33.6044 22.142 32.6782 20.6698 31.4898V30.3646C20.6656 27.1415 22.6502 24.2499 25.6592 23.0948C28.8601 25.3626 33.1439 25.3626 36.3448 23.0948C39.3538 24.2499 41.3384 27.1415 41.3342 30.3646V31.4939C39.8646 32.6803 38.2021 33.6054 36.4192 34.2288ZM23.7694 15.4965C23.7694 11.5021 27.0076 8.26398 31.002 8.26398C34.9964 8.26398 38.2345 11.5021 38.2345 15.4965C38.2345 19.491 34.9964 22.7291 31.002 22.7291C27.0095 22.7245 23.774 19.4891 23.7694 15.4965ZM38.0279 21.5646C41.2764 17.8128 41.0062 12.1712 37.414 8.74697C33.8219 5.32273 28.1738 5.32273 24.5817 8.74697C20.9895 12.1712 20.7193 17.8128 23.9678 21.5646C20.9255 23.1202 18.9074 26.1421 18.6364 29.5483C12.7464 22.9103 13.1484 12.8059 19.5471 6.65673C25.9458 0.507537 36.0582 0.507537 42.4569 6.65673C48.8556 12.8059 49.2576 22.9103 43.3676 29.5483C43.0957 26.1401 41.074 23.1174 38.0279 21.5646Z" fill="#387FD8"/>
<path d="M22.1163 61.5896C22.7481 62.0558 23.5906 62.1204 24.2861 61.756L31.0093 58.2626L37.7314 61.757C38.4285 62.1194 39.2708 62.0551 39.9049 61.5912C40.539 61.1272 40.8551 60.3438 40.7205 59.5697L39.4434 52.2007L44.8472 46.9923C45.4149 46.445 45.6216 45.6223 45.3801 44.8717C45.1386 44.121 44.491 43.5733 43.7107 43.4597L36.2095 42.382L32.8618 35.6527C32.5143 34.948 31.795 34.5035 31.0093 34.5078C30.2259 34.505 29.509 34.9478 29.1608 35.6496L25.7946 42.382L18.3099 43.4586C17.5292 43.5719 16.881 44.1199 16.6395 44.8709C16.3979 45.622 16.6051 46.4451 17.1734 46.9923L22.5792 52.2007L21.3011 59.5697C21.1646 60.3434 21.481 61.1274 22.1163 61.5896ZM18.6034 45.5044L26.6232 44.3503C26.9583 44.3022 27.2486 44.093 27.4002 43.7903L31.0082 36.5743L34.6007 43.7882C34.752 44.092 35.0428 44.3021 35.3788 44.3503L43.4152 45.5044L37.6146 51.0931C37.3679 51.3311 37.2553 51.676 37.314 52.0137L38.6851 59.9251L31.4866 56.1838C31.188 56.0287 30.8326 56.0287 30.534 56.1838L23.3345 59.9251L24.7056 52.0158C24.7643 51.678 24.6516 51.3332 24.4049 51.0952L18.6034 45.5044Z" fill="#387FD8"/>
<path d="M4.86151 45.6894L3.85205 51.5261C3.75462 52.0702 3.90293 52.6296 4.25717 53.054C4.61141 53.4784 5.13527 53.7244 5.68808 53.7258C5.98992 53.7253 6.28721 53.6523 6.55496 53.513L11.8874 50.7377L17.2168 53.5192C17.5442 53.6897 17.9377 53.6726 18.2491 53.4743C18.5605 53.276 18.7425 52.9267 18.7265 52.5579C18.7105 52.189 18.4989 51.8568 18.1715 51.6862L12.3648 48.6589C12.0656 48.503 11.7092 48.503 11.4101 48.6589L5.95775 51.4992L6.99098 45.5065C7.04968 45.1688 6.93705 44.8239 6.69031 44.5859L2.30222 40.3497L8.37446 39.4777C8.70977 39.4293 9.00009 39.2197 9.15144 38.9166L11.8874 33.4468L14.6131 38.9156C14.7646 39.2196 15.0558 39.4298 15.3921 39.4777L21.8797 40.4076C22.4446 40.4883 22.968 40.0958 23.0488 39.5309C23.1295 38.966 22.737 38.4425 22.1721 38.3618L16.2207 37.5094L13.5581 32.1656C13.2427 31.5298 12.593 31.129 11.8833 31.1323H11.8771C11.1751 31.1309 10.5337 31.5295 10.2239 32.1594L7.54788 37.5094L1.61409 38.3608C0.903713 38.4555 0.310955 38.9499 0.0903578 39.6318C-0.13024 40.3137 0.0605777 41.0616 0.580869 41.5545L4.86151 45.6894Z" fill="#387FD8"/>
<path d="M61.9057 39.6283C61.69 38.95 61.1026 38.4567 60.3972 38.3616L54.4562 37.5092L51.7863 32.1602C51.4776 31.5286 50.8362 31.1277 50.1332 31.127H50.127C49.4169 31.1232 48.7667 31.5241 48.4511 32.1602L45.7895 37.503L39.8371 38.3554C39.4717 38.4076 39.1618 38.6509 39.0244 38.9935C38.8869 39.3361 38.9426 39.726 39.1706 40.0163C39.3985 40.3067 39.7641 40.4534 40.1295 40.4012L46.6181 39.4713C46.9544 39.4234 47.2457 39.2132 47.3972 38.9092L50.1166 33.4466L52.8474 38.9164C52.9988 39.2195 53.2891 39.4292 53.6244 39.4775L59.6936 40.3485L55.3055 44.5847C55.0587 44.8227 54.9461 45.1675 55.0048 45.5053L56.0432 51.498L50.5909 48.6546C50.2917 48.4987 49.9353 48.4987 49.6362 48.6546L43.8295 51.6819C43.5021 51.8524 43.2905 52.1847 43.2745 52.5535C43.2584 52.9223 43.4404 53.2717 43.7518 53.47C44.0632 53.6683 44.4568 53.6854 44.7842 53.5148L50.1166 50.7375L55.4481 53.519C56.0791 53.8468 56.8416 53.788 57.4148 53.3671C57.9881 52.9463 58.2726 52.2365 58.1489 51.5362L57.1425 45.6892L61.4263 41.5563C61.9447 41.06 62.1313 40.3097 61.9057 39.6283Z" fill="#387FD8"/>
<path d="M25.3193 48.7032C25.3691 48.7029 25.4188 48.6991 25.4681 48.6918L29.354 48.1328C29.6891 48.0847 29.9794 47.8755 30.131 47.5728L31.9288 43.9782C32.1856 43.4675 31.9798 42.8453 31.469 42.5886C30.9583 42.3318 30.3361 42.5376 30.0794 43.0483L28.5295 46.1594L25.1767 46.6419C24.6397 46.7184 24.2533 47.1972 24.2919 47.7383C24.3305 48.2794 24.781 48.6985 25.3234 48.698L25.3193 48.7032Z" fill="#387FD8"/>
</svg>
