<svg width="62" height="62" viewBox="0 0 62 62" fill="none" xmlns="http://www.w3.org/2000/svg">
<path d="M37 52C35.346 52 34 53.346 34 55C34 56.654 35.346 58 37 58C38.654 58 40 56.654 40 55C40 53.346 38.654 52 37 52ZM37 56C36.449 56 36 55.552 36 55C36 54.448 36.449 54 37 54C37.551 54 38 54.448 38 55C38 55.552 37.551 56 37 56Z" fill="#387FD8"/>
<path d="M13 52C11.346 52 10 53.346 10 55C10 56.654 11.346 58 13 58C14.654 58 16 56.654 16 55C16 53.346 14.654 52 13 52ZM13 56C12.449 56 12 55.552 12 55C12 54.448 12.449 54 13 54C13.551 54 14 54.448 14 55C14 55.552 13.551 56 13 56Z" fill="#387FD8"/>
<path d="M15 16C16.654 16 18 14.654 18 13C18 11.346 16.654 10 15 10C13.346 10 12 11.346 12 13C12 14.654 13.346 16 15 16ZM15 12C15.551 12 16 12.448 16 13C16 13.552 15.551 14 15 14C14.449 14 14 13.552 14 13C14 12.448 14.449 12 15 12Z" fill="#387FD8"/>
<path d="M55 36C53.346 36 52 37.346 52 39C52 40.654 53.346 42 55 42C56.654 42 58 40.654 58 39C58 37.346 56.654 36 55 36ZM55 40C54.449 40 54 39.552 54 39C54 38.448 54.449 38 55 38C55.551 38 56 38.448 56 39C56 39.552 55.551 40 55 40Z" fill="#387FD8"/>
<path d="M55.956 32.073C55.971 31.715 56 31.357 56 31C56 26.442 54.756 22.011 52.42 18.13C53.443 16.33 54 14.277 54 12.196V12C54 5.383 48.617 0 42 0C37.562 0 33.687 2.428 31.611 6.02C27.734 5.931 23.798 6.758 20.284 8.423C18.999 6.942 17.109 6 15 6C11.14 6 8 9.141 8 13C8 14.506 8.498 15.997 9.4 17.199L9.814 17.751C7.503 21.44 6.209 25.639 6.037 30H4C2.897 30 2 30.897 2 32V52C0.897 52 0 52.897 0 54V56C0 57.103 0.897 58 2 58H6.685C7.811 60.361 10.215 62 13 62C15.785 62 18.189 60.361 19.315 58H30.685C31.811 60.361 34.215 62 37 62C39.785 62 42.189 60.361 43.315 58H46C47.103 58 48 57.103 48 56V53.246C48 53.002 47.97 52.758 47.911 52.518L47.271 49.958C48.761 48.679 50.09 47.237 51.239 45.651L55 50.667L60.6 43.2C61.503 41.997 62 40.505 62 39C62 35.466 59.364 32.542 55.956 32.073ZM42 2C47.514 2 52 6.486 52 12V12.195C52 14.425 51.241 16.62 49.863 18.373L42 28.382L34.137 18.373C32.759 16.62 32 14.426 32 12.195V12C32 6.486 36.486 2 42 2ZM15 8C17.757 8 20 10.243 20 13C20 14.075 19.645 15.141 19 15.999L15 21.333L11 15.999C10.355 15.141 10 14.075 10 13C10 10.243 12.243 8 15 8ZM4 32H12V39.618L17 37.118L22 39.618V32H30V52H19.315C18.189 49.639 15.785 48 13 48C10.215 48 7.811 49.639 6.685 52H4V32ZM14 32H20V36.382L17 34.882L14 36.382V32ZM32 38H41.438C41.897 38 42.297 38.312 42.408 38.757L42.719 40H38C36.897 40 36 40.897 36 42V44C36 45.103 36.897 46 38 46H44.219L45.719 52H43.315C42.189 49.639 39.785 48 37 48C35.042 48 33.272 48.81 32 50.111V38ZM43.719 44H38V42H43.219L43.719 44ZM2 56V54H6.08C6.033 54.328 6 54.66 6 55C6 55.34 6.033 55.672 6.08 56H2ZM13 60C10.243 60 8 57.757 8 55C8 52.243 10.243 50 13 50C15.757 50 18 52.243 18 55C18 57.757 15.757 60 13 60ZM19.92 56C19.967 55.672 20 55.34 20 55C20 54.66 19.967 54.328 19.92 54H30.08C30.033 54.328 30 54.66 30 55C30 55.34 30.033 55.672 30.08 56H19.92ZM37 60C34.243 60 32 57.757 32 55C32 52.243 34.243 50 37 50C39.757 50 42 52.243 42 55C42 57.757 39.757 60 37 60ZM43.92 56C43.967 55.672 44 55.34 44 55C44 54.66 43.967 54.328 43.92 54H46V56H43.92ZM46.725 47.775L44.349 38.272C44.014 36.935 42.817 36 41.438 36H32V32C32 30.897 31.103 30 30 30H8.036C8.196 26.274 9.24 22.678 11.103 19.471L15 24.667L20.6 17.2C21.503 15.997 22 14.505 22 13C22 11.971 21.771 10.996 21.37 10.115C24.3 8.758 27.43 8.05 30.696 8.009C30.254 9.26 30 10.599 30 12V12.195C30 14.872 30.911 17.506 32.564 19.609L42 31.618L51.17 19.947C53.023 23.323 54 27.113 54 31C54 31.361 53.972 31.724 53.956 32.087C50.591 32.594 48 35.496 48 39C48 40.506 48.498 41.997 49.4 43.199L49.977 43.969C49.03 45.352 47.947 46.63 46.725 47.775ZM59 41.999L55 47.333L51 41.999C50.355 41.141 50 40.075 50 39C50 36.243 52.243 34 55 34C57.757 34 60 36.243 60 39C60 40.075 59.645 41.141 59 41.999Z" fill="#387FD8"/>
<path d="M42 20C46.411 20 50 16.411 50 12C50 7.589 46.411 4 42 4C37.589 4 34 7.589 34 12C34 16.411 37.589 20 42 20ZM42 6C45.309 6 48 8.691 48 12C48 15.309 45.309 18 42 18C38.691 18 36 15.309 36 12C36 8.691 38.691 6 42 6Z" fill="#387FD8"/>
<path d="M24 26H26V28H24V26Z" fill="#387FD8"/>
<path d="M28 26H30V28H28V26Z" fill="#387FD8"/>
<path d="M32 26H34V28H32V26Z" fill="#387FD8"/>
</svg>
