<svg width="62" height="62" viewBox="0 0 62 62" fill="none" xmlns="http://www.w3.org/2000/svg">
<path d="M48.9289 49.4694L48.9592 49.4297L48.9289 49.4694L50.1039 50.3676L50.1404 50.3955L50.1713 50.3614L53.3537 46.8474C53.7806 46.3761 54.5089 46.3401 54.9802 46.7669L54.9802 46.7669C55.4516 47.1938 55.4875 47.9219 55.0607 48.3934L51.1362 52.7265C50.91 52.9763 50.5973 53.105 50.2823 53.105C50.0376 53.105 49.7917 53.0274 49.5836 52.8684L47.5304 51.2992C47.0252 50.913 46.9286 50.1903 47.3147 49.6851C47.701 49.1799 48.4234 49.083 48.9289 49.4694Z" fill="#387FD8" stroke="white" stroke-width="0.1"/>
<mask id="path-2-inside-1_74_260" fill="white">
<path d="M61.7158 43.0162C61.7021 42.4036 61.2296 41.8997 60.6194 41.8464C57.7612 41.5966 54.2441 39.6766 51.6586 36.9555C51.4318 36.7168 51.1171 36.5817 50.7879 36.5816C50.7878 36.5816 50.7877 36.5816 50.7876 36.5816C50.4586 36.5816 50.144 36.7165 49.9171 36.9549C48.7566 38.1747 47.4096 39.2328 46.0195 40.0523C43.5803 37.3293 40.5781 35.3232 37.0593 34.0603C37.0287 34.0479 36.9977 34.0369 36.966 34.027C36.6919 33.9299 36.4146 33.8373 36.1343 33.7491C39.1101 30.7813 41.1117 26.8811 41.1117 23.3823V21.4947C42.5184 20.8822 43.5049 19.4782 43.5049 17.8474C43.5049 16.1535 42.4388 14.7047 40.9426 14.1346C40.325 8.13917 36.1011 3.09929 30.2988 1.4319C30.1274 0.615267 29.4018 0 28.5351 0H24.1814C23.3454 0 22.6427 0.572856 22.4399 1.34624C19.5858 2.10736 16.9789 3.73197 15.0243 5.99072C13.0405 8.28334 11.8068 11.1464 11.4935 14.1352C9.99658 14.7056 8.93005 16.1541 8.93005 17.8476C8.93005 19.4789 9.91801 20.8833 11.3266 21.4954V23.3824C11.3266 26.878 13.3286 30.7796 16.3042 33.7495C16.0321 33.835 15.7626 33.9245 15.4963 34.0185C15.4439 34.0334 15.3929 34.0518 15.3433 34.0735C11.4049 35.4942 8.1169 37.846 5.54193 41.0936C3.06548 44.2172 1.30498 48.0745 0.309455 52.5593C-0.0448555 54.162 -0.311339 56.1762 0.781508 57.5369C1.84901 58.8661 3.75909 59.0365 5.30404 59.0365H13.1634C13.827 59.0365 14.3649 58.4985 14.3649 57.835C14.3649 57.1716 13.827 56.6336 13.1634 56.6336H5.30404C3.86674 56.6336 2.97549 56.4312 2.65506 56.0322C2.31565 55.6096 2.31589 54.6156 2.65542 53.0789C3.9041 47.4546 6.95725 40.5721 14.3134 37.0971C14.0872 41.156 16.2865 43.8091 17.6844 45.4929C17.8983 45.7507 18.2102 45.9074 18.5448 45.9253C18.8792 45.9438 19.2063 45.8205 19.4464 45.587L26.2176 39.002L32.992 45.5872C33.2168 45.8056 33.5174 45.9271 33.8295 45.9271C33.851 45.9271 33.8725 45.9265 33.8942 45.9253C34.2288 45.9073 34.5408 45.7503 34.7547 45.4921C36.1507 43.8068 38.3467 41.1522 38.1225 37.1018C40.2567 38.1141 42.1422 39.4681 43.7637 41.1547C42.7955 41.5294 41.8434 41.7689 40.9557 41.8465C40.3458 41.8997 39.8735 42.4032 39.8592 43.0154C39.7587 47.311 40.4746 50.3885 42.4116 53.9906C42.4279 54.0211 43.0825 55.1945 44.1024 56.6338H24.0406C23.377 56.6338 22.8391 57.1718 22.8391 57.8353C22.8391 58.4987 23.377 59.0367 24.0406 59.0367H46.0106C47.4591 60.6375 49.1674 62 50.7875 62C54.696 62 59.1203 54.0707 59.1628 53.9914C61.0967 50.3887 61.8124 47.3117 61.7158 43.0162ZM38.4902 13.8752H31.8752C30.6254 10.6104 30.389 7.91834 30.3465 3.96638C34.6801 5.49908 37.8304 9.32285 38.4902 13.8752ZM24.7815 2.40292H27.9349C27.9424 7.05353 28.0603 10.2033 29.3193 13.8752H23.3995C24.6563 10.2032 24.7741 7.05305 24.7815 2.40292ZM22.371 3.87158C22.3314 7.87557 22.1016 10.5843 20.8442 13.8753H13.9476C14.6329 9.26373 17.948 5.33628 22.371 3.87158ZM12.9058 16.2781H20.9433C21.0141 16.3355 21.0826 16.3429 21.14 16.2781H39.5325C40.398 16.2781 41.102 16.982 41.102 17.8476C41.102 18.7149 40.3981 19.4205 39.5325 19.4205H12.9058C12.0386 19.4205 11.333 18.7149 11.333 17.8476C11.333 16.9821 12.0385 16.2781 12.9058 16.2781ZM13.7295 23.3824V21.8233H38.7087V23.3824C38.7087 27.9631 34.271 33.6284 29.2119 35.5064C26.9982 36.329 25.4266 36.3283 23.2077 35.5037C18.1586 33.618 13.7295 27.9538 13.7295 23.3824ZM18.7158 42.9456C17.4723 41.3222 16.2749 39.1908 16.8504 36.0969C17.3804 35.9258 17.928 35.7697 18.4958 35.6317C19.7074 36.5205 21.0141 37.2496 22.3687 37.7555C22.8047 37.9175 23.2243 38.0509 23.6347 38.162L18.7158 42.9456ZM33.7213 42.9449L28.7994 38.1605C29.2046 38.0506 29.6186 37.9188 30.0485 37.759C31.4098 37.2537 32.7229 36.5232 33.9401 35.6314C34.501 35.7679 35.0494 35.9226 35.5846 36.0958C36.1614 39.1854 34.9645 41.3189 33.7213 42.9449ZM57.0453 52.8556C55.6244 55.5073 52.297 59.5968 50.7875 59.5968C49.2779 59.5968 45.9505 55.5073 44.5288 52.8539C42.9411 49.9017 42.2895 47.4397 42.2542 44.0877C43.5504 43.841 44.8997 43.3573 46.2266 42.6819C46.2732 42.6615 46.3186 42.6376 46.3632 42.611C47.9126 41.8056 49.4279 40.7398 50.787 39.4731C53.3458 41.8604 56.4611 43.544 59.3197 44.0878C59.2819 47.4403 58.6305 49.9027 57.0453 52.8556Z"/>
</mask>
<path d="M61.7158 43.0162C61.7021 42.4036 61.2296 41.8997 60.6194 41.8464C57.7612 41.5966 54.2441 39.6766 51.6586 36.9555C51.4318 36.7168 51.1171 36.5817 50.7879 36.5816C50.7878 36.5816 50.7877 36.5816 50.7876 36.5816C50.4586 36.5816 50.144 36.7165 49.9171 36.9549C48.7566 38.1747 47.4096 39.2328 46.0195 40.0523C43.5803 37.3293 40.5781 35.3232 37.0593 34.0603C37.0287 34.0479 36.9977 34.0369 36.966 34.027C36.6919 33.9299 36.4146 33.8373 36.1343 33.7491C39.1101 30.7813 41.1117 26.8811 41.1117 23.3823V21.4947C42.5184 20.8822 43.5049 19.4782 43.5049 17.8474C43.5049 16.1535 42.4388 14.7047 40.9426 14.1346C40.325 8.13917 36.1011 3.09929 30.2988 1.4319C30.1274 0.615267 29.4018 0 28.5351 0H24.1814C23.3454 0 22.6427 0.572856 22.4399 1.34624C19.5858 2.10736 16.9789 3.73197 15.0243 5.99072C13.0405 8.28334 11.8068 11.1464 11.4935 14.1352C9.99658 14.7056 8.93005 16.1541 8.93005 17.8476C8.93005 19.4789 9.91801 20.8833 11.3266 21.4954V23.3824C11.3266 26.878 13.3286 30.7796 16.3042 33.7495C16.0321 33.835 15.7626 33.9245 15.4963 34.0185C15.4439 34.0334 15.3929 34.0518 15.3433 34.0735C11.4049 35.4942 8.1169 37.846 5.54193 41.0936C3.06548 44.2172 1.30498 48.0745 0.309455 52.5593C-0.0448555 54.162 -0.311339 56.1762 0.781508 57.5369C1.84901 58.8661 3.75909 59.0365 5.30404 59.0365H13.1634C13.827 59.0365 14.3649 58.4985 14.3649 57.835C14.3649 57.1716 13.827 56.6336 13.1634 56.6336H5.30404C3.86674 56.6336 2.97549 56.4312 2.65506 56.0322C2.31565 55.6096 2.31589 54.6156 2.65542 53.0789C3.9041 47.4546 6.95725 40.5721 14.3134 37.0971C14.0872 41.156 16.2865 43.8091 17.6844 45.4929C17.8983 45.7507 18.2102 45.9074 18.5448 45.9253C18.8792 45.9438 19.2063 45.8205 19.4464 45.587L26.2176 39.002L32.992 45.5872C33.2168 45.8056 33.5174 45.9271 33.8295 45.9271C33.851 45.9271 33.8725 45.9265 33.8942 45.9253C34.2288 45.9073 34.5408 45.7503 34.7547 45.4921C36.1507 43.8068 38.3467 41.1522 38.1225 37.1018C40.2567 38.1141 42.1422 39.4681 43.7637 41.1547C42.7955 41.5294 41.8434 41.7689 40.9557 41.8465C40.3458 41.8997 39.8735 42.4032 39.8592 43.0154C39.7587 47.311 40.4746 50.3885 42.4116 53.9906C42.4279 54.0211 43.0825 55.1945 44.1024 56.6338H24.0406C23.377 56.6338 22.8391 57.1718 22.8391 57.8353C22.8391 58.4987 23.377 59.0367 24.0406 59.0367H46.0106C47.4591 60.6375 49.1674 62 50.7875 62C54.696 62 59.1203 54.0707 59.1628 53.9914C61.0967 50.3887 61.8124 47.3117 61.7158 43.0162ZM38.4902 13.8752H31.8752C30.6254 10.6104 30.389 7.91834 30.3465 3.96638C34.6801 5.49908 37.8304 9.32285 38.4902 13.8752ZM24.7815 2.40292H27.9349C27.9424 7.05353 28.0603 10.2033 29.3193 13.8752H23.3995C24.6563 10.2032 24.7741 7.05305 24.7815 2.40292ZM22.371 3.87158C22.3314 7.87557 22.1016 10.5843 20.8442 13.8753H13.9476C14.6329 9.26373 17.948 5.33628 22.371 3.87158ZM12.9058 16.2781H20.9433C21.0141 16.3355 21.0826 16.3429 21.14 16.2781H39.5325C40.398 16.2781 41.102 16.982 41.102 17.8476C41.102 18.7149 40.3981 19.4205 39.5325 19.4205H12.9058C12.0386 19.4205 11.333 18.7149 11.333 17.8476C11.333 16.9821 12.0385 16.2781 12.9058 16.2781ZM13.7295 23.3824V21.8233H38.7087V23.3824C38.7087 27.9631 34.271 33.6284 29.2119 35.5064C26.9982 36.329 25.4266 36.3283 23.2077 35.5037C18.1586 33.618 13.7295 27.9538 13.7295 23.3824ZM18.7158 42.9456C17.4723 41.3222 16.2749 39.1908 16.8504 36.0969C17.3804 35.9258 17.928 35.7697 18.4958 35.6317C19.7074 36.5205 21.0141 37.2496 22.3687 37.7555C22.8047 37.9175 23.2243 38.0509 23.6347 38.162L18.7158 42.9456ZM33.7213 42.9449L28.7994 38.1605C29.2046 38.0506 29.6186 37.9188 30.0485 37.759C31.4098 37.2537 32.7229 36.5232 33.9401 35.6314C34.501 35.7679 35.0494 35.9226 35.5846 36.0958C36.1614 39.1854 34.9645 41.3189 33.7213 42.9449ZM57.0453 52.8556C55.6244 55.5073 52.297 59.5968 50.7875 59.5968C49.2779 59.5968 45.9505 55.5073 44.5288 52.8539C42.9411 49.9017 42.2895 47.4397 42.2542 44.0877C43.5504 43.841 44.8997 43.3573 46.2266 42.6819C46.2732 42.6615 46.3186 42.6376 46.3632 42.611C47.9126 41.8056 49.4279 40.7398 50.787 39.4731C53.3458 41.8604 56.4611 43.544 59.3197 44.0878C59.2819 47.4403 58.6305 49.9027 57.0453 52.8556Z" fill="#387FD8" stroke="white" stroke-width="0.2" mask="url(#path-2-inside-1_74_260)"/>
<path d="M17.4505 57.8352C17.4505 57.1994 17.966 56.6838 18.602 56.6838C19.2381 56.6838 19.7568 57.1996 19.7568 57.8352C19.7568 58.4713 19.2446 58.9867 18.6088 58.9867H18.602C17.966 58.9867 17.4505 58.4711 17.4505 57.8352Z" fill="#387FD8" stroke="white" stroke-width="0.1"/>
</svg>
