<svg width="62" height="62" viewBox="0 0 62 62" fill="none" xmlns="http://www.w3.org/2000/svg">
<path d="M58.565 6.29866C58.3484 5.92515 57.9493 5.69535 57.5177 5.69535H51.683L48.7578 0.60731C48.5418 0.231616 48.1415 0 47.7082 0H41.1666C40.734 0 40.3342 0.230768 40.1179 0.605494L37.4295 5.26287L35.316 4.1525C35.3404 3.98251 35.3538 3.80889 35.3538 3.63224C35.3538 1.62942 33.7243 0 31.7215 0C29.7187 0 28.0893 1.62942 28.0893 3.63224C28.0893 5.63505 29.7187 7.26448 31.7215 7.26448C32.6731 7.26448 33.5399 6.89617 34.1882 6.29527L37.0262 7.78631L40.1213 13.0816C40.3384 13.4531 40.7364 13.6814 41.1666 13.6814H46.9953L49.5572 18.2302L47.1205 21.8995C46.8416 21.8307 46.5504 21.7934 46.2505 21.7934C44.2477 21.7934 42.6182 23.4228 42.6182 25.4257C42.6182 27.4285 44.2477 29.0579 46.2505 29.0579C46.8016 29.0579 47.3339 28.9356 47.8168 28.7042L50.2364 31.1238C50.0051 31.6068 49.8827 32.139 49.8827 32.6901C49.8827 34.693 51.5121 36.3224 53.515 36.3224C55.5178 36.3224 57.1472 34.693 57.1472 32.6901C57.1472 30.6873 55.5178 29.0579 53.515 29.0579C52.9638 29.0579 52.4316 29.1802 51.9486 29.4116L49.5291 26.992C49.7603 26.509 49.8827 25.9768 49.8827 25.4257C49.8827 24.6019 49.6067 23.8416 49.1427 23.2316L51.6253 19.493H57.5177C57.9525 19.493 58.3539 19.2598 58.5695 18.8822L61.8409 13.1469C62.0546 12.7723 62.0529 12.3124 61.8365 11.9395L58.565 6.29866ZM31.7215 4.84298C31.0539 4.84298 30.5108 4.29984 30.5108 3.63224C30.5108 2.96463 31.0539 2.42149 31.7215 2.42149C32.3891 2.42149 32.9323 2.96463 32.9323 3.63224C32.9323 4.29984 32.3891 4.84298 31.7215 4.84298ZM39.2964 6.87207L41.8655 2.42149H47.0077L49.5789 6.89399L47.0152 11.2599H41.8613L39.2964 6.87207ZM45.0397 25.4257C45.0397 24.7581 45.5829 24.2149 46.2505 24.2149C46.9181 24.2149 47.4612 24.7581 47.4612 25.4257C47.4612 26.0941 46.9189 26.6364 46.2505 26.6364C45.5829 26.6364 45.0397 26.0933 45.0397 25.4257ZM54.7257 32.6901C54.7257 33.3577 54.1826 33.9009 53.515 33.9009C52.8474 33.9009 52.3042 33.3577 52.3042 32.6901C52.3042 32.0217 52.8465 31.4794 53.515 31.4794C54.1826 31.4794 54.7257 32.0225 54.7257 32.6901ZM56.8144 17.0715H51.6837L49.1023 12.4878L51.6691 8.112H56.8202L59.3924 12.5519L56.8144 17.0715Z" fill="#387FD8"/>
<path d="M23.3674 24.9414C22.9697 24.9414 22.5974 25.1367 22.3712 25.464C21.5787 26.6113 19.7352 29.447 19.7352 30.9951C19.7352 32.998 21.3646 34.6274 23.3674 34.6274C25.3702 34.6274 26.9996 32.998 26.9996 30.9951C26.9996 29.447 25.1562 26.6113 24.3636 25.464C24.1374 25.1367 23.7651 24.9414 23.3674 24.9414ZM23.3674 32.2059C22.6998 32.2059 22.1567 31.6627 22.1567 30.9966C22.1665 30.6263 22.6701 29.5712 23.3676 28.396C24.0646 29.5698 24.5679 30.6247 24.5782 30.9962C24.5777 31.6633 24.0348 32.2059 23.3674 32.2059Z" fill="#387FD8"/>
<path d="M23.3674 61.9901C24.0361 61.9901 24.5781 61.448 24.5781 60.7793C24.5781 60.1107 24.0361 59.5686 23.3674 59.5686C22.6987 59.5686 22.1566 60.1107 22.1566 60.7793C22.1566 61.448 22.6987 61.9901 23.3674 61.9901Z" fill="#387FD8"/>
<path d="M32.2058 28.2751V17.6768H33.4166C34.0853 17.6768 34.6273 17.1347 34.6273 16.4661V11.6231C34.6273 10.9545 34.0853 10.4124 33.4166 10.4124H13.3182C12.6495 10.4124 12.1075 10.9545 12.1075 11.6231V16.4661C12.1075 17.1347 12.6495 17.6768 13.3182 17.6768H14.529V28.2751L0.574983 54.8575C0.198804 55.5578 0 56.3494 0 57.1471C0 59.8176 2.17256 61.9901 4.84298 61.9901H17.919C18.5877 61.9901 19.1298 61.448 19.1298 60.7794C19.1298 60.1108 18.5877 59.5686 17.919 59.5686H4.84298C3.50777 59.5686 2.42149 58.4824 2.42149 57.1471C2.42149 56.7411 2.51847 56.3551 2.70989 56C2.71207 55.9961 10.1159 41.8917 10.1159 41.8917H36.6188C36.6188 41.8917 44.0226 55.9961 44.0248 56C44.2162 56.3551 44.3132 56.7409 44.3132 57.1471C44.3132 58.4824 43.2269 59.5686 41.8917 59.5686H28.8158C28.1471 59.5686 27.605 60.1108 27.605 60.7794C27.605 61.448 28.1471 61.9901 28.8158 61.9901H41.8918C44.5622 61.9901 46.7348 59.8176 46.7348 57.1471C46.7348 56.3494 46.536 55.5578 46.1598 54.8575L32.2058 28.2751ZM14.529 12.8338H32.2058V15.2553H14.529V12.8338ZM11.3871 39.4703L16.8117 29.1362C16.9027 28.9626 16.9504 28.7696 16.9504 28.5735V17.6768H29.7843V28.5735C29.7843 28.7696 29.8319 28.9627 29.9231 29.1362L35.3477 39.4703H11.3871Z" fill="#387FD8"/>
</svg>
