<svg width="62" height="61" viewBox="0 0 62 61" fill="none" xmlns="http://www.w3.org/2000/svg">
<path d="M19.0567 37.607L19.0907 37.5703L19.0567 37.607C19.6943 38.1978 20.3835 38.7477 21.1051 39.2413C24.0236 41.2376 27.4451 42.2929 30.9995 42.2929C35.4476 42.2929 39.6872 40.6291 42.9373 37.6081C43.4071 37.1714 44.142 37.1981 44.5787 37.668C45.0154 38.138 44.9886 38.8728 44.5188 39.3096C40.8375 42.7315 36.0364 44.6159 30.9995 44.6159C26.9748 44.6159 23.1 43.4205 19.7936 41.1587C18.978 40.6008 18.1988 39.979 17.4777 39.3108C17.0072 38.8747 16.9793 38.1398 17.4153 37.6693C17.8513 37.1988 18.5862 37.1709 19.0567 37.607Z" fill="#387FD8" stroke="white" stroke-width="0.1"/>
<path d="M42.9373 11.8727L42.9033 11.9093L42.9373 11.8727C39.6872 8.85163 35.4475 7.18788 30.9995 7.18788C26.5514 7.18788 22.3114 8.85175 19.0604 11.8728C18.5905 12.3093 17.8556 12.2824 17.419 11.8126C16.9823 11.3427 17.0093 10.6079 17.4792 10.1711C21.1613 6.74935 25.9628 4.86494 30.9995 4.86494C36.0364 4.86494 40.8375 6.74947 44.5189 10.1714C44.9887 10.6081 45.0155 11.343 44.5788 11.8129C44.35 12.059 44.0394 12.1835 43.7278 12.1835C43.4447 12.1835 43.161 12.0807 42.9373 11.8727Z" fill="#387FD8" stroke="white" stroke-width="0.1"/>
<path d="M52.398 37.0654L52.3788 37.0987L52.4059 37.1258L61.6231 46.3429C62.3014 47.0215 61.8559 48.232 60.91 48.3205L50.397 49.3056L50.3558 49.3094L50.3519 49.3507L49.367 59.8636C49.2774 60.8185 48.062 61.2493 47.3893 60.5766L35.8 48.9885L35.7812 48.9697L35.7551 48.9748C32.624 49.5825 29.3767 49.583 26.2458 48.9729L26.2197 48.9678L26.2009 48.9866L14.6097 60.5766L14.6451 60.612L14.6097 60.5766C13.929 61.2573 12.7209 60.81 12.6321 59.8636L11.6472 49.3507L11.6433 49.3094L11.6021 49.3056L1.08902 48.3205C0.133688 48.2311 -0.295689 47.0147 0.375993 46.343L9.59154 37.1264L9.61864 37.0993L9.59951 37.0661C9.18384 36.3444 8.80348 35.6 8.4606 34.8348L8.44736 34.8052H8.41497H7.62352C5.57116 34.8052 3.90148 33.1356 3.90148 31.0833V18.3972C3.90148 16.3449 5.57128 14.6751 7.62352 14.6751H8.41594H8.44834L8.46158 14.6456C9.69018 11.9013 11.395 9.42664 13.5401 7.28153C18.2048 2.61814 24.4051 0.05 30.9995 0.05C37.5943 0.05 43.7943 2.61814 48.4578 7.28153C50.6027 9.42652 52.3076 11.9012 53.5363 14.6456L53.5495 14.6751H53.5819H54.3751C56.4273 14.6751 58.097 16.3449 58.097 18.3972V19.5565C58.097 20.1979 57.577 20.718 56.9355 20.718C56.294 20.718 55.774 20.1979 55.774 19.5565V18.3972C55.774 17.6256 55.1465 16.9981 54.3751 16.9981H7.62352C6.85207 16.9981 6.22443 17.6256 6.22443 18.3972V31.0833C6.22443 31.8548 6.85207 32.4823 7.62352 32.4823H54.3751C55.1465 32.4823 55.774 31.8548 55.774 31.0833V30.214C55.774 29.5726 56.294 29.0525 56.9355 29.0525C57.577 29.0525 58.097 29.5726 58.097 30.214V31.0833C58.097 33.1356 56.4273 34.8052 54.3751 34.8052H53.5819H53.5495L53.5363 34.8348C53.1936 35.5999 52.8139 36.3438 52.398 37.0654ZM50.8996 14.6752H50.9811L50.9442 14.6026C49.8807 12.51 48.4968 10.6058 46.8152 8.9242C42.5906 4.69963 36.9738 2.37294 30.9996 2.37294C25.0258 2.37294 19.4084 4.69963 15.1826 8.92432L15.218 8.95968L15.1826 8.92432C13.5011 10.6058 12.1171 12.51 11.0538 14.6026L11.0169 14.6752H11.0984H50.8996ZM14.7045 57.0812L14.7144 57.1871L14.7896 57.1119L23.5415 48.3608L23.5997 48.3027L23.5213 48.2778C21.2458 47.5558 19.077 46.5019 17.0753 45.1328C14.6768 43.4921 12.6081 41.4667 10.9399 39.1453L10.9056 39.0975L10.864 39.1392L3.84084 46.1631L3.76563 46.2384L3.87153 46.2483L12.8182 47.0865C13.3741 47.1385 13.8143 47.5786 13.8664 48.1345L14.7045 57.0812ZM26.0815 46.5653L26.0924 46.5165L26.0815 46.5653C29.3011 47.2869 32.6832 47.2885 35.9029 46.5688C41.7615 45.2594 46.6859 41.6272 49.941 36.6441L49.9415 36.6434C50.3017 36.071 50.6366 35.4826 50.9439 34.8779L50.9808 34.8052H50.8993H11.0987H11.0172L11.0542 34.8779C11.3615 35.4826 11.6963 36.071 12.0556 36.6426L12.0565 36.644C12.0574 36.6453 12.0583 36.6466 12.0592 36.6478C12.0608 36.65 12.0622 36.6519 12.0631 36.6531L12.0659 36.6569C12.0659 36.6569 12.0659 36.6569 12.0659 36.657C15.2263 41.6654 20.3339 45.276 26.0815 46.5653ZM47.2095 57.1119L47.2847 57.1871L47.2946 57.0812L48.1327 48.1345C48.1847 47.5786 48.6249 47.1385 49.1808 47.0865L58.1274 46.2483L58.2333 46.2384L58.1581 46.1631L51.1322 39.1372L51.0906 39.0956L51.0562 39.1434C47.9716 43.4283 43.5184 46.6861 38.4808 48.2808L38.4024 48.3057L38.4606 48.3639L47.2095 57.1119Z" fill="#387FD8" stroke="white" stroke-width="0.1"/>
<path d="M19.2241 29.2356V20.2449C19.2241 19.6036 19.7441 19.0834 20.3855 19.0834C21.027 19.0834 21.547 19.6036 21.547 20.2449V29.2356C21.547 29.877 21.027 30.3971 20.3855 30.3971C19.7441 30.3971 19.2241 29.877 19.2241 29.2356Z" fill="#387FD8" stroke="white" stroke-width="0.1"/>
<path d="M24.5686 27.0423L24.5686 27.0423C24.0934 27.4729 24.0572 28.2075 24.488 28.6828C25.4748 29.7715 26.9302 30.397 28.4817 30.397C30.3988 30.397 32.0019 29.1712 32.3019 27.4912C32.415 26.8577 32.3289 26.1274 31.9292 25.4502C31.5297 24.7733 30.8148 24.1458 29.6642 23.7214L29.6642 23.7214C28.5736 23.3191 27.5574 22.8813 27.2297 22.7382L27.2231 22.7353L27.2176 22.7307C26.9966 22.545 27.0055 22.2912 27.0204 22.188C27.0204 22.188 27.0205 22.1879 27.0205 22.1879L27.0699 22.1951C27.0903 22.053 27.1948 21.7054 27.7235 21.5462L24.5686 27.0423ZM24.5686 27.0423C25.0438 26.6115 25.7784 26.6475 26.2092 27.1228C26.7502 27.7197 27.5999 28.0741 28.4817 28.0741C29.3206 28.0741 29.9263 27.581 30.0152 27.0831C30.0759 26.743 29.8463 26.4716 29.585 26.2787C29.3212 26.0838 29.0075 25.9553 28.8604 25.9009L28.8604 25.9009C27.4885 25.3949 26.2676 24.8531 26.1771 24.813L26.1736 24.8114C26.1736 24.8114 26.1736 24.8114 26.1736 24.8114C26.1178 24.7864 26.0638 24.757 26.0125 24.7236C25.052 24.0974 24.5572 22.9997 24.7211 21.8579C24.8954 20.6436 25.782 19.6528 27.0392 19.274C28.2755 18.9016 29.403 19.1344 30.2339 19.4706C31.065 19.807 31.5964 20.2458 31.6372 20.2802L31.6372 20.2802M24.5686 27.0423L31.6372 20.2802M31.6372 20.2802C32.1282 20.693 32.1917 21.4255 31.7789 21.9166L31.6372 20.2802Z" fill="#387FD8" stroke="white" stroke-width="0.1"/>
<path d="M39.5406 30.397C36.4215 30.397 33.8838 27.8594 33.8838 24.7402C33.8838 21.621 36.4215 19.0834 39.5406 19.0834C42.6596 19.0834 45.1973 21.6211 45.1973 24.7402C45.1973 27.8593 42.6596 30.397 39.5406 30.397ZM39.5407 28.074C41.379 28.074 42.8745 26.5785 42.8745 24.7402C42.8745 22.9018 41.379 21.4064 39.5407 21.4064C37.7024 21.4064 36.2069 22.9019 36.2069 24.7402C36.2069 26.5785 37.7024 28.074 39.5407 28.074Z" fill="#387FD8" stroke="white" stroke-width="0.1"/>
<path d="M58.0078 24.2958L58.0079 24.2961C58.2507 24.8792 57.9633 25.5718 57.3796 25.8129C56.7956 26.054 56.1051 25.7687 55.8627 25.1846C55.6205 24.6006 55.907 23.9094 56.491 23.6676L56.491 23.6676C57.0745 23.426 57.7679 23.7108 58.0078 24.2958ZM58.0541 24.2768C57.8036 23.666 57.0807 23.3693 56.4719 23.6214L58.0541 24.2768Z" fill="#387FD8" stroke="white" stroke-width="0.1"/>
</svg>
