<svg width="62" height="62" viewBox="0 0 62 62" fill="none" xmlns="http://www.w3.org/2000/svg">
<path d="M58.8878 50.2364C58.9882 50.8556 58.5676 51.439 57.9484 51.5394C57.3292 51.6397 56.7458 51.2191 56.6455 50.5999C56.5451 49.9807 56.9657 49.3974 57.5849 49.297C58.2041 49.1967 58.7874 49.6172 58.8878 50.2364Z" fill="#387FD8" stroke="white" stroke-width="0.15"/>
<path d="M31.6293 13.7975L31.6293 13.7975L42.5482 21.0631L42.5898 21.0007L42.5482 21.0631C42.9652 21.3405 43.1512 21.8581 43.0063 22.3375C42.8614 22.8168 42.4197 23.1447 41.919 23.1447H20.081C19.5802 23.1447 19.1386 22.8169 18.9936 22.3375C18.8488 21.8581 19.0349 21.3405 19.4518 21.0631L19.4102 21.0007L19.4518 21.0631L30.3708 13.7975L30.3708 13.7975C30.7519 13.5438 31.2482 13.5438 31.6293 13.7975ZM24.0452 20.7354L23.8386 20.8728H24.0867H37.9132H38.1613L37.9548 20.7354L31.0415 16.1353L31 16.1076L30.9584 16.1353L24.0452 20.7354Z" fill="#387FD8" stroke="white" stroke-width="0.15"/>
<mask id="path-3-inside-1_68_37" fill="white">
<path d="M61.4599 20.0238L31.6709 0.202711C31.2646 -0.0675703 30.7355 -0.0675703 30.3293 0.202711L0.540199 20.0238C0.202711 20.2483 0 20.6267 0 21.032V27.292C0 27.7383 0.245578 28.1486 0.639012 28.3593C1.03245 28.5703 1.51016 28.5474 1.88168 28.3001L3.00809 27.5506V60.7891C3.00809 61.4579 3.55023 62 4.21903 62H57.7808C58.4496 62 58.9918 61.4579 58.9918 60.7891V55.9453C58.9918 55.2765 58.4496 54.7344 57.7808 54.7344C57.112 54.7344 56.5699 55.2765 56.5699 55.9453V59.5781H52.9371V34.0092C53.6059 34.0092 54.148 33.467 54.148 32.7982V27.9545C54.148 27.2857 53.6059 26.7436 52.9371 26.7436H9.06278C8.39398 26.7436 7.85184 27.2857 7.85184 27.9545V32.7982C7.85184 33.467 8.39398 34.0092 9.06278 34.0092V59.5781H5.42997V25.9391L31 8.92534L56.57 25.9391V44.963C56.57 45.6318 57.1122 46.1739 57.781 46.1739C58.4498 46.1739 58.9919 45.6318 58.9919 44.963V27.5505L60.1183 28.3C60.3208 28.4347 60.5546 28.5028 60.7892 28.5028C60.9852 28.5028 61.1819 28.4552 61.361 28.3592C61.7544 28.1484 62 27.7382 62 27.2919V21.0319C62 20.6267 61.7973 20.2483 61.4599 20.0238ZM29.7891 41.2462H32.2109V43.6681H29.7891V41.2462ZM28.5781 46.09H33.4219C34.0907 46.09 34.6328 45.5478 34.6328 44.879V41.2462H37.0547V49.2012H31H24.9453V41.2462H27.3672V44.879C27.3672 45.5478 27.9093 46.09 28.5781 46.09ZM44.3203 59.5781H32.2109V51.6231H34.6328V55.2559C34.6328 55.9247 35.1749 56.4669 35.8438 56.4669H40.6875C41.3563 56.4669 41.8984 55.9247 41.8984 55.2559V51.6231H44.3203V59.5781ZM37.0547 51.6231H39.4766V54.045H37.0547V51.6231ZM22.5234 51.6231H24.9453V54.045H22.5234V51.6231ZM21.3125 56.4669H26.1562C26.8251 56.4669 27.3672 55.9247 27.3672 55.2559V51.6231H29.7891V59.5781H17.6797V51.6231H20.1016V55.2559C20.1016 55.9247 20.6437 56.4669 21.3125 56.4669ZM10.2737 29.1654H51.7262V31.5873H10.2737V29.1654ZM11.4847 34.0092H50.5152V59.5781H46.7422V50.4122C46.7422 49.7434 46.2001 49.2012 45.5312 49.2012H39.4766V40.0353C39.4766 39.3665 38.9344 38.8244 38.2656 38.8244H23.7344C23.0656 38.8244 22.5234 39.3665 22.5234 40.0353V49.2012H16.4688C15.7999 49.2012 15.2578 49.7434 15.2578 50.4122V59.5781H11.4847V34.0092ZM59.5781 25.0317L31.6709 6.46265C31.4677 6.32751 31.2338 6.25994 31 6.25994C30.7662 6.25994 30.5323 6.32751 30.3291 6.46265L2.42188 25.0317V21.6807L31 2.66539L59.5781 21.6807V25.0317Z"/>
</mask>
<path d="M61.4599 20.0238L31.6709 0.202711C31.2646 -0.0675703 30.7355 -0.0675703 30.3293 0.202711L0.540199 20.0238C0.202711 20.2483 0 20.6267 0 21.032V27.292C0 27.7383 0.245578 28.1486 0.639012 28.3593C1.03245 28.5703 1.51016 28.5474 1.88168 28.3001L3.00809 27.5506V60.7891C3.00809 61.4579 3.55023 62 4.21903 62H57.7808C58.4496 62 58.9918 61.4579 58.9918 60.7891V55.9453C58.9918 55.2765 58.4496 54.7344 57.7808 54.7344C57.112 54.7344 56.5699 55.2765 56.5699 55.9453V59.5781H52.9371V34.0092C53.6059 34.0092 54.148 33.467 54.148 32.7982V27.9545C54.148 27.2857 53.6059 26.7436 52.9371 26.7436H9.06278C8.39398 26.7436 7.85184 27.2857 7.85184 27.9545V32.7982C7.85184 33.467 8.39398 34.0092 9.06278 34.0092V59.5781H5.42997V25.9391L31 8.92534L56.57 25.9391V44.963C56.57 45.6318 57.1122 46.1739 57.781 46.1739C58.4498 46.1739 58.9919 45.6318 58.9919 44.963V27.5505L60.1183 28.3C60.3208 28.4347 60.5546 28.5028 60.7892 28.5028C60.9852 28.5028 61.1819 28.4552 61.361 28.3592C61.7544 28.1484 62 27.7382 62 27.2919V21.0319C62 20.6267 61.7973 20.2483 61.4599 20.0238ZM29.7891 41.2462H32.2109V43.6681H29.7891V41.2462ZM28.5781 46.09H33.4219C34.0907 46.09 34.6328 45.5478 34.6328 44.879V41.2462H37.0547V49.2012H31H24.9453V41.2462H27.3672V44.879C27.3672 45.5478 27.9093 46.09 28.5781 46.09ZM44.3203 59.5781H32.2109V51.6231H34.6328V55.2559C34.6328 55.9247 35.1749 56.4669 35.8438 56.4669H40.6875C41.3563 56.4669 41.8984 55.9247 41.8984 55.2559V51.6231H44.3203V59.5781ZM37.0547 51.6231H39.4766V54.045H37.0547V51.6231ZM22.5234 51.6231H24.9453V54.045H22.5234V51.6231ZM21.3125 56.4669H26.1562C26.8251 56.4669 27.3672 55.9247 27.3672 55.2559V51.6231H29.7891V59.5781H17.6797V51.6231H20.1016V55.2559C20.1016 55.9247 20.6437 56.4669 21.3125 56.4669ZM10.2737 29.1654H51.7262V31.5873H10.2737V29.1654ZM11.4847 34.0092H50.5152V59.5781H46.7422V50.4122C46.7422 49.7434 46.2001 49.2012 45.5312 49.2012H39.4766V40.0353C39.4766 39.3665 38.9344 38.8244 38.2656 38.8244H23.7344C23.0656 38.8244 22.5234 39.3665 22.5234 40.0353V49.2012H16.4688C15.7999 49.2012 15.2578 49.7434 15.2578 50.4122V59.5781H11.4847V34.0092ZM59.5781 25.0317L31.6709 6.46265C31.4677 6.32751 31.2338 6.25994 31 6.25994C30.7662 6.25994 30.5323 6.32751 30.3291 6.46265L2.42188 25.0317V21.6807L31 2.66539L59.5781 21.6807V25.0317Z" fill="#387FD8" stroke="white" stroke-width="0.3" mask="url(#path-3-inside-1_68_37)"/>
</svg>
