<svg width="58" height="62" viewBox="0 0 58 62" fill="none" xmlns="http://www.w3.org/2000/svg">
<path d="M48.3118 16.0805L48.2727 16.1197L48.3156 16.1546C56.1519 22.547 59.5541 32.8576 56.9764 42.6526C53.3677 56.3663 39.2421 64.7178 25.5291 61.1092C11.8319 57.5046 3.48389 43.5105 7.06039 29.7102L8.92777 30.2017C8.0073 34.2229 8.01116 38.3464 9.0424 42.2649L9.04249 42.2652C12.4591 54.8953 25.5025 62.4525 38.133 59.0363C50.763 55.6197 58.3202 42.5762 54.904 29.9458C51.4875 17.3158 38.4435 9.75857 25.8135 13.1747L25.7766 13.1847V13.223V24.7935C25.7766 26.5223 24.4557 27.8427 22.7274 27.8427H17.0455H17.0204L17.0054 27.8628L13.4298 32.6646L9.8542 27.8628L9.83921 27.8427H9.8141H3.09919C1.37039 27.8427 0.05 26.5223 0.05 24.7935V11.3637C0.05 9.6349 1.37039 8.31451 3.09919 8.31451H22.7274C24.3555 8.31451 25.6751 9.53536 25.7767 11.0573L25.7804 11.1124L25.8348 11.1033C26.1073 11.0578 26.3994 10.9925 26.7011 10.9251C26.7444 10.9154 26.788 10.9057 26.8317 10.896C27.1803 10.8184 27.5402 10.7413 27.8998 10.6898L27.9427 10.6837V10.6404V7.02463V6.98559L27.9048 6.97612L23.8105 5.95253V3.09919C23.8105 1.37039 25.1309 0.05 26.8596 0.05H37.1903C38.9186 0.05 40.2395 1.3704 40.2395 3.09919V5.95253L36.1451 6.97612L36.1072 6.98559V7.02463V10.6404V10.6829L36.1492 10.6897C39.9641 11.3085 43.5727 12.7519 46.6655 14.917L46.6998 14.941L46.7295 14.9114L49.2093 12.4321L49.2446 12.3968L49.2093 12.3614L47.9013 11.054L49.2768 9.678L53.3384 13.7395L51.9629 15.1155L50.6555 13.8076L50.6201 13.7722L50.5847 13.8076L48.3118 16.0805ZM25.7766 4.33907V4.37781L25.8141 4.38748L29.0167 5.21373L29.0163 5.21532H29.0292H35.0207V5.21695L35.0332 5.21373L38.2358 4.38748L38.2733 4.37781V4.33907V3.09919C38.2733 2.77786 38.1661 2.50624 37.9746 2.31483C37.7832 2.12341 37.5116 2.01613 37.1903 2.01613H26.8596C26.5383 2.01613 26.2667 2.12341 26.0753 2.31483C25.8839 2.50624 25.7766 2.77786 25.7766 3.09919V4.33907ZM13.39 29.2657L13.4298 29.3183L13.4697 29.2657L16.0373 25.8766H22.7274C23.0487 25.8766 23.3203 25.7693 23.5118 25.5779C23.7032 25.3865 23.8105 25.1148 23.8105 24.7935V11.3637C23.8105 11.0424 23.7032 10.7707 23.5118 10.5793C23.3203 10.3879 23.0487 10.2806 22.7274 10.2806H3.09919C2.77786 10.2806 2.50624 10.3879 2.31483 10.5793C2.12341 10.7707 2.01613 11.0424 2.01613 11.3637V24.7935C2.01613 25.1148 2.12341 25.3865 2.31483 25.5779C2.50624 25.7693 2.77786 25.8766 3.09919 25.8766H10.8223L13.39 29.2657ZM29.9088 10.434V10.4917L29.9659 10.4835C30.6848 10.3807 31.3013 10.3806 32.025 10.3806C32.7481 10.3806 33.3647 10.3807 34.084 10.4835L34.1411 10.4917V10.434V7.23144V7.18144H34.0911H29.9588H29.9088V7.23144V10.434Z" fill="#387FD8" stroke="white" stroke-width="0.1"/>
<path d="M17.9072 49.8292L19.8346 47.9013L21.2105 49.2773L19.2827 51.2047L19.2442 51.2432L19.2858 51.2783C22.6003 54.0744 26.6397 55.628 30.8861 55.8354L30.9385 55.8379V55.7854V52.7362H32.9047V55.5786V55.631L32.957 55.6285C37.4103 55.4217 41.7605 53.6609 45.0753 50.6572L45.1142 50.6219L45.0771 50.5847L42.6327 48.1409L44.0086 46.7654L46.4525 49.2093L46.4897 49.2464L46.525 49.2075C49.5287 45.8927 51.2895 41.543 51.4963 37.0892L51.4988 37.0369H51.4464H48.5006V35.0707H51.5498H51.6016L51.5998 35.019C51.3924 29.2178 48.4921 23.9362 43.9358 20.4149L43.901 20.388L43.8699 20.4191L42.0454 22.2436L40.6699 20.8681L42.1842 19.3538L42.2289 19.3091L42.175 19.2759C39.4812 17.6181 36.271 16.6864 33.0613 16.4791L33.0081 16.4757V16.529V19.5782H31.042V14.5129H32.025C36.1452 14.5129 40.1633 15.7485 43.6676 17.8088L43.7666 17.9072L43.7658 17.908L43.7746 17.9137C49.9587 21.9338 53.6693 28.8392 53.6693 36.1572C53.6693 48.1132 43.981 57.8015 32.025 57.8015C20.069 57.8015 10.3807 48.1132 10.3807 36.1572V35.1742H16.3757V37.1403H12.2934H12.24L12.2435 37.1935C12.554 41.9575 14.5221 46.4107 17.8359 49.8287L17.8713 49.8651L17.9072 49.8292Z" fill="#387FD8" stroke="white" stroke-width="0.1"/>
<path d="M27.2728 44.4717H27.3039L27.3177 44.4438L30.6237 37.7289L30.5497 37.6661L24.7645 41.7984L24.7435 41.8134V41.8391V44.4217V44.4717H24.7935H27.2728ZM28.4818 46.4379H22.7774V40.8317L31.09 34.8798L33.2035 36.9934L28.4818 46.4379Z" fill="#387FD8" stroke="white" stroke-width="0.1"/>
<path d="M5.21528 21.7443H7.18141V23.7105H5.21528V21.7443Z" fill="#387FD8" stroke="white" stroke-width="0.1"/>
<path d="M5.21528 12.4467H7.18141V19.5782H5.21528V12.4467Z" fill="#387FD8" stroke="white" stroke-width="0.1"/>
<path d="M10.3807 14.5129H20.6113V16.479H10.3807V14.5129Z" fill="#387FD8" stroke="white" stroke-width="0.1"/>
<path d="M10.3807 18.6452H20.6113V20.6113H10.3807V18.6452Z" fill="#387FD8" stroke="white" stroke-width="0.1"/>
</svg>
