<svg width="60" height="48" viewBox="0 0 60 48" fill="none" xmlns="http://www.w3.org/2000/svg">
<path d="M15.264 11.5177H9.37136L6.4599 13.7011V23.6636C6.4599 23.9136 6.33855 24.1349 6.15156 24.2724L3.97292 26.1109V30.6583C3.97292 31.0755 3.63438 31.4145 3.21719 31.4145H2.65156V35.1099H27.6183V31.4145H27.0527C26.6355 31.4145 26.2969 31.0755 26.2969 30.6583V26.1109L24.1183 24.2724C23.9312 24.1349 23.8099 23.9136 23.8099 23.6636V13.7011L20.8984 11.5177H15.264ZM9.12448 10.0057H21.1459C21.3391 10.0057 21.5156 10.0792 21.6495 10.1984L23.8421 11.8432V6.676C23.8421 6.2588 24.1812 5.92027 24.5984 5.92027C25.0156 5.92027 25.3541 6.2588 25.3541 6.676V13.3265C25.3541 13.4031 25.3427 13.4765 25.3219 13.5464V21.0885L27.5328 20.0979V1.63907H2.73751V20.0979L4.94792 21.0885V6.676C4.94792 6.2588 5.28697 5.92027 5.70417 5.92027C6.12136 5.92027 6.4599 6.2588 6.4599 6.676V11.8188L8.62031 10.1984C8.75417 10.0792 8.93074 10.0057 9.12448 10.0057ZM4.94792 23.3145V22.7401L1.67448 21.2724C1.39427 21.1473 1.22865 20.8724 1.22813 20.5844L1.22552 0.883335C1.22552 0.466137 1.56459 0.127602 1.98178 0.127602H28.2885C28.7057 0.127602 29.0443 0.466137 29.0443 0.883335V20.5844C29.0417 20.8724 28.876 21.1473 28.5959 21.2724L25.3219 22.7401V23.3145L27.5401 25.1864C27.7161 25.3355 27.8068 25.5484 27.8068 25.762L27.8088 29.9027H28.374C28.7917 29.9027 29.1303 30.2412 29.1303 30.6583V35.8661C29.1303 36.2833 28.7917 36.6219 28.374 36.6219H26.9557V38.9599C26.9557 39.3771 26.6172 39.7156 26.2 39.7156H20.2396C19.8224 39.7156 19.4839 39.3771 19.4839 38.9599V36.6219H10.7865V38.9599C10.7865 39.3771 10.4479 39.7156 10.0307 39.7156H4.07031C3.65364 39.7156 3.31459 39.3771 3.31459 38.9599V36.6219H1.89584C1.47864 36.6219 1.14011 36.2833 1.14011 35.8661V30.6583C1.14011 30.2412 1.47864 29.9027 1.89584 29.9027H2.46146V25.762C2.46303 25.5484 2.55364 25.3355 2.73022 25.1864L4.94792 23.3145ZM9.27448 36.6219H4.82656V38.2036H9.27448V36.6219ZM25.4437 36.6219H20.9959V38.2036H25.4437V36.6219ZM9.15052 15.7573H21.1197C21.5369 15.7573 21.8755 16.0959 21.8755 16.5131V22.2645C21.8755 22.6817 21.5369 23.0203 21.1197 23.0203H9.15052C8.73333 23.0203 8.39479 22.6817 8.39479 22.2645V16.5131C8.39479 16.0959 8.73333 15.7573 9.15052 15.7573ZM20.3636 17.2693H9.90625V21.5083H20.3636V17.2693ZM9.31197 29.7604C9.72917 29.7604 10.0677 30.0989 10.0677 30.5161C10.0677 30.9339 9.72917 31.2724 9.31197 31.2724H6.60782C6.19063 31.2724 5.85156 30.9339 5.85156 30.5161C5.85156 30.0989 6.19063 29.7604 6.60782 29.7604H9.31197ZM24.1292 29.7604C24.5469 29.7604 24.8855 30.0989 24.8855 30.5161C24.8855 30.9339 24.5469 31.2724 24.1292 31.2724H21.4255C21.0084 31.2724 20.6693 30.9339 20.6693 30.5161C20.6693 30.0989 21.0084 29.7604 21.4255 29.7604H24.1292ZM18.0047 26.4495C18.4219 26.4495 18.7604 26.788 18.7604 27.2057C18.7604 27.6229 18.4219 27.9615 18.0047 27.9615H12.2656C11.8479 27.9615 11.5094 27.6229 11.5094 27.2057C11.5094 26.788 11.8479 26.4495 12.2656 26.4495H18.0047ZM31.4104 36.5151C30.9932 36.5151 30.6547 36.176 30.6547 35.7589C30.6547 35.3417 30.9932 35.0031 31.4104 35.0031H59.1229C59.5401 35.0031 59.8787 35.3417 59.8787 35.7589C59.8787 36.176 59.5401 36.5151 59.1229 36.5151H31.4104ZM58.0651 46.1443C58.4823 46.1443 58.8208 46.4828 58.8208 46.9005C58.8208 47.3177 58.4823 47.6562 58.0651 47.6562H51.0839C50.6667 47.6562 50.3281 47.3177 50.3281 46.9005C50.3281 46.4828 50.6667 46.1443 51.0839 46.1443H58.0651ZM45.7683 46.1443C46.1855 46.1443 46.524 46.4828 46.524 46.9005C46.524 47.3177 46.1855 47.6562 45.7683 47.6562H38.7869C38.3697 47.6562 38.0312 47.3177 38.0312 46.9005C38.0312 46.4828 38.3697 46.1443 38.7869 46.1443H45.7683ZM33.4713 46.1443C33.8885 46.1443 34.2271 46.4828 34.2271 46.9005C34.2271 47.3177 33.8885 47.6562 33.4713 47.6562H26.4901C26.0729 47.6562 25.7344 47.3177 25.7344 46.9005C25.7344 46.4828 26.0729 46.1443 26.4901 46.1443H33.4713ZM21.174 46.1443C21.5912 46.1443 21.9297 46.4828 21.9297 46.9005C21.9297 47.3177 21.5912 47.6562 21.174 47.6562H14.1927C13.7755 47.6562 13.4369 47.3177 13.4369 46.9005C13.4369 46.4828 13.7755 46.1443 14.1927 46.1443H21.174ZM8.87656 46.1443C9.29375 46.1443 9.63282 46.4828 9.63282 46.9005C9.63282 47.3177 9.29375 47.6562 8.87656 47.6562H1.89584C1.47864 47.6562 1.14011 47.3177 1.14011 46.9005C1.14011 46.4828 1.47864 46.1443 1.89584 46.1443H8.87656ZM33.0307 0.0797348H57.3407C57.7579 0.0797348 58.0964 0.41827 58.0964 0.835468V26.7661C58.0964 27.1833 57.7579 27.5219 57.3407 27.5219H33.0307C32.6131 27.5219 32.2745 27.1833 32.2745 26.7661V0.835468C32.2745 0.41827 32.6131 0.0797348 33.0307 0.0797348ZM56.5849 1.5912H51.7683V5.5432C51.7683 5.9604 51.4297 6.29893 51.0125 6.29893H39.3588C38.9417 6.29893 38.6031 5.9604 38.6031 5.5432V1.5912H33.7864V26.0099H51.1823V20.5921C51.1823 20.1749 51.5208 19.8364 51.938 19.8364C52.3557 19.8364 52.6943 20.1749 52.6943 20.5921V26.0099H56.5849V1.5912ZM50.2563 1.5912H40.1145V4.78694H50.2563V1.5912Z" fill="#EF3221"/>
</svg>
