<svg width="162" height="57" viewBox="0 0 162 57" fill="none" xmlns="http://www.w3.org/2000/svg">
<path fill-rule="evenodd" clip-rule="evenodd" d="M0 0.31665C5.29218 0.31665 10.5849 0.31665 15.8775 0.31665C19.2926 0.250168 22.5975 1.80862 25.1305 5.00935C29.4242 10.5811 33.7176 16.1525 38.0113 21.7246C41.8081 26.439 42.0683 29.7554 41.9542 36.2775V57H24.8151C24.8151 49.0202 24.8151 41.0404 24.8151 33.0612L0 0.31665ZM37.9718 12.0515C41.7131 8.28495 45.4545 4.51904 49.1962 0.752819C51.6172 3.58291 54.0382 6.41299 56.4596 9.2434C58.7555 11.7532 58.192 15.7003 55.8264 17.8771C52.7987 21.015 49.7714 24.1521 46.7436 27.2898C46.7298 24.1382 45.7772 21.5922 43.8457 19.2074C41.8879 16.8218 39.9299 14.4367 37.9718 12.0515Z" fill="#FB9514"/>
<path d="M72.4487 30.0985H77.231V48.6894H72.4487V46.6075C71.2868 48.3425 69.4456 49.21 66.9247 49.21C64.8982 49.21 63.2234 48.5283 61.9014 47.1652C60.5789 45.8019 59.9177 43.9178 59.9177 41.5134V30.0985H64.7003V40.9186C64.7003 42.1578 65.0338 43.1062 65.7012 43.7629C66.3686 44.4199 67.2582 44.7482 68.3704 44.7482C69.6062 44.7482 70.5948 44.3643 71.3365 43.5957C72.0779 42.8274 72.4487 41.6745 72.4487 40.1376V30.0985Z" fill="white"/>
<path d="M91.9119 29.5782C93.9384 29.5782 95.613 30.2596 96.9348 31.623C98.2574 32.9864 98.9187 34.8702 98.9187 37.2745V48.6894H94.1365V37.8696C94.1365 36.6302 93.8027 35.682 93.1351 35.0251C92.4675 34.3684 91.5781 34.04 90.4662 34.04C89.2304 34.04 88.2416 34.424 87.5006 35.1923C86.7588 35.9609 86.3879 37.1134 86.3879 38.6503V48.6894H81.6057V30.0985H86.3879V32.1807C87.5495 30.4457 89.3906 29.5782 91.9119 29.5782Z" fill="white"/>
<path d="M123.498 29.5782C125.624 29.5782 127.323 30.272 128.596 31.6601C129.869 33.0483 130.505 34.9075 130.505 37.2377V48.6894H125.723V37.5722C125.723 36.4567 125.451 35.589 124.907 34.9694C124.363 34.3498 123.597 34.04 122.608 34.04C121.52 34.04 120.675 34.3993 120.069 35.1181C119.463 35.8369 119.16 36.8779 119.16 38.2412V48.6894H114.378V37.5722C114.378 36.4567 114.107 35.589 113.563 34.9694C113.019 34.3498 112.253 34.04 111.264 34.04C110.201 34.04 109.354 34.3993 108.725 35.1181C108.094 35.8369 107.779 36.8779 107.779 38.2412V48.6894H102.997V30.0985H107.779V32.0691C108.891 30.4083 110.609 29.5782 112.932 29.5782C115.206 29.5782 116.887 30.4705 117.974 32.255C119.21 30.4705 121.052 29.5782 123.498 29.5782Z" fill="white"/>
<path d="M138.624 41.3647C139.267 43.6949 141.009 44.8598 143.852 44.8598C145.68 44.8598 147.064 44.2399 148.003 43.0008L151.859 45.2318C150.03 47.884 147.336 49.21 143.777 49.21C140.712 49.21 138.253 48.2807 136.4 46.4214C134.546 44.5624 133.619 42.2199 133.619 39.3941C133.619 36.5931 134.533 34.2568 136.363 32.3854C138.191 30.5138 140.54 29.5782 143.407 29.5782C146.125 29.5782 148.368 30.5199 150.136 32.4036C151.902 34.2877 152.786 36.6179 152.786 39.3941C152.786 40.0137 152.724 40.6707 152.601 41.3647H138.624ZM138.55 37.6468H148.003C147.732 36.3823 147.169 35.4403 146.317 34.8207C145.464 34.2011 144.494 33.8913 143.407 33.8913C142.121 33.8913 141.059 34.2197 140.218 34.8767C139.378 35.5333 138.822 36.4567 138.55 37.6468Z" fill="white"/>
<path d="M156.123 48.6894V30.0985H160.905V48.6894H156.123Z" fill="white"/>
<path d="M158.495 27.8676C157.704 27.8676 157.018 27.5764 156.438 26.9939C155.857 26.4115 155.566 25.7236 155.566 24.9303C155.566 24.1373 155.857 23.4429 156.438 22.8481C157.018 22.2532 157.704 21.9558 158.495 21.9558C159.311 21.9558 160.009 22.2532 160.59 22.8481C161.171 23.4429 161.461 24.1373 161.461 24.9303C161.461 25.7236 161.171 26.4115 160.59 26.9939C160.009 27.5764 159.311 27.8676 158.495 27.8676Z" fill="#FB9514"/>
<path d="M108.392 10.0354C109.784 10.0354 110.955 10.5054 111.906 11.4452C112.857 12.3851 113.332 13.5392 113.332 14.9075C113.332 16.2756 112.857 17.4297 111.906 18.3692C110.955 19.3091 109.784 19.779 108.392 19.779H105.849V24.5472H102.997V10.0354H108.392ZM108.392 17.1051C108.998 17.1051 109.501 16.8939 109.9 16.4725C110.3 16.0508 110.5 15.5292 110.5 14.9075C110.5 14.2716 110.3 13.7463 109.9 13.3317C109.501 12.9172 108.998 12.71 108.392 12.71H105.849V17.1051H108.392ZM123.192 23.2515C122.13 24.3088 120.835 24.8375 119.305 24.8375C117.776 24.8375 116.484 24.3088 115.43 23.2515C114.376 22.1941 113.848 20.8988 113.848 19.3644C113.848 17.8304 114.376 16.5347 115.43 15.4776C116.484 14.42 117.776 13.8916 119.305 13.8916C120.835 13.8916 122.13 14.42 123.192 15.4776C124.253 16.5347 124.784 17.8304 124.784 19.3644C124.784 20.8988 124.253 22.1941 123.192 23.2515ZM117.311 21.4169C117.842 21.9558 118.507 22.2254 119.305 22.2254C120.105 22.2254 120.773 21.9558 121.311 21.4169C121.848 20.8778 122.117 20.1939 122.117 19.3644C122.117 18.5352 121.848 17.851 121.311 17.3122C120.773 16.773 120.105 16.5037 119.305 16.5037C118.507 16.5037 117.842 16.773 117.311 17.3122C116.78 17.851 116.515 18.5352 116.515 19.3644C116.515 20.1939 116.78 20.8778 117.311 21.4169ZM126.664 24.5472V9.4134H129.331V24.5472H126.664ZM134.023 20.4632C134.381 21.7623 135.353 22.4118 136.937 22.4118C137.957 22.4118 138.729 22.0665 139.252 21.3755L141.403 22.6192C140.383 24.098 138.881 24.8375 136.896 24.8375C135.188 24.8375 133.816 24.3194 132.783 23.2827C131.749 22.2461 131.232 20.9402 131.232 19.3644C131.232 17.8028 131.743 16.5 132.762 15.4566C133.782 14.4132 135.091 13.8916 136.689 13.8916C138.205 13.8916 139.456 14.4169 140.442 15.4671C141.427 16.5174 141.919 17.8164 141.919 19.3644C141.919 19.7101 141.885 20.0761 141.816 20.4632H134.023ZM133.982 18.3903H139.252C139.101 17.6854 138.788 17.1601 138.313 16.8148C137.837 16.4691 137.296 16.2963 136.689 16.2963C135.973 16.2963 135.38 16.4793 134.912 16.8456C134.443 17.212 134.133 17.7268 133.982 18.3903ZM145.826 17.1254C145.826 17.4019 146.008 17.6266 146.374 17.7994C146.739 17.972 147.183 18.1241 147.707 18.2555C148.231 18.3865 148.755 18.5526 149.278 18.7529C149.802 18.9532 150.246 19.2884 150.611 19.7583C150.976 20.2283 151.159 20.8156 151.159 21.5205C151.159 22.5847 150.763 23.4037 149.971 23.9771C149.177 24.5506 148.189 24.8375 147.004 24.8375C144.882 24.8375 143.435 24.0151 142.663 22.3704L144.978 21.0645C145.282 21.9626 145.957 22.4118 147.004 22.4118C147.955 22.4118 148.43 22.1147 148.43 21.5205C148.43 21.2441 148.248 21.0197 147.883 20.8469C147.517 20.674 147.073 20.5186 146.549 20.3803C146.026 20.2421 145.502 20.0696 144.978 19.8619C144.455 19.6547 144.01 19.3264 143.645 18.8772C143.28 18.4282 143.097 17.865 143.097 17.1876C143.097 16.1652 143.473 15.3598 144.224 14.7727C144.975 14.1853 145.909 13.8916 147.025 13.8916C147.865 13.8916 148.63 14.0814 149.32 14.4617C150.008 14.8417 150.553 15.3842 150.952 16.0892L148.679 17.3329C148.347 16.628 147.796 16.2756 147.025 16.2756C146.68 16.2756 146.394 16.3516 146.167 16.5037C145.94 16.6555 145.826 16.863 145.826 17.1254Z" fill="white"/>
</svg>
