<svg width="62" height="62" viewBox="0 0 62 62" fill="none" xmlns="http://www.w3.org/2000/svg">
<mask id="path-1-inside-1_64_97" fill="white">
<path d="M57.6756 17.6981H56.7551V15.3628C56.7551 13.1443 54.9491 11.3393 52.7292 11.3393C50.5093 11.3393 48.7033 13.1443 48.7033 15.3628V17.6981H46.7218V15.3628C46.7218 13.1443 44.9144 11.3393 42.6926 11.3393C40.4727 11.3393 38.6667 13.1443 38.6667 15.3628V17.6981H36.5036V7.55038H46.798C48.8812 7.55038 50.5765 5.85744 50.5765 3.77661C50.5765 1.69437 48.8817 0 46.798 0H35.7558C35.0864 0 34.5444 0.542084 34.5444 1.21141C34.5444 1.88026 35.0864 2.42235 35.7558 2.42235H46.798C47.5459 2.42235 48.1542 3.03018 48.1542 3.77661C48.1542 4.52162 47.5459 5.12756 46.798 5.12756H15.1987C14.4508 5.12756 13.8421 4.52162 13.8421 3.77661C13.8421 3.03018 14.4508 2.42235 15.1987 2.42235H25.3105C25.9793 2.42235 26.5219 1.88026 26.5219 1.21141C26.5219 0.542084 25.9793 0 25.3105 0H15.1987C13.115 0 11.4197 1.69437 11.4197 3.77661C11.4197 5.85744 13.115 7.55038 15.1987 7.55038H25.4931V17.6981H23.3333V15.3628C23.3333 13.1443 21.5254 11.3393 19.3036 11.3393C17.0837 11.3393 15.2777 13.1443 15.2777 15.3628V17.6981H13.2967V15.3628C13.2967 13.1443 11.4888 11.3393 9.26698 11.3393C7.04709 11.3393 5.24109 13.1443 5.24109 15.3628V17.6981H4.32106C1.93845 17.6981 0 19.6356 0 22.0168C0 24.3985 1.93845 26.3355 4.32106 26.3355H9.46991L25.4931 42.327V59.9414C25.4931 60.6103 26.0352 61.1523 26.704 61.1523H35.2922C35.9611 61.1523 36.5036 60.6103 36.5036 59.9414V42.327L52.5268 26.3355H57.6756C60.0601 26.3355 62 24.3985 62 22.0168C62 19.6356 60.0601 17.6981 57.6756 17.6981ZM51.1257 15.3628C51.1257 14.4802 51.8452 13.7616 52.7292 13.7616C53.6133 13.7616 54.3328 14.4802 54.3328 15.3628V17.6981H51.1257V15.3628ZM41.0896 15.3628C41.0896 14.4802 41.8086 13.7616 42.6926 13.7616C43.5791 13.7616 44.2995 14.4802 44.2995 15.3628V17.6981H41.0896V15.3628ZM17.7005 15.3628C17.7005 14.4802 18.4195 13.7616 19.3036 13.7616C20.19 13.7616 20.9104 14.4802 20.9104 15.3628V17.6981H17.7005V15.3628ZM7.66391 15.3628C7.66391 14.4802 8.3829 13.7616 9.26698 13.7616C10.1534 13.7616 10.8738 14.4802 10.8738 15.3628V17.6981H7.66391V15.3628ZM27.9154 7.55038H34.0813V17.6981H27.9154V7.55038ZM25.4931 31.4848L20.3362 26.3355H25.4931V31.4848ZM12.8993 26.3355H16.9077L25.4931 34.9076V38.9042L12.8993 26.3355ZM34.0813 58.73H27.9154V26.3355H34.0813V58.73ZM36.5036 38.9042V34.9081L45.0918 26.3355H49.0974L36.5036 38.9042ZM36.5036 31.4853V26.3355H41.6629L36.5036 31.4853ZM57.6756 23.9132H4.32106C3.27426 23.9132 2.42235 23.0627 2.42235 22.0168C2.42235 20.9715 3.27426 20.121 4.32106 20.121H57.6752C58.7238 20.121 59.5772 20.9715 59.5772 22.0168C59.5777 23.0627 58.7243 23.9132 57.6756 23.9132Z"/>
</mask>
<path d="M57.6756 17.6981H56.7551V15.3628C56.7551 13.1443 54.9491 11.3393 52.7292 11.3393C50.5093 11.3393 48.7033 13.1443 48.7033 15.3628V17.6981H46.7218V15.3628C46.7218 13.1443 44.9144 11.3393 42.6926 11.3393C40.4727 11.3393 38.6667 13.1443 38.6667 15.3628V17.6981H36.5036V7.55038H46.798C48.8812 7.55038 50.5765 5.85744 50.5765 3.77661C50.5765 1.69437 48.8817 0 46.798 0H35.7558C35.0864 0 34.5444 0.542084 34.5444 1.21141C34.5444 1.88026 35.0864 2.42235 35.7558 2.42235H46.798C47.5459 2.42235 48.1542 3.03018 48.1542 3.77661C48.1542 4.52162 47.5459 5.12756 46.798 5.12756H15.1987C14.4508 5.12756 13.8421 4.52162 13.8421 3.77661C13.8421 3.03018 14.4508 2.42235 15.1987 2.42235H25.3105C25.9793 2.42235 26.5219 1.88026 26.5219 1.21141C26.5219 0.542084 25.9793 0 25.3105 0H15.1987C13.115 0 11.4197 1.69437 11.4197 3.77661C11.4197 5.85744 13.115 7.55038 15.1987 7.55038H25.4931V17.6981H23.3333V15.3628C23.3333 13.1443 21.5254 11.3393 19.3036 11.3393C17.0837 11.3393 15.2777 13.1443 15.2777 15.3628V17.6981H13.2967V15.3628C13.2967 13.1443 11.4888 11.3393 9.26698 11.3393C7.04709 11.3393 5.24109 13.1443 5.24109 15.3628V17.6981H4.32106C1.93845 17.6981 0 19.6356 0 22.0168C0 24.3985 1.93845 26.3355 4.32106 26.3355H9.46991L25.4931 42.327V59.9414C25.4931 60.6103 26.0352 61.1523 26.704 61.1523H35.2922C35.9611 61.1523 36.5036 60.6103 36.5036 59.9414V42.327L52.5268 26.3355H57.6756C60.0601 26.3355 62 24.3985 62 22.0168C62 19.6356 60.0601 17.6981 57.6756 17.6981ZM51.1257 15.3628C51.1257 14.4802 51.8452 13.7616 52.7292 13.7616C53.6133 13.7616 54.3328 14.4802 54.3328 15.3628V17.6981H51.1257V15.3628ZM41.0896 15.3628C41.0896 14.4802 41.8086 13.7616 42.6926 13.7616C43.5791 13.7616 44.2995 14.4802 44.2995 15.3628V17.6981H41.0896V15.3628ZM17.7005 15.3628C17.7005 14.4802 18.4195 13.7616 19.3036 13.7616C20.19 13.7616 20.9104 14.4802 20.9104 15.3628V17.6981H17.7005V15.3628ZM7.66391 15.3628C7.66391 14.4802 8.3829 13.7616 9.26698 13.7616C10.1534 13.7616 10.8738 14.4802 10.8738 15.3628V17.6981H7.66391V15.3628ZM27.9154 7.55038H34.0813V17.6981H27.9154V7.55038ZM25.4931 31.4848L20.3362 26.3355H25.4931V31.4848ZM12.8993 26.3355H16.9077L25.4931 34.9076V38.9042L12.8993 26.3355ZM34.0813 58.73H27.9154V26.3355H34.0813V58.73ZM36.5036 38.9042V34.9081L45.0918 26.3355H49.0974L36.5036 38.9042ZM36.5036 31.4853V26.3355H41.6629L36.5036 31.4853ZM57.6756 23.9132H4.32106C3.27426 23.9132 2.42235 23.0627 2.42235 22.0168C2.42235 20.9715 3.27426 20.121 4.32106 20.121H57.6752C58.7238 20.121 59.5772 20.9715 59.5772 22.0168C59.5777 23.0627 58.7243 23.9132 57.6756 23.9132Z" fill="#387FD8" stroke="#EFF5FB" stroke-width="0.04" mask="url(#path-1-inside-1_64_97)"/>
<path d="M30.9981 2.41282H30.9778C30.3144 2.41282 29.7764 1.87474 29.7764 1.21141C29.7764 0.547609 30.3144 0.01 30.9778 0.01H30.9981C31.6619 0.01 32.1995 0.547607 32.1995 1.21141C32.1995 1.87474 31.6619 2.41282 30.9981 2.41282Z" fill="#387FD8" stroke="#EFF5FB" stroke-width="0.02"/>
</svg>
