<svg width="47" height="62" viewBox="0 0 47 62" fill="none" xmlns="http://www.w3.org/2000/svg">
<path d="M4.84375 23.0078C4.84375 33.0236 12.992 41.1718 23.0078 41.1718C33.0236 41.1718 41.1718 33.0236 41.1718 23.0078C41.1718 12.992 33.0236 4.84375 23.0078 4.84375C12.992 4.84375 4.84375 12.992 4.84375 23.0078ZM23.0078 7.26562C31.6882 7.26562 38.75 14.3274 38.75 23.0078C38.75 31.6882 31.6882 38.75 23.0078 38.75C14.3274 38.75 7.26562 31.6882 7.26562 23.0078C7.26562 14.3274 14.3274 7.26562 23.0078 7.26562Z" fill="#387FD8"/>
<path d="M11.7933 20.8486L16.4871 25.4734L15.4072 31.9732C15.332 32.4258 15.5188 32.8818 15.8902 33.1515C16.261 33.4211 16.7525 33.4575 17.1597 33.2465L23.0077 30.2097L28.8552 33.2465C29.2592 33.4561 29.7506 33.4234 30.1248 33.1515C30.4961 32.8818 30.683 32.4258 30.6078 31.9732L29.5279 25.4734L34.2217 20.8486C34.5485 20.527 34.6653 20.0483 34.5234 19.6117C34.3815 19.1755 34.0055 18.8572 33.5519 18.7886L27.0379 17.808L24.0905 11.9137C23.8856 11.5036 23.4661 11.2444 23.0077 11.2444C22.5489 11.2444 22.1298 11.5036 21.9245 11.9137L18.9771 17.808L12.4631 18.7886C12.0095 18.8567 11.6334 19.1755 11.4915 19.6117C11.3496 20.0483 11.4669 20.527 11.7933 20.8486ZM19.9596 20.1093C20.3493 20.0506 20.6861 19.8061 20.8626 19.4537L23.0077 15.1629L25.1529 19.4537C25.3293 19.8061 25.6661 20.0506 26.0559 20.1093L30.797 20.8231L27.3803 24.1886C27.0998 24.4653 26.9712 24.8613 27.0355 25.2501L27.8217 29.9808L23.5654 27.7708C23.3909 27.68 23.1993 27.6346 23.0077 27.6346C22.8161 27.6346 22.6246 27.68 22.4496 27.7708L18.1933 29.9808L18.9795 25.2501C19.0443 24.8613 18.9156 24.4653 18.6346 24.1886L15.2185 20.8231L19.9596 20.1093Z" fill="#387FD8"/>
<path d="M24.2187 1.21094C24.2187 1.87979 23.6767 2.42187 23.0078 2.42187C22.339 2.42187 21.7969 1.87979 21.7969 1.21094C21.7969 0.542083 22.339 0 23.0078 0C23.6767 0 24.2187 0.542083 24.2187 1.21094Z" fill="#387FD8"/>
<path d="M17.3008 0.713755C7.11425 3.31396 0 12.4816 0 23.0078C0 29.5454 2.74873 35.7056 7.57403 40.0682L0.27861 52.9254C0.043991 53.3393 0.0733184 53.8521 0.353347 54.2362C0.633376 54.6208 1.11207 54.8057 1.578 54.7087L9.86298 52.9884L12.7749 61.1939C12.9329 61.6404 13.3373 61.9531 13.8094 61.9952C14.2815 62.0373 14.7342 61.7993 14.9683 61.3873L23.0078 47.2534L31.0468 61.3873C31.2634 61.7681 31.6665 61.9994 32.0988 61.9994C32.1343 61.9994 32.1702 61.998 32.2057 61.9952C32.6778 61.9531 33.0822 61.6399 33.2407 61.1939L36.1521 52.9884L44.4371 54.7087C44.9026 54.8052 45.3817 54.6203 45.6618 54.2362C45.9423 53.8521 45.9711 53.3393 45.7365 52.9254L38.4411 40.0682C43.2664 35.7056 46.0151 29.5454 46.0151 23.0078C46.0151 12.4816 38.9009 3.31396 28.7148 0.713755C28.0663 0.548197 27.4074 0.939386 27.2418 1.58743C27.0763 2.23547 27.4674 2.89486 28.1155 3.06042C37.2287 5.38674 43.5937 13.5894 43.5937 23.0078C43.5937 34.4705 34.2842 43.5937 23.0078 43.5937C11.7234 43.5937 2.42187 34.4629 2.42187 23.0078C2.42187 13.5894 8.78638 5.38674 17.8996 3.06042C18.5477 2.89486 18.9389 2.23547 18.7738 1.58743C18.6082 0.939386 17.9493 0.548197 17.3008 0.713755ZM14.1722 57.8893L11.7924 51.1833C11.59 50.6128 10.9978 50.2794 10.4051 50.4023L3.70565 51.7935L9.47936 41.6179C12.8459 44.0653 16.832 45.5562 20.9771 45.9252L14.1722 57.8893ZM35.61 50.4023C35.0178 50.2794 34.4251 50.6128 34.2227 51.1833L31.8434 57.8893L25.038 45.9252C29.1836 45.5562 33.1692 44.0653 36.5362 41.6179L42.3099 51.7935L35.61 50.4023Z" fill="#387FD8"/>
</svg>
