<svg width="62" height="62" viewBox="0 0 62 62" fill="none" xmlns="http://www.w3.org/2000/svg">
<path d="M53.5878 9.62979H60.7891C61.4579 9.62979 62 9.08771 62 8.41885V1.21094C62 0.542084 61.4579 0 60.7891 0H53.5878C52.9189 0 52.3768 0.542084 52.3768 1.21094V3.60396H35.8116V1.21094C35.8116 0.542084 35.2695 0 34.6006 0H27.3994C26.7305 0 26.1884 0.542084 26.1884 1.21094V3.60396H9.62317V1.21094C9.62317 0.542084 9.08109 0 8.41223 0H1.21094C0.542084 0 0 0.542084 0 1.21094V8.41885C0 9.08771 0.542084 9.62979 1.21094 9.62979H8.41223C9.08109 9.62979 9.62317 9.08771 9.62317 8.41885V6.02583H19.6967C16.1495 7.63411 12.9514 9.99638 10.3455 12.9835C6.25951 17.6674 3.89723 23.5944 3.6243 29.7891H1.21094C0.542084 29.7891 0 30.3311 0 31V38.2079C0 38.8768 0.542084 39.4189 1.21094 39.4189H8.41223C9.08109 39.4189 9.62317 38.8768 9.62317 38.2079V31C9.62317 30.3311 9.08109 29.7891 8.41223 29.7891H6.04901C6.60718 18.3774 15.0019 8.6601 26.1884 6.47568V8.41933C26.1884 9.08818 26.7305 9.63026 27.3994 9.63026H34.6006C35.2695 9.63026 35.8116 9.08818 35.8116 8.41933V6.47568C46.9981 8.6601 55.3928 18.3774 55.951 29.7891H53.5878C52.9189 29.7891 52.3768 30.3311 52.3768 31V38.2079C52.3768 38.8768 52.9189 39.4189 53.5878 39.4189H60.7891C61.4579 39.4189 62 38.8768 62 38.2079V31C62 30.3311 61.4579 29.7891 60.7891 29.7891H58.3757C58.1028 23.5944 55.7405 17.6674 51.6545 12.9835C49.0486 9.99638 45.8505 7.63411 42.3033 6.02583H52.3768V8.41933C52.3768 9.08771 52.9189 9.62979 53.5878 9.62979ZM7.20129 7.20792H2.42188V2.42188H7.20129V7.20792ZM7.20129 36.997H2.42188V32.2109H7.20129V36.997ZM59.5781 36.997H54.7987V32.2109H59.5781V36.997ZM33.3897 7.20792H28.6103V2.42188H33.3897V7.20792ZM54.7987 2.42188H59.5781V7.20792H54.7987V2.42188Z" fill="#387FD8"/>
<path d="M32.0605 13.3416C31.8476 12.9551 31.4413 12.7148 31 12.7148C30.5587 12.7148 30.1523 12.9551 29.9395 13.3416L24.9098 22.4728C24.5872 23.0589 24.8005 23.7954 25.3866 24.1175C25.9718 24.4401 26.7087 24.2273 27.0313 23.6412L29.789 18.6342V27.5644C28.1079 28.0829 26.8828 29.6509 26.8828 31.5C26.8828 33.77 28.7299 35.6172 31 35.6172C33.27 35.6172 35.1172 33.77 35.1172 31.5C35.1172 29.6509 33.892 28.0829 32.2109 27.5644V18.6342L40.5186 33.718C37.7893 36.4785 35.9289 40.0196 35.2061 43.8359H26.7939C26.0706 40.0196 24.2102 36.4785 21.4813 33.718L22.8692 31.1982C23.1918 30.6126 22.9785 29.8761 22.3929 29.5535C21.8073 29.2309 21.0703 29.4438 20.7477 30.0298L18.9124 33.3627C18.6427 33.8519 18.743 34.4625 19.155 34.84C21.7628 37.2283 23.5735 40.3919 24.3228 43.8359H23.1951C21.1919 43.8359 19.5623 45.466 19.5623 47.4688C19.5623 48.8821 20.3735 50.1082 21.5547 50.7085V60.7891C21.5547 61.4579 22.0968 62 22.7656 62C23.4345 62 23.9765 61.4579 23.9765 60.7891V51.1016H38.0234V60.7891C38.0234 61.4579 38.5655 62 39.2344 62C39.9032 62 40.4453 61.4579 40.4453 60.7891V50.7085C41.6264 50.1082 42.4377 48.8817 42.4377 47.4688C42.4377 45.4655 40.8081 43.8359 38.8049 43.8359H37.6772C38.4264 40.3914 40.2372 37.2283 42.8449 34.8395C43.2569 34.4621 43.3572 33.8519 43.0876 33.3623L32.0605 13.3416ZM31 33.1953C30.0653 33.1953 29.3047 32.4347 29.3047 31.5C29.3047 30.5648 30.0653 29.8047 31 29.8047C31.9347 29.8047 32.6953 30.5648 32.6953 31.5C32.6953 32.4347 31.9347 33.1953 31 33.1953ZM40.0158 47.4688C40.0158 48.1367 39.4728 48.6797 38.8049 48.6797H23.1951C22.5272 48.6797 21.9842 48.1367 21.9842 47.4688C21.9842 46.8008 22.5272 46.2578 23.1951 46.2578H38.8049C39.4728 46.2578 40.0158 46.8008 40.0158 47.4688Z" fill="#387FD8"/>
<path d="M23.8105 28.1084C24.1294 28.1084 24.4416 27.9797 24.6667 27.7546C24.8919 27.528 25.0215 27.2172 25.0215 26.8975C25.0215 26.5786 24.8919 26.2679 24.6667 26.0413C24.4416 25.8161 24.1294 25.6865 23.8105 25.6865C23.4908 25.6865 23.1786 25.8161 22.9534 26.0413C22.7283 26.2679 22.5996 26.5786 22.5996 26.8975C22.5996 27.2172 22.7283 27.528 22.9534 27.7546C23.1786 27.9797 23.4908 28.1084 23.8105 28.1084Z" fill="#387FD8"/>
</svg>
