<svg width="64" height="64" viewBox="0 0 64 64" fill="none" xmlns="http://www.w3.org/2000/svg">
<path d="M51.425 54.5234C51.425 53.8274 50.8601 53.2625 50.1641 53.2625C49.4681 53.2625 48.9031 53.8274 48.9031 54.5234C48.9031 55.2194 49.4681 55.7844 50.1641 55.7844C50.8601 55.7844 51.425 55.2194 51.425 54.5234Z" fill="#387FD8" stroke="#387FD8" stroke-width="0.1"/>
<path d="M44.1594 54.5234C44.1594 53.8274 43.5944 53.2625 42.8984 53.2625C42.2024 53.2625 41.6375 53.8274 41.6375 54.5234C41.6375 55.2194 42.2024 55.7844 42.8984 55.7844C43.5944 55.7844 44.1594 55.2194 44.1594 54.5234Z" fill="#387FD8" stroke="#387FD8" stroke-width="0.1"/>
<path d="M36.8937 54.5234C36.8937 53.8274 36.3288 53.2625 35.6328 53.2625C34.9368 53.2625 34.3719 53.8274 34.3719 54.5234C34.3719 55.2194 34.9368 55.7844 35.6328 55.7844C36.3288 55.7844 36.8937 55.2194 36.8937 54.5234Z" fill="#387FD8" stroke="#387FD8" stroke-width="0.1"/>
<path d="M28.3672 53.2625C27.6712 53.2625 27.1062 53.8274 27.1062 54.5234C27.1062 55.2194 27.6712 55.7844 28.3672 55.7844C29.0632 55.7844 29.6281 55.2194 29.6281 54.5234C29.6281 53.8274 29.0632 53.2625 28.3672 53.2625Z" fill="#387FD8" stroke="#387FD8" stroke-width="0.1"/>
<path d="M19.8406 54.5234C19.8406 55.2194 20.4056 55.7844 21.1016 55.7844C21.7976 55.7844 22.3625 55.2194 22.3625 54.5234C22.3625 53.8274 21.7976 53.2625 21.1016 53.2625C20.4056 53.2625 19.8406 53.8274 19.8406 54.5234Z" fill="#387FD8" stroke="#387FD8" stroke-width="0.1"/>
<path d="M12.575 54.5234C12.575 55.2194 13.1399 55.7844 13.8359 55.7844C14.5319 55.7844 15.0969 55.2194 15.0969 54.5234C15.0969 53.8274 14.5319 53.2625 13.8359 53.2625C13.1399 53.2625 12.575 53.8274 12.575 54.5234Z" fill="#387FD8" stroke="#387FD8" stroke-width="0.1"/>
<path d="M34.2758 28.3929L34.2525 28.4372L34.2758 28.3929C33.7287 28.1056 33.3502 27.4685 33.2756 26.7219H35.6328C36.0643 26.7219 36.4657 26.5012 36.6972 26.1367L41.541 18.5078C41.803 18.0956 41.803 17.5685 41.541 17.1562L36.6972 9.52734C36.4657 9.16286 36.0643 8.94219 35.6328 8.94219H33.2609V2.21094C33.2609 1.51447 32.6965 0.95 32 0.95C31.3035 0.95 30.7391 1.51447 30.7391 2.21094V8.94219H28.3672C27.9357 8.94219 27.5343 9.16286 27.3028 9.52733L27.345 9.55414L27.3028 9.52734L22.459 17.1562C22.459 17.1562 22.459 17.1562 22.459 17.1562C22.197 17.5685 22.197 18.0955 22.459 18.5078C22.459 18.5078 22.459 18.5078 22.459 18.5078L27.3028 26.1367L27.345 26.1099L27.3028 26.1367C27.5343 26.5012 27.9357 26.7219 28.3672 26.7219H30.7484C30.8339 28.4162 31.7162 29.8972 33.1021 30.6252C33.8855 31.0371 34.3719 31.8426 34.3719 32.7266C34.3719 34.0343 33.3077 35.0984 32 35.0984C30.6923 35.0984 29.6281 34.0343 29.6281 32.7266C29.6281 32.0301 29.0637 31.4656 28.3672 31.4656C27.6707 31.4656 27.1063 32.0301 27.1063 32.7266C27.1063 34.3284 27.8805 35.7517 29.0732 36.6451L13.4867 45.9969H2.21094C1.51447 45.9969 0.95 46.5613 0.95 47.2578C0.95 47.9543 1.51447 48.5187 2.21094 48.5187H4.58281V60.5281H2.21094C1.51447 60.5281 0.95 61.0926 0.95 61.7891C0.95 62.4855 1.51447 63.05 2.21094 63.05H26.5508C27.2472 63.05 27.8117 62.4855 27.8117 61.7891C27.8117 61.0926 27.2472 60.5281 26.5508 60.5281H7.10469V48.5187H56.8953V60.5281H37.4492C36.7528 60.5281 36.1883 61.0926 36.1883 61.7891C36.1883 62.4855 36.7528 63.05 37.4492 63.05H61.7891C62.4855 63.05 63.05 62.4855 63.05 61.7891C63.05 61.0926 62.4855 60.5281 61.7891 60.5281H59.4172V48.5187H61.7891C62.4855 48.5187 63.05 47.9543 63.05 47.2578C63.05 46.5613 62.4855 45.9969 61.7891 45.9969H50.5133L34.9268 36.6451C36.1195 35.7517 36.8937 34.3284 36.8937 32.7266C36.8937 30.9034 35.8911 29.2426 34.2758 28.3929ZM34.9398 24.2H29.0602L25.0173 17.832L29.0602 11.4641H34.9398L38.9827 17.832L34.9398 24.2ZM32 37.8297L45.6119 45.9969H18.3881L32 37.8297Z" fill="#387FD8" stroke="#387FD8" stroke-width="0.1"/>
<path d="M32 63.05C32.6965 63.05 33.2609 62.4855 33.2609 61.7891C33.2609 61.0926 32.6965 60.5281 32 60.5281C31.3035 60.5281 30.7391 61.0926 30.7391 61.7891C30.7391 62.4855 31.3035 63.05 32 63.05Z" fill="#387FD8" stroke="#387FD8" stroke-width="0.1"/>
</svg>
