<svg width="62" height="58" viewBox="0 0 62 58" fill="none" xmlns="http://www.w3.org/2000/svg">
<path d="M58.8566 32.7698C58.7254 32.3329 58.3233 32.0332 57.8667 32.0332H56.3227C53.5058 28.0446 49.4083 25.1409 44.7113 23.8049C44.4 23.7176 44.066 23.7816 43.8087 23.9769C43.5514 24.1722 43.4 24.4769 43.4 24.7998V45.4665H1.03333C0.462679 45.4665 0 45.9292 0 46.4998V50.6332C0 51.2038 0.462679 51.6665 1.03333 51.6665H1.60802C1.23617 52.2922 1.03737 53.0056 1.03333 53.7332C1.02476 55.6258 2.30633 57.2802 4.1409 57.7449C5.97497 58.2096 7.89027 57.365 8.78333 55.6964C9.89639 57.6778 12.4045 58.3822 14.3859 57.2691C16.3673 56.1566 17.0717 53.6479 15.9586 51.6665H27.4414C27.0695 52.2922 26.8707 53.0056 26.8667 53.7332C26.8581 55.6258 28.1397 57.2802 29.9742 57.7449C31.8083 58.2096 33.7236 57.365 34.6167 55.6964C35.7297 57.6778 38.2379 58.3822 40.2193 57.2691C42.2007 56.1566 42.905 53.6479 41.792 51.6665H43.4V53.7332C43.4 54.3038 43.8627 54.7665 44.4333 54.7665H46.6468C47.1105 56.5895 48.7523 57.8655 50.6333 57.8655C52.5143 57.8655 54.1562 56.5895 54.6198 54.7665H60.9667C61.5373 54.7665 62 54.3038 62 53.7332V43.3998C62 43.2994 61.9854 43.1995 61.9566 43.1032L58.8566 32.7698ZM58.96 40.2998H53.7333V38.2332H58.3379L58.96 40.2998ZM53.7283 32.0332H45.4667V26.2156C48.6883 27.3852 51.5395 29.3933 53.7263 32.0332H53.7283ZM5.16667 55.7998C4.02536 55.7998 3.1 54.8745 3.1 53.7332C3.1 52.5919 4.02536 51.6665 5.16667 51.6665C6.30798 51.6665 7.23333 52.5919 7.23333 53.7332C7.23333 54.8745 6.30798 55.7998 5.16667 55.7998ZM8.72531 51.6665H8.84136C8.82067 51.7018 8.80301 51.7376 8.78333 51.7699C8.76366 51.7376 8.746 51.7018 8.72531 51.6665ZM14.4667 53.7332C14.4667 54.8745 13.5413 55.7998 12.4 55.7998C11.2587 55.7998 10.3333 54.8745 10.3333 53.7332C10.3333 52.5919 11.2587 51.6665 12.4 51.6665C13.5413 51.6665 14.4667 52.5919 14.4667 53.7332ZM31 55.7998C29.8587 55.7998 28.9333 54.8745 28.9333 53.7332C28.9333 52.5919 29.8587 51.6665 31 51.6665C32.1413 51.6665 33.0667 52.5919 33.0667 53.7332C33.0667 54.8745 32.1413 55.7998 31 55.7998ZM34.5586 51.6665H34.6747C34.654 51.7018 34.6363 51.7376 34.6167 51.7699C34.597 51.7376 34.5793 51.7018 34.5586 51.6665ZM40.3 53.7332C40.3 54.8745 39.3746 55.7998 38.2333 55.7998C37.092 55.7998 36.1667 54.8745 36.1667 53.7332C36.1667 52.5919 37.092 51.6665 38.2333 51.6665C39.3746 51.6665 40.3 52.5919 40.3 53.7332ZM2.06667 49.5998V47.5332H43.4V49.5998H2.06667ZM50.6333 55.7998C49.492 55.7998 48.5667 54.8745 48.5667 53.7332C48.5667 52.5919 49.492 51.6665 50.6333 51.6665C51.7746 51.6665 52.7 52.5919 52.7 53.7332C52.7 54.8745 51.7746 55.7998 50.6333 55.7998ZM50.6333 49.5998C48.7544 49.6069 47.1166 50.8804 46.6468 52.6998H45.4667V47.5332H54.3388L55.8 48.9944V52.6998H54.6198C54.1501 50.8804 52.5123 49.6069 50.6333 49.5998ZM59.9333 52.6998H57.8667V48.5665C57.8667 48.2925 57.7577 48.0297 57.5639 47.8359L55.4973 45.7692C55.3035 45.5755 55.0406 45.4665 54.7667 45.4665H45.4667V34.0998H57.0977L57.7178 36.1665H52.7C52.1293 36.1665 51.6667 36.6292 51.6667 37.1998V41.3332C51.6667 41.9038 52.1293 42.3665 52.7 42.3665H59.5776L59.9333 43.5507V52.6998Z" fill="#387FD8"/>
<path d="M47.5333 36.1665H49.6V38.2332H47.5333V36.1665Z" fill="#387FD8"/>
<path d="M47.5333 39.2666H49.6V41.3333H47.5333V39.2666Z" fill="#387FD8"/>
<path d="M40.3 17.5667H26.8667V15.5C26.8667 15.226 26.7577 14.9632 26.5639 14.7694L23.9392 12.1447C24.8888 10.7148 25.0649 8.90594 24.4085 7.31961C23.752 5.73328 22.3494 4.57734 20.6667 4.23677V0H18.6V4.23677C16.9178 4.57734 15.5151 5.73328 14.8587 7.31911C14.2023 8.90493 14.3779 10.7138 15.3274 12.1437L12.7027 14.7684C12.5085 14.9626 12.4 15.2255 12.4 15.5V17.5667H1.03333C0.462679 17.5667 0 18.0293 0 18.6V41.3333C0 41.904 0.462679 42.3667 1.03333 42.3667H40.3C40.8707 42.3667 41.3333 41.904 41.3333 41.3333V18.6C41.3333 18.0293 40.8707 17.5667 40.3 17.5667ZM34.7055 19.6333L20.6667 33.6721L6.62786 19.6333H24.8V22.3055L23.0361 24.0694L24.4973 25.5306L26.5639 23.4639C26.7577 23.2702 26.8667 23.0073 26.8667 22.7333V19.6333H34.7055ZM19.6333 6.2C21.3453 6.2 22.7333 7.58804 22.7333 9.3C22.7333 11.012 21.3453 12.4 19.6333 12.4C17.9214 12.4 16.5333 11.012 16.5333 9.3C16.5333 7.58804 17.9214 6.2 19.6333 6.2ZM14.4667 15.9279L16.7886 13.6059C18.5117 14.7538 20.755 14.7538 22.478 13.6059L24.8 15.9279V17.5667H14.4667V15.9279ZM39.2667 40.3H2.06667V19.6333H3.70547L13.4333 29.3612V37.2H15.5V31.4279L19.9361 35.8639C20.3397 36.2671 20.9936 36.2671 21.3973 35.8639L25.8333 31.4279V37.2H27.9V29.3612L37.6279 19.6333H39.2667V40.3Z" fill="#387FD8"/>
<path d="M5.16669 24.7998H7.23335V37.1998H5.16669V24.7998Z" fill="#387FD8"/>
<path d="M34.1 24.7998H36.1666V37.1998H34.1V24.7998Z" fill="#387FD8"/>
<path d="M18.6 8.2666H20.6666V10.3333H18.6V8.2666Z" fill="#387FD8"/>
</svg>
