<svg width="62" height="62" viewBox="0 0 62 62" fill="none" xmlns="http://www.w3.org/2000/svg">
<mask id="path-1-inside-1_73_245" fill="white">
<path d="M60.7891 59.5781H35.2506V38.68L46.4359 36.4429C47.0021 36.3297 47.4094 35.8327 47.4094 35.2555V31.6029H51.0621C51.7308 31.6029 52.273 31.0608 52.273 30.392V25.5285C52.273 24.8597 51.7308 24.3176 51.0621 24.3176H48.6253V21.8808C48.6253 21.212 48.0831 20.6699 47.4144 20.6699C46.7456 20.6699 46.2034 21.212 46.2034 21.8808V24.3176H43.7618V21.8808C43.7618 21.212 43.2196 20.6699 42.5509 20.6699C41.8822 20.6699 41.34 21.212 41.34 21.8808V24.3176H35.2506V19.2261L46.4359 16.989C47.0021 16.8757 47.4094 16.3788 47.4094 15.8015V12.1489H51.0621C51.7308 12.1489 52.273 11.6066 52.273 10.9379V6.07443C52.273 5.40562 51.7308 4.86349 51.0621 4.86349H48.6253V2.42684C48.6253 1.75816 48.0831 1.2159 47.4144 1.2159C46.7456 1.2159 46.2034 1.75816 46.2034 2.42684V4.86349H43.7618V2.42684C43.7618 1.75816 43.2196 1.2159 42.5509 1.2159C41.8822 1.2159 41.34 1.75816 41.34 2.42684V4.86349H35.2506V1.21094C35.2506 0.542137 34.7084 0 34.0397 0H27.9604C27.2917 0 26.7495 0.542137 26.7495 1.21094V4.86349H20.6602V2.42684C20.6602 1.75816 20.1179 1.2159 19.4492 1.2159C18.7804 1.2159 18.2383 1.75816 18.2383 2.42684V4.86349H15.7967V2.42684C15.7967 1.75816 15.2544 1.2159 14.5857 1.2159C13.9171 1.2159 13.3748 1.75816 13.3748 2.42684V4.86349H10.9379C10.2692 4.86349 9.72698 5.40562 9.72698 6.07443V10.9379C9.72698 11.6066 10.2692 12.1489 10.9379 12.1489H14.5906V15.8015C14.5906 16.3788 14.9979 16.8757 15.5641 16.989L26.7494 19.2261V24.3177H20.66V21.8809C20.66 21.2121 20.1178 20.67 19.4491 20.67C18.7803 20.67 18.2382 21.2121 18.2382 21.8809V24.3177H15.7966V21.8809C15.7966 21.2121 15.2543 20.67 14.5856 20.67C13.9169 20.67 13.3747 21.2121 13.3747 21.8809V24.3177H10.9379C10.2692 24.3177 9.72698 24.8598 9.72698 25.5286V30.3921C9.72698 31.0609 10.2692 31.603 10.9379 31.603H14.5906V35.2556C14.5906 35.8329 14.9979 36.3298 15.5641 36.443L26.7494 38.6801V59.5781H1.21094C0.542137 59.5781 0 60.1204 0 60.7891C0 61.4577 0.542137 62 1.21094 62H60.7891C61.4577 62 62 61.4577 62 60.7891C62 60.1204 61.4577 59.5781 60.7891 59.5781ZM35.2506 7.28536H49.8512V9.72698H35.2506V7.28536ZM35.2506 12.1489H44.9875V14.8088L35.2506 16.7561V12.1489ZM35.2506 26.7394H49.8512V29.1811H35.2506V26.7394ZM35.2506 31.6029H44.9875V34.2627L35.2506 36.2102V31.6029ZM26.7494 36.2102L17.0125 34.2627V31.6029H26.7494V36.2102ZM26.7494 29.1812H12.1489V26.7396H26.7494V29.1812ZM26.7494 16.7561L17.0125 14.8088V12.1489H26.7494V16.7561ZM26.7494 9.72698H12.1489V7.28536H26.7494V9.72698ZM32.8288 59.5781H29.1714C29.1714 58.7425 29.1714 4.25051 29.1714 2.42188H32.8288V59.5781Z"/>
</mask>
<path d="M60.7891 59.5781H35.2506V38.68L46.4359 36.4429C47.0021 36.3297 47.4094 35.8327 47.4094 35.2555V31.6029H51.0621C51.7308 31.6029 52.273 31.0608 52.273 30.392V25.5285C52.273 24.8597 51.7308 24.3176 51.0621 24.3176H48.6253V21.8808C48.6253 21.212 48.0831 20.6699 47.4144 20.6699C46.7456 20.6699 46.2034 21.212 46.2034 21.8808V24.3176H43.7618V21.8808C43.7618 21.212 43.2196 20.6699 42.5509 20.6699C41.8822 20.6699 41.34 21.212 41.34 21.8808V24.3176H35.2506V19.2261L46.4359 16.989C47.0021 16.8757 47.4094 16.3788 47.4094 15.8015V12.1489H51.0621C51.7308 12.1489 52.273 11.6066 52.273 10.9379V6.07443C52.273 5.40562 51.7308 4.86349 51.0621 4.86349H48.6253V2.42684C48.6253 1.75816 48.0831 1.2159 47.4144 1.2159C46.7456 1.2159 46.2034 1.75816 46.2034 2.42684V4.86349H43.7618V2.42684C43.7618 1.75816 43.2196 1.2159 42.5509 1.2159C41.8822 1.2159 41.34 1.75816 41.34 2.42684V4.86349H35.2506V1.21094C35.2506 0.542137 34.7084 0 34.0397 0H27.9604C27.2917 0 26.7495 0.542137 26.7495 1.21094V4.86349H20.6602V2.42684C20.6602 1.75816 20.1179 1.2159 19.4492 1.2159C18.7804 1.2159 18.2383 1.75816 18.2383 2.42684V4.86349H15.7967V2.42684C15.7967 1.75816 15.2544 1.2159 14.5857 1.2159C13.9171 1.2159 13.3748 1.75816 13.3748 2.42684V4.86349H10.9379C10.2692 4.86349 9.72698 5.40562 9.72698 6.07443V10.9379C9.72698 11.6066 10.2692 12.1489 10.9379 12.1489H14.5906V15.8015C14.5906 16.3788 14.9979 16.8757 15.5641 16.989L26.7494 19.2261V24.3177H20.66V21.8809C20.66 21.2121 20.1178 20.67 19.4491 20.67C18.7803 20.67 18.2382 21.2121 18.2382 21.8809V24.3177H15.7966V21.8809C15.7966 21.2121 15.2543 20.67 14.5856 20.67C13.9169 20.67 13.3747 21.2121 13.3747 21.8809V24.3177H10.9379C10.2692 24.3177 9.72698 24.8598 9.72698 25.5286V30.3921C9.72698 31.0609 10.2692 31.603 10.9379 31.603H14.5906V35.2556C14.5906 35.8329 14.9979 36.3298 15.5641 36.443L26.7494 38.6801V59.5781H1.21094C0.542137 59.5781 0 60.1204 0 60.7891C0 61.4577 0.542137 62 1.21094 62H60.7891C61.4577 62 62 61.4577 62 60.7891C62 60.1204 61.4577 59.5781 60.7891 59.5781ZM35.2506 7.28536H49.8512V9.72698H35.2506V7.28536ZM35.2506 12.1489H44.9875V14.8088L35.2506 16.7561V12.1489ZM35.2506 26.7394H49.8512V29.1811H35.2506V26.7394ZM35.2506 31.6029H44.9875V34.2627L35.2506 36.2102V31.6029ZM26.7494 36.2102L17.0125 34.2627V31.6029H26.7494V36.2102ZM26.7494 29.1812H12.1489V26.7396H26.7494V29.1812ZM26.7494 16.7561L17.0125 14.8088V12.1489H26.7494V16.7561ZM26.7494 9.72698H12.1489V7.28536H26.7494V9.72698ZM32.8288 59.5781H29.1714C29.1714 58.7425 29.1714 4.25051 29.1714 2.42188H32.8288V59.5781Z" fill="#387FD8" stroke="white" stroke-width="0.3" mask="url(#path-1-inside-1_73_245)"/>
</svg>
