<svg width="62" height="62" viewBox="0 0 62 62" fill="none" xmlns="http://www.w3.org/2000/svg">
<path d="M51.3648 23.0684C51.3648 23.6819 50.8675 24.1793 50.2539 24.1793C49.6404 24.1793 49.143 23.6819 49.143 23.0684C49.143 22.4548 49.6404 21.9574 50.2539 21.9574C50.8675 21.9574 51.3648 22.4548 51.3648 23.0684Z" fill="#387FD8" stroke="white" stroke-width="0.2"/>
<mask id="path-2-inside-1_71_155" fill="white">
<path d="M60.7891 21.8574H55.7031C55.0359 21.8574 54.4922 22.4011 54.4922 23.0684C54.4922 23.3323 54.5757 23.5842 54.7344 23.7949V37.8418H42.625V24.2793H44.8047C45.4719 24.2793 46.0156 23.7356 46.0156 23.0684C46.0156 22.4011 45.4719 21.8574 44.8047 21.8574H42.625V19.375H46.2578C46.9266 19.375 47.4688 18.8329 47.4688 18.1641V3.63281C47.4688 2.96401 46.9266 2.42188 46.2578 2.42188H42.625V1.21094C42.625 0.542137 42.0829 0 41.4141 0H34.0273C33.3585 0 32.8164 0.542137 32.8164 1.21094V3.14844H29.1836V1.21094C29.1836 0.542137 28.6415 0 27.9727 0H20.5859C19.9171 0 19.375 0.542137 19.375 1.21094V2.42188H15.7422C15.0734 2.42188 14.5312 2.96401 14.5312 3.63281V6.05469H10.8984C10.2296 6.05469 9.6875 6.59682 9.6875 7.26562V14.5312C9.6875 15.2001 10.2296 15.7422 10.8984 15.7422H14.5312V18.1641C14.5312 18.8329 15.0734 19.375 15.7422 19.375H19.375V21.8574H1.21094C0.542137 21.8574 0 22.3996 0 23.0684V39.0527C0 39.7215 0.542137 40.2637 1.21094 40.2637H19.375V42.625H15.7422C15.0734 42.625 14.5312 43.1671 14.5312 43.8359V46.2578H10.8984C10.2296 46.2578 9.6875 46.7999 9.6875 47.4688V54.7344C9.6875 55.4032 10.2296 55.9453 10.8984 55.9453H14.5312V58.3672C14.5312 59.036 15.0734 59.5781 15.7422 59.5781H19.375V60.7891C19.375 61.4579 19.9171 62 20.5859 62H27.9727C28.6415 62 29.1836 61.4579 29.1836 60.7891V58.8516H32.8164V60.7891C32.8164 61.4579 33.3585 62 34.0273 62H41.4141C42.0829 62 42.625 61.4579 42.625 60.7891V59.5781H46.2578C46.9266 59.5781 47.4688 59.036 47.4688 58.3672V43.8359C47.4688 43.1671 46.9266 42.625 46.2578 42.625H42.625V40.2637H60.7891C61.4579 40.2637 62 39.7215 62 39.0527V23.0684C62 22.3996 61.4579 21.8574 60.7891 21.8574ZM45.0469 52.3125H42.625V49.8906H45.0469V52.3125ZM45.0469 12.1094H42.625V9.6875H45.0469V12.1094ZM45.0469 16.9531H42.625V14.5312H45.0469V16.9531ZM45.0469 4.84375V7.26562H42.625V4.84375H45.0469ZM16.9531 49.8906H19.375V52.3125H16.9531V49.8906ZM16.9531 9.6875H19.375V12.1094H16.9531V9.6875ZM16.9531 4.84375H19.375V7.26562H16.9531V4.84375ZM12.1094 13.3203V8.47656H14.5312V13.3203H12.1094ZM16.9531 16.9531V14.5312H19.375V16.9531H16.9531ZM2.42188 24.2793H4.84375V37.8418H2.42188V24.2793ZM7.26562 37.8418V24.2793H19.375V37.8418H7.26562ZM16.9531 45.0469H19.375V47.4688H16.9531V45.0469ZM12.1094 53.5234V48.6797H14.5312V53.5234H12.1094ZM16.9531 57.1562V54.7344H19.375V57.1562H16.9531ZM26.7617 59.5781H21.7969V2.42188H26.7617V59.5781ZM29.1836 56.4297V5.57031H32.8164V56.4297H29.1836ZM40.2031 59.5781H35.2383V2.42188H40.2031V59.5781ZM45.0469 57.1562H42.625V54.7344H45.0469V57.1562ZM45.0469 45.0469V47.4688H42.625V45.0469H45.0469ZM59.5781 37.8418H57.1562V24.2793H59.5781V37.8418Z"/>
</mask>
<path d="M60.7891 21.8574H55.7031C55.0359 21.8574 54.4922 22.4011 54.4922 23.0684C54.4922 23.3323 54.5757 23.5842 54.7344 23.7949V37.8418H42.625V24.2793H44.8047C45.4719 24.2793 46.0156 23.7356 46.0156 23.0684C46.0156 22.4011 45.4719 21.8574 44.8047 21.8574H42.625V19.375H46.2578C46.9266 19.375 47.4688 18.8329 47.4688 18.1641V3.63281C47.4688 2.96401 46.9266 2.42188 46.2578 2.42188H42.625V1.21094C42.625 0.542137 42.0829 0 41.4141 0H34.0273C33.3585 0 32.8164 0.542137 32.8164 1.21094V3.14844H29.1836V1.21094C29.1836 0.542137 28.6415 0 27.9727 0H20.5859C19.9171 0 19.375 0.542137 19.375 1.21094V2.42188H15.7422C15.0734 2.42188 14.5312 2.96401 14.5312 3.63281V6.05469H10.8984C10.2296 6.05469 9.6875 6.59682 9.6875 7.26562V14.5312C9.6875 15.2001 10.2296 15.7422 10.8984 15.7422H14.5312V18.1641C14.5312 18.8329 15.0734 19.375 15.7422 19.375H19.375V21.8574H1.21094C0.542137 21.8574 0 22.3996 0 23.0684V39.0527C0 39.7215 0.542137 40.2637 1.21094 40.2637H19.375V42.625H15.7422C15.0734 42.625 14.5312 43.1671 14.5312 43.8359V46.2578H10.8984C10.2296 46.2578 9.6875 46.7999 9.6875 47.4688V54.7344C9.6875 55.4032 10.2296 55.9453 10.8984 55.9453H14.5312V58.3672C14.5312 59.036 15.0734 59.5781 15.7422 59.5781H19.375V60.7891C19.375 61.4579 19.9171 62 20.5859 62H27.9727C28.6415 62 29.1836 61.4579 29.1836 60.7891V58.8516H32.8164V60.7891C32.8164 61.4579 33.3585 62 34.0273 62H41.4141C42.0829 62 42.625 61.4579 42.625 60.7891V59.5781H46.2578C46.9266 59.5781 47.4688 59.036 47.4688 58.3672V43.8359C47.4688 43.1671 46.9266 42.625 46.2578 42.625H42.625V40.2637H60.7891C61.4579 40.2637 62 39.7215 62 39.0527V23.0684C62 22.3996 61.4579 21.8574 60.7891 21.8574ZM45.0469 52.3125H42.625V49.8906H45.0469V52.3125ZM45.0469 12.1094H42.625V9.6875H45.0469V12.1094ZM45.0469 16.9531H42.625V14.5312H45.0469V16.9531ZM45.0469 4.84375V7.26562H42.625V4.84375H45.0469ZM16.9531 49.8906H19.375V52.3125H16.9531V49.8906ZM16.9531 9.6875H19.375V12.1094H16.9531V9.6875ZM16.9531 4.84375H19.375V7.26562H16.9531V4.84375ZM12.1094 13.3203V8.47656H14.5312V13.3203H12.1094ZM16.9531 16.9531V14.5312H19.375V16.9531H16.9531ZM2.42188 24.2793H4.84375V37.8418H2.42188V24.2793ZM7.26562 37.8418V24.2793H19.375V37.8418H7.26562ZM16.9531 45.0469H19.375V47.4688H16.9531V45.0469ZM12.1094 53.5234V48.6797H14.5312V53.5234H12.1094ZM16.9531 57.1562V54.7344H19.375V57.1562H16.9531ZM26.7617 59.5781H21.7969V2.42188H26.7617V59.5781ZM29.1836 56.4297V5.57031H32.8164V56.4297H29.1836ZM40.2031 59.5781H35.2383V2.42188H40.2031V59.5781ZM45.0469 57.1562H42.625V54.7344H45.0469V57.1562ZM45.0469 45.0469V47.4688H42.625V45.0469H45.0469ZM59.5781 37.8418H57.1562V24.2793H59.5781V37.8418Z" fill="#387FD8" stroke="white" stroke-width="0.4" mask="url(#path-2-inside-1_71_155)"/>
</svg>
