<svg width="60" height="62" viewBox="0 0 60 62" fill="none" xmlns="http://www.w3.org/2000/svg">
<path d="M49.5329 6.0751L49.5358 6.14712H49.6079H56.7098C58.3733 6.14712 59.7267 7.49906 59.7267 9.16062V47.1208C59.7267 48.7824 58.3733 50.1343 56.7098 50.1343H41.0091H40.9341V50.2093V54.6834V54.7584H41.0091H46.8209C48.7967 54.7584 50.4041 56.366 50.4041 58.3418V60.7891C50.4041 61.4164 49.8956 61.925 49.2682 61.925H10.5333C9.90596 61.925 9.3974 61.4164 9.3974 60.7891V58.3418C9.3974 56.366 11.0049 54.7584 12.9806 54.7584H18.789H18.864V54.6834V50.2093V50.1343H18.789H3.0885C1.42685 50.1343 0.075 48.7825 0.075 47.1208V9.16062C0.075 7.49898 1.42697 6.14712 3.0885 6.14712H10.1939H10.266L10.2689 6.07509C10.4008 2.74436 13.1503 0.075 16.5127 0.075H43.2856C46.6498 0.075 49.4008 2.7444 49.5329 6.0751ZM48.0574 59.6531H48.1324V59.5781V58.3418C48.1324 57.6185 47.5441 57.0303 46.8209 57.0303H12.9806C12.2575 57.0303 11.6693 57.6186 11.6693 58.3418V59.5781V59.6531H11.7443H48.0574ZM38.5872 54.7584H38.6623V54.6834V50.2093V50.1343H38.5872H21.2109H21.1359V50.2093V54.6834V54.7584H21.2109H38.5872ZM2.42188 44.7453H2.34687V44.8203V47.1208C2.34687 47.5236 2.68573 47.8625 3.0885 47.8625H56.7098C57.114 47.8625 57.4548 47.524 57.4548 47.1208V44.8203V44.7453H57.3798H35.3361C34.7087 44.7453 34.2002 44.2368 34.2002 43.6094C34.2002 42.982 34.7087 42.4734 35.3361 42.4734H57.3798H57.4548V42.3984V9.16062C57.4548 8.7575 57.1141 8.419 56.7098 8.419H49.6143H49.5393V8.494V33.0989C49.5393 36.5473 46.7338 39.3528 43.2856 39.3528H16.5127C13.0664 39.3528 10.2625 36.5472 10.2625 33.0989V8.494V8.419H10.1875H3.0885C2.68573 8.419 2.34687 8.75786 2.34687 9.16062V42.3984V42.4734H2.42188H24.4622C25.0895 42.4734 25.5981 42.982 25.5981 43.6094C25.5981 44.2368 25.0895 44.7453 24.4622 44.7453H2.42188ZM16.5127 2.34687C14.319 2.34687 12.5344 4.13159 12.5344 6.32533V33.0989C12.5344 35.2945 14.3189 37.0809 16.5127 37.0809H43.2856C45.4813 37.0809 47.2674 35.2946 47.2674 33.0989V6.32533C47.2674 4.13153 45.4812 2.34687 43.2856 2.34687H16.5127Z" fill="#387FD8" stroke="white" stroke-width="0.15"/>
<path d="M29.3131 32.215L29.3131 32.215L19.6337 26.3866C19.2925 26.1811 19.0838 25.8118 19.0838 25.4135V14.0141C19.0838 13.6631 19.2546 13.3197 19.5347 13.1081C19.5664 13.0842 19.5994 13.0617 19.6338 13.0409C19.6338 13.0409 19.6338 13.0408 19.6339 13.0408L29.3131 7.21242L29.2744 7.14819L29.3131 7.21241C29.6735 6.99534 30.1245 6.99534 30.4851 7.21242L40.1644 13.0409C40.5005 13.2432 40.7143 13.6216 40.7143 14.0141V25.4135C40.7143 25.8118 40.5057 26.1811 40.1644 26.3866L30.4851 32.215L30.485 32.215C30.1299 32.429 29.6683 32.429 29.3131 32.215ZM21.4694 16.0932L21.3557 16.0247V16.1574V24.7292V24.7716L21.392 24.7934L28.6495 29.1634L28.7632 29.2319V29.0992V20.5301V20.4877L28.7269 20.4659L21.4694 16.0932ZM38.4063 24.7934L38.4426 24.7716V24.7292V16.1574V16.0247L38.3289 16.0932L31.0714 20.4659L31.0351 20.4877V20.5301V29.0992V29.2319L31.1488 29.1634L38.4063 24.7934ZM29.9378 9.53485L29.8991 9.51156L29.8605 9.53485L22.528 13.9502L22.4213 14.0144L22.528 14.0787L29.8604 18.4964L29.8991 18.5197L29.9378 18.4964L37.2703 14.0787L37.377 14.0144L37.2703 13.9502L29.9378 9.53485Z" fill="#387FD8" stroke="white" stroke-width="0.15"/>
<path d="M17.8643 7.60176H17.7893V7.67676V10.3859C17.7893 11.0132 17.2808 11.5218 16.6534 11.5218C16.026 11.5218 15.5175 11.0133 15.5175 10.3857V6.46582C15.5175 5.83844 16.026 5.32988 16.6534 5.32988H20.5732C21.2006 5.32988 21.7092 5.83844 21.7092 6.46582C21.7092 7.0932 21.2006 7.60176 20.5732 7.60176H17.8643Z" fill="#387FD8" stroke="white" stroke-width="0.15"/>
<path d="M42.0089 7.67676V7.60176H41.9339H39.225C38.5977 7.60176 38.0891 7.0932 38.0891 6.46582C38.0891 5.83844 38.5977 5.32988 39.225 5.32988H43.1448C43.7722 5.32988 44.2808 5.83844 44.2808 6.46582V10.3857C44.2808 11.0131 43.7722 11.5217 43.1448 11.5217C42.5175 11.5217 42.0089 11.0131 42.0089 10.3857V7.67676Z" fill="#387FD8" stroke="white" stroke-width="0.15"/>
<path d="M41.9339 31.8221H42.0089V31.7471V29.0381C42.0089 28.4107 42.5175 27.9021 43.1448 27.9021C43.7722 27.9021 44.2808 28.4107 44.2808 29.0381V32.958C44.2808 33.5854 43.7722 34.0939 43.1448 34.0939H39.225C38.5977 34.0939 38.0891 33.5854 38.0891 32.958C38.0891 32.3306 38.5977 31.8221 39.225 31.8221H41.9339Z" fill="#387FD8" stroke="white" stroke-width="0.15"/>
<path d="M17.7893 31.7471V31.8221H17.8643H20.5732C21.2006 31.8221 21.7092 32.3306 21.7092 32.958C21.7092 33.5854 21.2006 34.0939 20.5732 34.0939H16.6534C16.026 34.0939 15.5175 33.5854 15.5175 32.958V29.0381C15.5175 28.4107 16.026 27.9021 16.6534 27.9021C17.2808 27.9021 17.7893 28.4107 17.7893 29.0381V31.7471Z" fill="#387FD8" stroke="white" stroke-width="0.15"/>
<path d="M28.7632 43.6094C28.7632 42.982 29.2718 42.4734 29.8991 42.4734C30.5268 42.4734 31.0386 42.9823 31.0386 43.6094C31.0386 44.237 30.5331 44.7453 29.906 44.7453H29.8991C29.2718 44.7453 28.7632 44.2368 28.7632 43.6094Z" fill="#387FD8" stroke="white" stroke-width="0.15"/>
</svg>
