<svg width="40" height="40" viewBox="0 0 40 40" fill="none" xmlns="http://www.w3.org/2000/svg">
<circle cx="20" cy="20" r="20" fill="#0DC143"/>
<path d="M27.1117 12.773C25.2589 10.9757 22.6975 10 20.0817 10C14.5232 10 10.0545 14.2622 10.109 19.4486C10.109 21.0919 10.5995 22.6838 11.4169 24.1216L10 29L15.2861 27.7162C16.7575 28.4865 18.3924 28.8459 20.0272 28.8459C25.5313 28.8459 30 24.5838 30 19.3973C30 16.8811 28.9646 14.5189 27.1117 12.773ZM20.0817 27.2541C18.6104 27.2541 17.139 26.8946 15.8856 26.1757L15.5586 26.0216L12.3978 26.7919L13.2153 23.8649L12.9973 23.5568C10.5995 19.9108 11.7439 15.0838 15.6676 12.8243C19.5913 10.5649 24.6594 11.6432 27.0572 15.3405C29.455 19.0378 28.3106 23.8135 24.3869 26.073C23.1335 26.8432 21.6076 27.2541 20.0817 27.2541ZM24.8774 21.5541L24.2779 21.2973C24.2779 21.2973 23.406 20.9378 22.861 20.6811C22.8065 20.6811 22.752 20.6297 22.6975 20.6297C22.5341 20.6297 22.4251 20.6811 22.3161 20.7324C22.3161 20.7324 22.2616 20.7838 21.4986 21.6054C21.4441 21.7081 21.3351 21.7595 21.2262 21.7595H21.1717C21.1172 21.7595 21.0082 21.7081 20.9537 21.6568L20.6812 21.5541C20.0817 21.2973 19.5368 20.9892 19.1008 20.5784C18.9918 20.4757 18.8283 20.373 18.7193 20.2703C18.3379 19.9108 17.9564 19.5 17.6839 19.0378L17.6294 18.9351C17.5749 18.8838 17.5749 18.8324 17.5204 18.7297C17.5204 18.627 17.5204 18.5243 17.5749 18.473C17.5749 18.473 17.7929 18.2162 17.9564 18.0622C18.0654 17.9595 18.1199 17.8054 18.2289 17.7027C18.3379 17.5486 18.3924 17.3432 18.3379 17.1892C18.2834 16.9324 17.6294 15.5459 17.4659 15.2378C17.3569 15.0838 17.248 15.0324 17.0845 14.9811H16.921C16.812 14.9811 16.6485 14.9811 16.485 14.9811C16.376 14.9811 16.267 15.0324 16.158 15.0324L16.1035 15.0838C15.9946 15.1351 15.8856 15.2378 15.7766 15.2892C15.6676 15.3919 15.6131 15.4946 15.5041 15.5973C15.1226 16.0595 14.9046 16.6243 14.9046 17.1892C14.9046 17.6 15.0136 18.0108 15.1771 18.3703L15.2316 18.5243C15.7221 19.5 16.376 20.373 17.248 21.1432L17.4659 21.3486C17.6294 21.5027 17.7929 21.6054 17.9019 21.7595C19.0463 22.6838 20.3542 23.3514 21.8256 23.7108C21.9891 23.7622 22.2071 23.7622 22.3706 23.8135C22.5341 23.8135 22.752 23.8135 22.9155 23.8135C23.188 23.8135 23.515 23.7108 23.733 23.6081C23.8965 23.5054 24.0054 23.5054 24.1144 23.4027L24.2234 23.3C24.3324 23.1973 24.4414 23.1459 24.5504 23.0432C24.6594 22.9405 24.7684 22.8378 24.8229 22.7351C24.9319 22.5297 24.9864 22.273 25.0409 22.0162C25.0409 21.9135 25.0409 21.7595 25.0409 21.6568C25.0409 21.6568 24.9864 21.6054 24.8774 21.5541Z" fill="white"/>
</svg>
